<?xml version="1.0" encoding="UTF-8" standalone="no"?><svg xmlns="http://www.w3.org/2000/svg" xmlns:xlink="http://www.w3.org/1999/xlink" clip-rule="evenodd" stroke-miterlimit="10" viewBox="0 0 1024 768"><desc>SVG generated by Keynote</desc><defs></defs><g transform="matrix(1.00, 0.00, -0.00, -1.00, 0.0, 768.0)"><g><clipPath id="clip0x6180006b9560"><path d="M 0.0 768.0 L 1024.0 768.0 L 1024.0 0.0 L 0.0 0.0 Z M 0.0 768.0 "></path></clipPath><g clip-path="url(#clip0x6180006b9560)"><image xlink:href="../../BE4D2DDB-FBE4-467E-AE38-B34F9028D09E/assets/9397CAD6F20342ACC2646ABBCA758461.jpeg" width="2048.00" height="1536.00" transform="matrix(0.50, 0.00, -0.00, -0.50, 0.0, 768.0)"></image></g></g><image xlink:href="F2496BAF8BCDBAB30867008F15B62B42.png" width="577.00" height="67.00" transform="matrix(1.00, 0.00, -0.00, -1.00, 225.0, 692.0)"></image><text xml:space="preserve" font-family="HelveticaNeue-Bold,Helvetica Neue" font-weight="bold" font-size="64.0" fill="#FEFFFE" transform="matrix(1.00, 0.00, -0.00, -1.00, 224.6, 643.7)">R</text><text xml:space="preserve" font-family="HelveticaNeue-Bold,Helvetica Neue" font-weight="bold" font-size="64.0" fill="#FEFFFE" transform="matrix(1.00, 0.00, -0.00, -1.00, 270.8, 643.7)">e</text><text xml:space="preserve" font-family="HelveticaNeue-Bold,Helvetica Neue" font-weight="bold" font-size="64.0" fill="#FEFFFE" transform="matrix(1.00, 0.00, -0.00, -1.00, 307.6, 643.7)">p</text><text xml:space="preserve" font-family="HelveticaNeue-Bold,Helvetica Neue" font-weight="bold" font-size="64.0" fill="#FEFFFE" transform="matrix(1.00, 0.00, -0.00, -1.00, 346.7, 643.7)">o</text><text xml:space="preserve" font-family="HelveticaNeue-Bold,Helvetica Neue" font-weight="bold" font-size="64.0" fill="#FEFFFE" transform="matrix(1.00, 0.00, -0.00, -1.00, 385.8, 643.7)">r</text><text xml:space="preserve" font-family="HelveticaNeue-Bold,Helvetica Neue" font-weight="bold" font-size="64.0" fill="#FEFFFE" transform="matrix(1.00, 0.00, -0.00, -1.00, 410.7, 643.7)">t</text><text xml:space="preserve" font-family="HelveticaNeue-Bold,Helvetica Neue" font-weight="bold" font-size="64.0" fill="#FEFFFE" transform="matrix(1.00, 0.00, -0.00, -1.00, 433.2, 643.7)">i</text><text xml:space="preserve" font-family="HelveticaNeue-Bold,Helvetica Neue" font-weight="bold" font-size="64.0" fill="#FEFFFE" transform="matrix(1.00, 0.00, -0.00, -1.00, 449.7, 643.7)">n</text><text xml:space="preserve" font-family="HelveticaNeue-Bold,Helvetica Neue" font-weight="bold" font-size="64.0" fill="#FEFFFE" transform="matrix(1.00, 0.00, -0.00, -1.00, 487.7, 643.7)">g</text><text xml:space="preserve" font-family="HelveticaNeue-Bold,Helvetica Neue" font-weight="bold" font-size="64.0" fill="#FEFFFE" transform="matrix(1.00, 0.00, -0.00, -1.00, 526.8, 643.7)"> </text><text xml:space="preserve" font-family="HelveticaNeue-Bold,Helvetica Neue" font-weight="bold" font-size="64.0" fill="#FEFFFE" transform="matrix(1.00, 0.00, -0.00, -1.00, 544.6, 643.7)">a</text><text xml:space="preserve" font-family="HelveticaNeue-Bold,Helvetica Neue" font-weight="bold" font-size="64.0" fill="#FEFFFE" transform="matrix(1.00, 0.00, -0.00, -1.00, 581.3, 643.7)">n</text><text xml:space="preserve" font-family="HelveticaNeue-Bold,Helvetica Neue" font-weight="bold" font-size="64.0" fill="#FEFFFE" transform="matrix(1.00, 0.00, -0.00, -1.00, 619.3, 643.7)"> </text><text xml:space="preserve" font-family="HelveticaNeue-Bold,Helvetica Neue" font-weight="bold" font-size="64.0" fill="#FEFFFE" transform="matrix(1.00, 0.00, -0.00, -1.00, 637.1, 643.7)">I</text><text xml:space="preserve" font-family="HelveticaNeue-Bold,Helvetica Neue" font-weight="bold" font-size="64.0" fill="#FEFFFE" transform="matrix(1.00, 0.00, -0.00, -1.00, 655.9, 643.7)">s</text><text xml:space="preserve" font-family="HelveticaNeue-Bold,Helvetica Neue" font-weight="bold" font-size="64.0" fill="#FEFFFE" transform="matrix(1.00, 0.00, -0.00, -1.00, 690.3, 643.7)">s</text><text xml:space="preserve" font-family="HelveticaNeue-Bold,Helvetica Neue" font-weight="bold" font-size="64.0" fill="#FEFFFE" transform="matrix(1.00, 0.00, -0.00, -1.00, 724.7, 643.7)">u</text><text xml:space="preserve" font-family="HelveticaNeue-Bold,Helvetica Neue" font-weight="bold" font-size="64.0" fill="#FEFFFE" transform="matrix(1.00, 0.00, -0.00, -1.00, 762.6, 643.7)">e</text><image xlink:href="../../BE4D2DDB-FBE4-467E-AE38-B34F9028D09E/assets/6DA9FEF7003EF79E45A6816833C8A822.png" width="17.00" height="16.00" transform="matrix(1.00, 0.00, -0.00, -1.00, 61.0, 566.0)"></image><text xml:space="preserve" font-family="HelveticaNeue-Medium,Helvetica Neue" font-size="21.0" fill="#EAEAEA" transform="matrix(1.00, 0.00, -0.00, -1.00, 64.0, 552.3)">•</text><image xlink:href="909F1BA29B7058109335AE8D16F61489.png" width="85.00" height="30.00" transform="matrix(1.00, 0.00, -0.00, -1.00, 87.0, 573.0)"></image><text xml:space="preserve" font-family="HelveticaNeue-Medium,Helvetica Neue" font-size="28.0" fill="#EAEAEA" transform="matrix(1.00, 0.00, -0.00, -1.00, 90.4, 549.9)">G</text><text xml:space="preserve" font-family="HelveticaNeue-Medium,Helvetica Neue" font-size="28.0" fill="#EAEAEA" transform="matrix(1.00, 0.00, -0.00, -1.00, 111.6, 549.9)">o</text><text xml:space="preserve" font-family="HelveticaNeue-Medium,Helvetica Neue" font-size="28.0" fill="#EAEAEA" transform="matrix(1.00, 0.00, -0.00, -1.00, 128.2, 549.9)"> </text><text xml:space="preserve" font-family="HelveticaNeue-Medium,Helvetica Neue" font-size="28.0" fill="#EAEAEA" transform="matrix(1.00, 0.00, -0.00, -1.00, 136.0, 549.9)">t</text><text xml:space="preserve" font-family="HelveticaNeue-Medium,Helvetica Neue" font-size="28.0" fill="#EAEAEA" transform="matrix(1.00, 0.00, -0.00, -1.00, 145.3, 549.9)">o</text><text xml:space="preserve" font-family="HelveticaNeue-Medium,Helvetica Neue" font-size="28.0" fill="#EAEAEA" transform="matrix(1.00, 0.00, -0.00, -1.00, 161.9, 549.9)">:</text><text xml:space="preserve" font-family="HelveticaNeue-Medium,Helvetica Neue" font-size="28.0" fill="#EAEAEA" transform="matrix(1.00, 0.00, -0.00, -1.00, 169.7, 549.9)"> </text><image xlink:href="72D47589B3B0B48D3F9561697817E49D.png" width="366.00" height="30.00" transform="matrix(1.00, 0.00, -0.00, -1.00, 60.0, 507.0)"></image><text xml:space="preserve" font-family="Courier-Bold,Courier" font-weight="bold" font-size="24.0" fill="#EAEAEA" transform="matrix(1.00, 0.00, -0.00, -1.00, 64.0, 487.9)">g</text><text xml:space="preserve" font-family="Courier-Bold,Courier" font-weight="bold" font-size="24.0" fill="#EAEAEA" transform="matrix(1.00, 0.00, -0.00, -1.00, 78.4, 487.9)">i</text><text xml:space="preserve" font-family="Courier-Bold,Courier" font-weight="bold" font-size="24.0" fill="#EAEAEA" transform="matrix(1.00, 0.00, -0.00, -1.00, 92.8, 487.9)">t</text><text xml:space="preserve" font-family="Courier-Bold,Courier" font-weight="bold" font-size="24.0" fill="#EAEAEA" transform="matrix(1.00, 0.00, -0.00, -1.00, 107.2, 487.9)">h</text><text xml:space="preserve" font-family="Courier-Bold,Courier" font-weight="bold" font-size="24.0" fill="#EAEAEA" transform="matrix(1.00, 0.00, -0.00, -1.00, 121.6, 487.9)">u</text><text xml:space="preserve" font-family="Courier-Bold,Courier" font-weight="bold" font-size="24.0" fill="#EAEAEA" transform="matrix(1.00, 0.00, -0.00, -1.00, 136.0, 487.9)">b</text><text xml:space="preserve" font-family="Courier-Bold,Courier" font-weight="bold" font-size="24.0" fill="#EAEAEA" transform="matrix(1.00, 0.00, -0.00, -1.00, 150.4, 487.9)">.</text><text xml:space="preserve" font-family="Courier-Bold,Courier" font-weight="bold" font-size="24.0" fill="#EAEAEA" transform="matrix(1.00, 0.00, -0.00, -1.00, 164.8, 487.9)">c</text><text xml:space="preserve" font-family="Courier-Bold,Courier" font-weight="bold" font-size="24.0" fill="#EAEAEA" transform="matrix(1.00, 0.00, -0.00, -1.00, 179.2, 487.9)">o</text><text xml:space="preserve" font-family="Courier-Bold,Courier" font-weight="bold" font-size="24.0" fill="#EAEAEA" transform="matrix(1.00, 0.00, -0.00, -1.00, 193.6, 487.9)">m</text><text xml:space="preserve" font-family="Courier-Bold,Courier" font-weight="bold" font-size="24.0" fill="#EAEAEA" transform="matrix(1.00, 0.00, -0.00, -1.00, 208.0, 487.9)">/</text><text xml:space="preserve" font-family="Courier-Bold,Courier" font-weight="bold" font-size="24.0" fill="#EAEAEA" transform="matrix(1.00, 0.00, -0.00, -1.00, 222.4, 487.9)">c</text><text xml:space="preserve" font-family="Courier-Bold,Courier" font-weight="bold" font-size="24.0" fill="#EAEAEA" transform="matrix(1.00, 0.00, -0.00, -1.00, 236.8, 487.9)">o</text><text xml:space="preserve" font-family="Courier-Bold,Courier" font-weight="bold" font-size="24.0" fill="#EAEAEA" transform="matrix(1.00, 0.00, -0.00, -1.00, 251.2, 487.9)">r</text><text xml:space="preserve" font-family="Courier-Bold,Courier" font-weight="bold" font-size="24.0" fill="#EAEAEA" transform="matrix(1.00, 0.00, -0.00, -1.00, 265.6, 487.9)">r</text><text xml:space="preserve" font-family="Courier-Bold,Courier" font-weight="bold" font-size="24.0" fill="#EAEAEA" transform="matrix(1.00, 0.00, -0.00, -1.00, 280.0, 487.9)">a</text><text xml:space="preserve" font-family="Courier-Bold,Courier" font-weight="bold" font-size="24.0" fill="#EAEAEA" transform="matrix(1.00, 0.00, -0.00, -1.00, 294.4, 487.9)">n</text><text xml:space="preserve" font-family="Courier-Bold,Courier" font-weight="bold" font-size="24.0" fill="#EAEAEA" transform="matrix(1.00, 0.00, -0.00, -1.00, 308.8, 487.9)">w</text><text xml:space="preserve" font-family="Courier-Bold,Courier" font-weight="bold" font-size="24.0" fill="#EAEAEA" transform="matrix(1.00, 0.00, -0.00, -1.00, 323.2, 487.9)">e</text><text xml:space="preserve" font-family="Courier-Bold,Courier" font-weight="bold" font-size="24.0" fill="#EAEAEA" transform="matrix(1.00, 0.00, -0.00, -1.00, 337.6, 487.9)">b</text><text xml:space="preserve" font-family="Courier-Bold,Courier" font-weight="bold" font-size="24.0" fill="#EAEAEA" transform="matrix(1.00, 0.00, -0.00, -1.00, 352.0, 487.9)">s</text><text xml:space="preserve" font-family="Courier-Bold,Courier" font-weight="bold" font-size="24.0" fill="#EAEAEA" transform="matrix(1.00, 0.00, -0.00, -1.00, 366.4, 487.9)">t</text><text xml:space="preserve" font-family="Courier-Bold,Courier" font-weight="bold" font-size="24.0" fill="#EAEAEA" transform="matrix(1.00, 0.00, -0.00, -1.00, 380.9, 487.9)">e</text><text xml:space="preserve" font-family="Courier-Bold,Courier" font-weight="bold" font-size="24.0" fill="#EAEAEA" transform="matrix(1.00, 0.00, -0.00, -1.00, 395.3, 487.9)">r</text><text xml:space="preserve" font-family="Courier-Bold,Courier" font-weight="bold" font-size="24.0" fill="#EAEAEA" transform="matrix(1.00, 0.00, -0.00, -1.00, 409.7, 487.9)">/</text><g><clipPath id="clip0x6000010a4d40"><path d="M 63.0 482.3 L 424.1 482.3 L 424.1 486.6 L 63.0 486.6 Z M 63.0 482.3 "></path></clipPath><g clip-path="url(#clip0x6000010a4d40)"><path d="M 4.0 96.6 L 364.1 96.6 " fill="none" stroke="#EAEAEA" stroke-width="2.20" transform="matrix(1.00, 0.00, 0.00, -1.00, 60.0, 581.0)"></path></g></g><image xlink:href="628692CC7319EF1E02A1EE6F3CE7BDEA.png" width="265.00" height="30.00" transform="matrix(1.00, 0.00, -0.00, -1.00, 61.0, 478.0)"></image><text xml:space="preserve" font-family="Courier-Bold,Courier" font-weight="bold" font-size="24.0" fill="#EAEAEA" transform="matrix(1.00, 0.00, -0.00, -1.00, 64.0, 458.9)">s</text><text xml:space="preserve" font-family="Courier-Bold,Courier" font-weight="bold" font-size="24.0" fill="#EAEAEA" transform="matrix(1.00, 0.00, -0.00, -1.00, 78.4, 458.9)">c</text><text xml:space="preserve" font-family="Courier-Bold,Courier" font-weight="bold" font-size="24.0" fill="#EAEAEA" transform="matrix(1.00, 0.00, -0.00, -1.00, 92.8, 458.9)">i</text><text xml:space="preserve" font-family="Courier-Bold,Courier" font-weight="bold" font-size="24.0" fill="#EAEAEA" transform="matrix(1.00, 0.00, -0.00, -1.00, 107.2, 458.9)">p</text><text xml:space="preserve" font-family="Courier-Bold,Courier" font-weight="bold" font-size="24.0" fill="#EAEAEA" transform="matrix(1.00, 0.00, -0.00, -1.00, 121.6, 458.9)">y</text><text xml:space="preserve" font-family="Courier-Bold,Courier" font-weight="bold" font-size="24.0" fill="#EAEAEA" transform="matrix(1.00, 0.00, -0.00, -1.00, 136.0, 458.9)">-</text><text xml:space="preserve" font-family="Courier-Bold,Courier" font-weight="bold" font-size="24.0" fill="#EAEAEA" transform="matrix(1.00, 0.00, -0.00, -1.00, 150.4, 458.9)">s</text><text xml:space="preserve" font-family="Courier-Bold,Courier" font-weight="bold" font-size="24.0" fill="#EAEAEA" transform="matrix(1.00, 0.00, -0.00, -1.00, 164.8, 458.9)">p</text><text xml:space="preserve" font-family="Courier-Bold,Courier" font-weight="bold" font-size="24.0" fill="#EAEAEA" transform="matrix(1.00, 0.00, -0.00, -1.00, 179.2, 458.9)">r</text><text xml:space="preserve" font-family="Courier-Bold,Courier" font-weight="bold" font-size="24.0" fill="#EAEAEA" transform="matrix(1.00, 0.00, -0.00, -1.00, 193.6, 458.9)">i</text><text xml:space="preserve" font-family="Courier-Bold,Courier" font-weight="bold" font-size="24.0" fill="#EAEAEA" transform="matrix(1.00, 0.00, -0.00, -1.00, 208.0, 458.9)">n</text><text xml:space="preserve" font-family="Courier-Bold,Courier" font-weight="bold" font-size="24.0" fill="#EAEAEA" transform="matrix(1.00, 0.00, -0.00, -1.00, 222.4, 458.9)">t</text><text xml:space="preserve" font-family="Courier-Bold,Courier" font-weight="bold" font-size="24.0" fill="#EAEAEA" transform="matrix(1.00, 0.00, -0.00, -1.00, 236.8, 458.9)">s</text><text xml:space="preserve" font-family="Courier-Bold,Courier" font-weight="bold" font-size="24.0" fill="#EAEAEA" transform="matrix(1.00, 0.00, -0.00, -1.00, 251.2, 458.9)">-</text><text xml:space="preserve" font-family="Courier-Bold,Courier" font-weight="bold" font-size="24.0" fill="#EAEAEA" transform="matrix(1.00, 0.00, -0.00, -1.00, 265.6, 458.9)">2</text><text xml:space="preserve" font-family="Courier-Bold,Courier" font-weight="bold" font-size="24.0" fill="#EAEAEA" transform="matrix(1.00, 0.00, -0.00, -1.00, 280.0, 458.9)">0</text><text xml:space="preserve" font-family="Courier-Bold,Courier" font-weight="bold" font-size="24.0" fill="#EAEAEA" transform="matrix(1.00, 0.00, -0.00, -1.00, 294.4, 458.9)">1</text><text xml:space="preserve" font-family="Courier-Bold,Courier" font-weight="bold" font-size="24.0" fill="#EAEAEA" transform="matrix(1.00, 0.00, -0.00, -1.00, 308.8, 458.9)">4</text><g><clipPath id="clip0x6000010a5760"><path d="M 63.0 453.3 L 323.2 453.3 L 323.2 457.6 L 63.0 457.6 Z M 63.0 453.3 "></path></clipPath><g clip-path="url(#clip0x6000010a5760)"><path d="M 4.0 125.6 L 263.2 125.6 " fill="none" stroke="#EAEAEA" stroke-width="2.20" transform="matrix(1.00, 0.00, 0.00, -1.00, 60.0, 581.0)"></path></g></g><image xlink:href="../../BE4D2DDB-FBE4-467E-AE38-B34F9028D09E/assets/6DA9FEF7003EF79E45A6816833C8A822.png" width="17.00" height="16.00" transform="matrix(1.00, 0.00, -0.00, -1.00, 61.0, 410.0)"></image><text xml:space="preserve" font-family="HelveticaNeue-Medium,Helvetica Neue" font-size="21.0" fill="#EAEAEA" transform="matrix(1.00, 0.00, -0.00, -1.00, 64.0, 396.3)">•</text><image xlink:href="DB58489A049954571633FCB11AFD2780.png" width="343.00" height="30.00" transform="matrix(1.00, 0.00, -0.00, -1.00, 87.0, 417.0)"></image><text xml:space="preserve" font-family="HelveticaNeue-Medium,Helvetica Neue" font-size="28.0" fill="#EAEAEA" transform="matrix(1.00, 0.00, -0.00, -1.00, 90.4, 393.9)">C</text><text xml:space="preserve" font-family="HelveticaNeue-Medium,Helvetica Neue" font-size="28.0" fill="#EAEAEA" transform="matrix(1.00, 0.00, -0.00, -1.00, 110.6, 393.9)">l</text><text xml:space="preserve" font-family="HelveticaNeue-Medium,Helvetica Neue" font-size="28.0" fill="#EAEAEA" transform="matrix(1.00, 0.00, -0.00, -1.00, 117.3, 393.9)">i</text><text xml:space="preserve" font-family="HelveticaNeue-Medium,Helvetica Neue" font-size="28.0" fill="#EAEAEA" transform="matrix(1.00, 0.00, -0.00, -1.00, 124.1, 393.9)">c</text><text xml:space="preserve" font-family="HelveticaNeue-Medium,Helvetica Neue" font-size="28.0" fill="#EAEAEA" transform="matrix(1.00, 0.00, -0.00, -1.00, 139.6, 393.9)">k</text><text xml:space="preserve" font-family="HelveticaNeue-Medium,Helvetica Neue" font-size="28.0" fill="#EAEAEA" transform="matrix(1.00, 0.00, -0.00, -1.00, 154.7, 393.9)"> </text><text xml:space="preserve" font-family="HelveticaNeue-Medium,Helvetica Neue" font-size="28.0" fill="#EAEAEA" transform="matrix(1.00, 0.00, -0.00, -1.00, 162.5, 393.9)">o</text><text xml:space="preserve" font-family="HelveticaNeue-Medium,Helvetica Neue" font-size="28.0" fill="#EAEAEA" transform="matrix(1.00, 0.00, -0.00, -1.00, 179.1, 393.9)">n</text><text xml:space="preserve" font-family="HelveticaNeue-Medium,Helvetica Neue" font-size="28.0" fill="#EAEAEA" transform="matrix(1.00, 0.00, -0.00, -1.00, 195.1, 393.9)"> </text><text xml:space="preserve" font-family="HelveticaNeue-Medium,Helvetica Neue" font-size="28.0" fill="#EAEAEA" transform="matrix(1.00, 0.00, -0.00, -1.00, 202.9, 393.9)">t</text><text xml:space="preserve" font-family="HelveticaNeue-Medium,Helvetica Neue" font-size="28.0" fill="#EAEAEA" transform="matrix(1.00, 0.00, -0.00, -1.00, 212.2, 393.9)">h</text><text xml:space="preserve" font-family="HelveticaNeue-Medium,Helvetica Neue" font-size="28.0" fill="#EAEAEA" transform="matrix(1.00, 0.00, -0.00, -1.00, 228.3, 393.9)">e</text><text xml:space="preserve" font-family="HelveticaNeue-Medium,Helvetica Neue" font-size="28.0" fill="#EAEAEA" transform="matrix(1.00, 0.00, -0.00, -1.00, 243.9, 393.9)"> </text><text xml:space="preserve" font-family="HelveticaNeue-Medium,Helvetica Neue" font-size="28.0" fill="#EAEAEA" transform="matrix(1.00, 0.00, -0.00, -1.00, 251.7, 393.9)">I</text><text xml:space="preserve" font-family="HelveticaNeue-Medium,Helvetica Neue" font-size="28.0" fill="#EAEAEA" transform="matrix(1.00, 0.00, -0.00, -1.00, 259.4, 393.9)">s</text><text xml:space="preserve" font-family="HelveticaNeue-Medium,Helvetica Neue" font-size="28.0" fill="#EAEAEA" transform="matrix(1.00, 0.00, -0.00, -1.00, 274.0, 393.9)">s</text><text xml:space="preserve" font-family="HelveticaNeue-Medium,Helvetica Neue" font-size="28.0" fill="#EAEAEA" transform="matrix(1.00, 0.00, -0.00, -1.00, 288.5, 393.9)">u</text><text xml:space="preserve" font-family="HelveticaNeue-Medium,Helvetica Neue" font-size="28.0" fill="#EAEAEA" transform="matrix(1.00, 0.00, -0.00, -1.00, 304.6, 393.9)">e</text><text xml:space="preserve" font-family="HelveticaNeue-Medium,Helvetica Neue" font-size="28.0" fill="#EAEAEA" transform="matrix(1.00, 0.00, -0.00, -1.00, 320.1, 393.9)">s</text><text xml:space="preserve" font-family="HelveticaNeue-Medium,Helvetica Neue" font-size="28.0" fill="#EAEAEA" transform="matrix(1.00, 0.00, -0.00, -1.00, 334.7, 393.9)"> </text><text xml:space="preserve" font-family="HelveticaNeue-Medium,Helvetica Neue" font-size="28.0" fill="#EAEAEA" transform="matrix(1.00, 0.00, -0.00, -1.00, 342.5, 393.9)">b</text><text xml:space="preserve" font-family="HelveticaNeue-Medium,Helvetica Neue" font-size="28.0" fill="#EAEAEA" transform="matrix(1.00, 0.00, -0.00, -1.00, 359.6, 393.9)">u</text><text xml:space="preserve" font-family="HelveticaNeue-Medium,Helvetica Neue" font-size="28.0" fill="#EAEAEA" transform="matrix(1.00, 0.00, -0.00, -1.00, 375.6, 393.9)">t</text><text xml:space="preserve" font-family="HelveticaNeue-Medium,Helvetica Neue" font-size="28.0" fill="#EAEAEA" transform="matrix(1.00, 0.00, -0.00, -1.00, 385.0, 393.9)">t</text><text xml:space="preserve" font-family="HelveticaNeue-Medium,Helvetica Neue" font-size="28.0" fill="#EAEAEA" transform="matrix(1.00, 0.00, -0.00, -1.00, 394.3, 393.9)">o</text><text xml:space="preserve" font-family="HelveticaNeue-Medium,Helvetica Neue" font-size="28.0" fill="#EAEAEA" transform="matrix(1.00, 0.00, -0.00, -1.00, 410.9, 393.9)">n</text><text xml:space="preserve" font-family="HelveticaNeue-Medium,Helvetica Neue" font-size="28.0" fill="#EAEAEA" transform="matrix(1.00, 0.00, -0.00, -1.00, 427.0, 393.9)"> </text><image xlink:href="../../BE4D2DDB-FBE4-467E-AE38-B34F9028D09E/assets/6DA9FEF7003EF79E45A6816833C8A822.png" width="17.00" height="16.00" transform="matrix(1.00, 0.00, -0.00, -1.00, 61.0, 146.0)"></image><text xml:space="preserve" font-family="HelveticaNeue-Medium,Helvetica Neue" font-size="21.0" fill="#EAEAEA" transform="matrix(1.00, 0.00, -0.00, -1.00, 64.0, 132.3)">•</text><image xlink:href="76E0E3CFA19DB5B8F4291A2D2087F8A4.png" width="386.00" height="30.00" transform="matrix(1.00, 0.00, -0.00, -1.00, 87.0, 153.0)"></image><text xml:space="preserve" font-family="HelveticaNeue-Medium,Helvetica Neue" font-size="28.0" fill="#EAEAEA" transform="matrix(1.00, 0.00, -0.00, -1.00, 90.4, 129.9)">C</text><text xml:space="preserve" font-family="HelveticaNeue-Medium,Helvetica Neue" font-size="28.0" fill="#EAEAEA" transform="matrix(1.00, 0.00, -0.00, -1.00, 110.6, 129.9)">l</text><text xml:space="preserve" font-family="HelveticaNeue-Medium,Helvetica Neue" font-size="28.0" fill="#EAEAEA" transform="matrix(1.00, 0.00, -0.00, -1.00, 117.3, 129.9)">i</text><text xml:space="preserve" font-family="HelveticaNeue-Medium,Helvetica Neue" font-size="28.0" fill="#EAEAEA" transform="matrix(1.00, 0.00, -0.00, -1.00, 124.1, 129.9)">c</text><text xml:space="preserve" font-family="HelveticaNeue-Medium,Helvetica Neue" font-size="28.0" fill="#EAEAEA" transform="matrix(1.00, 0.00, -0.00, -1.00, 139.6, 129.9)">k</text><text xml:space="preserve" font-family="HelveticaNeue-Medium,Helvetica Neue" font-size="28.0" fill="#EAEAEA" transform="matrix(1.00, 0.00, -0.00, -1.00, 154.7, 129.9)"> </text><text xml:space="preserve" font-family="HelveticaNeue-Medium,Helvetica Neue" font-size="28.0" fill="#EAEAEA" transform="matrix(1.00, 0.00, -0.00, -1.00, 162.5, 129.9)">“</text><text xml:space="preserve" font-family="HelveticaNeue-Medium,Helvetica Neue" font-size="28.0" fill="#EAEAEA" transform="matrix(1.00, 0.00, -0.00, -1.00, 174.9, 129.9)">N</text><text xml:space="preserve" font-family="HelveticaNeue-Medium,Helvetica Neue" font-size="28.0" fill="#EAEAEA" transform="matrix(1.00, 0.00, -0.00, -1.00, 195.1, 129.9)">e</text><text xml:space="preserve" font-family="HelveticaNeue-Medium,Helvetica Neue" font-size="28.0" fill="#EAEAEA" transform="matrix(1.00, 0.00, -0.00, -1.00, 210.7, 129.9)">w</text><text xml:space="preserve" font-family="HelveticaNeue-Medium,Helvetica Neue" font-size="28.0" fill="#EAEAEA" transform="matrix(1.00, 0.00, -0.00, -1.00, 232.5, 129.9)"> </text><text xml:space="preserve" font-family="HelveticaNeue-Medium,Helvetica Neue" font-size="28.0" fill="#EAEAEA" transform="matrix(1.00, 0.00, -0.00, -1.00, 240.2, 129.9)">I</text><text xml:space="preserve" font-family="HelveticaNeue-Medium,Helvetica Neue" font-size="28.0" fill="#EAEAEA" transform="matrix(1.00, 0.00, -0.00, -1.00, 248.0, 129.9)">s</text><text xml:space="preserve" font-family="HelveticaNeue-Medium,Helvetica Neue" font-size="28.0" fill="#EAEAEA" transform="matrix(1.00, 0.00, -0.00, -1.00, 262.6, 129.9)">s</text><text xml:space="preserve" font-family="HelveticaNeue-Medium,Helvetica Neue" font-size="28.0" fill="#EAEAEA" transform="matrix(1.00, 0.00, -0.00, -1.00, 277.1, 129.9)">u</text><text xml:space="preserve" font-family="HelveticaNeue-Medium,Helvetica Neue" font-size="28.0" fill="#EAEAEA" transform="matrix(1.00, 0.00, -0.00, -1.00, 293.2, 129.9)">e</text><text xml:space="preserve" font-family="HelveticaNeue-Medium,Helvetica Neue" font-size="28.0" fill="#EAEAEA" transform="matrix(1.00, 0.00, -0.00, -1.00, 308.7, 129.9)">”</text><text xml:space="preserve" font-family="HelveticaNeue-Medium,Helvetica Neue" font-size="28.0" fill="#EAEAEA" transform="matrix(1.00, 0.00, -0.00, -1.00, 321.2, 129.9)"> </text><text xml:space="preserve" font-family="HelveticaNeue-Medium,Helvetica Neue" font-size="28.0" fill="#EAEAEA" transform="matrix(1.00, 0.00, -0.00, -1.00, 328.9, 129.9)">b</text><text xml:space="preserve" font-family="HelveticaNeue-Medium,Helvetica Neue" font-size="28.0" fill="#EAEAEA" transform="matrix(1.00, 0.00, -0.00, -1.00, 346.0, 129.9)">u</text><text xml:space="preserve" font-family="HelveticaNeue-Medium,Helvetica Neue" font-size="28.0" fill="#EAEAEA" transform="matrix(1.00, 0.00, -0.00, -1.00, 362.1, 129.9)">t</text><text xml:space="preserve" font-family="HelveticaNeue-Medium,Helvetica Neue" font-size="28.0" fill="#EAEAEA" transform="matrix(1.00, 0.00, -0.00, -1.00, 371.4, 129.9)">t</text><text xml:space="preserve" font-family="HelveticaNeue-Medium,Helvetica Neue" font-size="28.0" fill="#EAEAEA" transform="matrix(1.00, 0.00, -0.00, -1.00, 380.8, 129.9)">o</text><text xml:space="preserve" font-family="HelveticaNeue-Medium,Helvetica Neue" font-size="28.0" fill="#EAEAEA" transform="matrix(1.00, 0.00, -0.00, -1.00, 397.4, 129.9)">n</text><text xml:space="preserve" font-family="HelveticaNeue-Medium,Helvetica Neue" font-size="28.0" fill="#EAEAEA" transform="matrix(1.00, 0.00, -0.00, -1.00, 413.4, 129.9)"> </text><text xml:space="preserve" font-family="HelveticaNeue-Medium,Helvetica Neue" font-size="28.0" fill="#EAEAEA" transform="matrix(1.00, 0.00, -0.00, -1.00, 421.2, 129.9)">a</text><text xml:space="preserve" font-family="HelveticaNeue-Medium,Helvetica Neue" font-size="28.0" fill="#EAEAEA" transform="matrix(1.00, 0.00, -0.00, -1.00, 436.8, 129.9)">n</text><text xml:space="preserve" font-family="HelveticaNeue-Medium,Helvetica Neue" font-size="28.0" fill="#EAEAEA" transform="matrix(1.00, 0.00, -0.00, -1.00, 452.9, 129.9)">d</text><text xml:space="preserve" font-family="HelveticaNeue-Medium,Helvetica Neue" font-size="28.0" fill="#EAEAEA" transform="matrix(1.00, 0.00, -0.00, -1.00, 470.0, 129.9)"> </text><image xlink:href="AC35C19CCAF2B658D1744F7DE07D62A3.png" width="253.00" height="34.00" transform="matrix(1.00, 0.00, -0.00, -1.00, 87.0, 118.0)"></image><text xml:space="preserve" font-family="HelveticaNeue-Medium,Helvetica Neue" font-size="28.0" fill="#EAEAEA" transform="matrix(1.00, 0.00, -0.00, -1.00, 90.4, 95.9)">s</text><text xml:space="preserve" font-family="HelveticaNeue-Medium,Helvetica Neue" font-size="28.0" fill="#EAEAEA" transform="matrix(1.00, 0.00, -0.00, -1.00, 104.9, 95.9)">u</text><text xml:space="preserve" font-family="HelveticaNeue-Medium,Helvetica Neue" font-size="28.0" fill="#EAEAEA" transform="matrix(1.00, 0.00, -0.00, -1.00, 121.0, 95.9)">g</text><text xml:space="preserve" font-family="HelveticaNeue-Medium,Helvetica Neue" font-size="28.0" fill="#EAEAEA" transform="matrix(1.00, 0.00, -0.00, -1.00, 137.6, 95.9)">g</text><text xml:space="preserve" font-family="HelveticaNeue-Medium,Helvetica Neue" font-size="28.0" fill="#EAEAEA" transform="matrix(1.00, 0.00, -0.00, -1.00, 154.2, 95.9)">e</text><text xml:space="preserve" font-family="HelveticaNeue-Medium,Helvetica Neue" font-size="28.0" fill="#EAEAEA" transform="matrix(1.00, 0.00, -0.00, -1.00, 169.7, 95.9)">s</text><text xml:space="preserve" font-family="HelveticaNeue-Medium,Helvetica Neue" font-size="28.0" fill="#EAEAEA" transform="matrix(1.00, 0.00, -0.00, -1.00, 184.3, 95.9)">t</text><text xml:space="preserve" font-family="HelveticaNeue-Medium,Helvetica Neue" font-size="28.0" fill="#EAEAEA" transform="matrix(1.00, 0.00, -0.00, -1.00, 193.6, 95.9)"> </text><text xml:space="preserve" font-family="HelveticaNeue-Medium,Helvetica Neue" font-size="28.0" fill="#EAEAEA" transform="matrix(1.00, 0.00, -0.00, -1.00, 201.4, 95.9)">s</text><text xml:space="preserve" font-family="HelveticaNeue-Medium,Helvetica Neue" font-size="28.0" fill="#EAEAEA" transform="matrix(1.00, 0.00, -0.00, -1.00, 215.9, 95.9)">o</text><text xml:space="preserve" font-family="HelveticaNeue-Medium,Helvetica Neue" font-size="28.0" fill="#EAEAEA" transform="matrix(1.00, 0.00, -0.00, -1.00, 232.5, 95.9)">m</text><text xml:space="preserve" font-family="HelveticaNeue-Medium,Helvetica Neue" font-size="28.0" fill="#EAEAEA" transform="matrix(1.00, 0.00, -0.00, -1.00, 256.9, 95.9)">e</text><text xml:space="preserve" font-family="HelveticaNeue-Medium,Helvetica Neue" font-size="28.0" fill="#EAEAEA" transform="matrix(1.00, 0.00, -0.00, -1.00, 272.4, 95.9)">t</text><text xml:space="preserve" font-family="HelveticaNeue-Medium,Helvetica Neue" font-size="28.0" fill="#EAEAEA" transform="matrix(1.00, 0.00, -0.00, -1.00, 281.8, 95.9)">h</text><text xml:space="preserve" font-family="HelveticaNeue-Medium,Helvetica Neue" font-size="28.0" fill="#EAEAEA" transform="matrix(1.00, 0.00, -0.00, -1.00, 297.8, 95.9)">i</text><text xml:space="preserve" font-family="HelveticaNeue-Medium,Helvetica Neue" font-size="28.0" fill="#EAEAEA" transform="matrix(1.00, 0.00, -0.00, -1.00, 304.6, 95.9)">n</text><text xml:space="preserve" font-family="HelveticaNeue-Medium,Helvetica Neue" font-size="28.0" fill="#EAEAEA" transform="matrix(1.00, 0.00, -0.00, -1.00, 320.7, 95.9)">g</text><g><clipPath id="clip0x610000abcec0"><path d="M 199.0 369.0 L 345.0 369.0 L 345.0 213.0 L 199.0 213.0 Z M 198.5 369.0 "></path></clipPath><g clip-path="url(#clip0x610000abcec0)"><image xlink:href="842A19D9227DE1A5AB1210E1D560EE90.png" width="390.00" height="414.00" transform="matrix(0.38, 0.00, -0.00, -0.38, 198.5, 369.0)"></image></g></g><image xlink:href="237439DEAD653D292CCAB2E7E2DE6383.png" width="540.00" height="528.00" transform="matrix(1.00, 0.00, -0.00, -1.00, 474.0, 566.8)" opacity="0.70"></image><g><clipPath id="clip0x6080008afae0"><path d="M 494.0 557.0 L 994.0 557.0 L 994.0 69.0 L 494.0 69.0 Z M 494.0 556.8 "></path></clipPath><g clip-path="url(#clip0x6080008afae0)"><image xlink:href="EF108D665754B82C8A11A5C3CF16A157.png" width="2170.00" height="2116.00" transform="matrix(0.23, 0.00, -0.00, -0.23, 494.0, 556.8)"></image></g></g></g></svg>