<?xml version="1.0" encoding="UTF-8" standalone="no"?><svg xmlns="http://www.w3.org/2000/svg" xmlns:xlink="http://www.w3.org/1999/xlink" clip-rule="evenodd" stroke-miterlimit="10" viewBox="0 0 349 68"><desc>SVG generated by Keynote</desc><defs></defs><g transform="matrix(1.00, 0.00, -0.00, -1.00, 0.0, 68.0)"><image xlink:href="../../BE4D2DDB-FBE4-467E-AE38-B34F9028D09E/assets/6DA9FEF7003EF79E45A6816833C8A822.png" width="17.00" height="16.00" transform="matrix(1.00, 0.00, -0.00, -1.00, 1.0, 58.0)"></image><text xml:space="preserve" font-family="HelveticaNeue-Medium,Helvetica Neue" font-size="21.0" fill="#EBEAEA" transform="matrix(1.00, 0.00, -0.00, -1.00, 4.0, 44.3)">•</text><image xlink:href="C53CC5F95A47FBC3F2D07B48E28B8409.png" width="319.00" height="34.00" transform="matrix(1.00, 0.00, -0.00, -1.00, 29.0, 64.0)"></image><text xml:space="preserve" font-family="HelveticaNeue-Medium,Helvetica Neue" font-size="28.0" fill="#EAEAEA" transform="matrix(1.00, 0.00, -0.00, -1.00, 31.0, 41.9)">R</text><text xml:space="preserve" font-family="HelveticaNeue-Medium,Helvetica Neue" font-size="28.0" fill="#EAEAEA" transform="matrix(1.00, 0.00, -0.00, -1.00, 50.7, 41.9)">e</text><text xml:space="preserve" font-family="HelveticaNeue-Medium,Helvetica Neue" font-size="28.0" fill="#EAEAEA" transform="matrix(1.00, 0.00, -0.00, -1.00, 66.3, 41.9)">p</text><text xml:space="preserve" font-family="HelveticaNeue-Medium,Helvetica Neue" font-size="28.0" fill="#EAEAEA" transform="matrix(1.00, 0.00, -0.00, -1.00, 83.4, 41.9)">o</text><text xml:space="preserve" font-family="HelveticaNeue-Medium,Helvetica Neue" font-size="28.0" fill="#EAEAEA" transform="matrix(1.00, 0.00, -0.00, -1.00, 100.0, 41.9)">r</text><text xml:space="preserve" font-family="HelveticaNeue-Medium,Helvetica Neue" font-size="28.0" fill="#EAEAEA" transform="matrix(1.00, 0.00, -0.00, -1.00, 109.8, 41.9)">t</text><text xml:space="preserve" font-family="HelveticaNeue-Medium,Helvetica Neue" font-size="28.0" fill="#EAEAEA" transform="matrix(1.00, 0.00, -0.00, -1.00, 119.2, 41.9)">i</text><text xml:space="preserve" font-family="HelveticaNeue-Medium,Helvetica Neue" font-size="28.0" fill="#EAEAEA" transform="matrix(1.00, 0.00, -0.00, -1.00, 125.9, 41.9)">n</text><text xml:space="preserve" font-family="HelveticaNeue-Medium,Helvetica Neue" font-size="28.0" fill="#EAEAEA" transform="matrix(1.00, 0.00, -0.00, -1.00, 142.0, 41.9)">g</text><text xml:space="preserve" font-family="HelveticaNeue-Medium,Helvetica Neue" font-size="28.0" fill="#EAEAEA" transform="matrix(1.00, 0.00, -0.00, -1.00, 158.6, 41.9)"> </text><text xml:space="preserve" font-family="HelveticaNeue-Medium,Helvetica Neue" font-size="28.0" fill="#EAEAEA" transform="matrix(1.00, 0.00, -0.00, -1.00, 166.4, 41.9)">a</text><text xml:space="preserve" font-family="HelveticaNeue-Medium,Helvetica Neue" font-size="28.0" fill="#EAEAEA" transform="matrix(1.00, 0.00, -0.00, -1.00, 181.9, 41.9)"> </text><text xml:space="preserve" font-family="HelveticaNeue-Medium,Helvetica Neue" font-size="28.0" fill="#EAEAEA" transform="matrix(1.00, 0.00, -0.00, -1.00, 189.7, 41.9)">b</text><text xml:space="preserve" font-family="HelveticaNeue-Medium,Helvetica Neue" font-size="28.0" fill="#EAEAEA" transform="matrix(1.00, 0.00, -0.00, -1.00, 206.8, 41.9)">u</text><text xml:space="preserve" font-family="HelveticaNeue-Medium,Helvetica Neue" font-size="28.0" fill="#EAEAEA" transform="matrix(1.00, 0.00, -0.00, -1.00, 222.9, 41.9)">g</text><text xml:space="preserve" font-family="HelveticaNeue-Medium,Helvetica Neue" font-size="28.0" fill="#EAEAEA" transform="matrix(1.00, 0.00, -0.00, -1.00, 239.5, 41.9)"> </text><text xml:space="preserve" font-family="HelveticaNeue-Medium,Helvetica Neue" font-size="28.0" fill="#EAEAEA" transform="matrix(1.00, 0.00, -0.00, -1.00, 247.3, 41.9)">d</text><text xml:space="preserve" font-family="HelveticaNeue-Medium,Helvetica Neue" font-size="28.0" fill="#EAEAEA" transform="matrix(1.00, 0.00, -0.00, -1.00, 264.4, 41.9)">o</text><text xml:space="preserve" font-family="HelveticaNeue-Medium,Helvetica Neue" font-size="28.0" fill="#EAEAEA" transform="matrix(1.00, 0.00, -0.00, -1.00, 281.0, 41.9)">e</text><text xml:space="preserve" font-family="HelveticaNeue-Medium,Helvetica Neue" font-size="28.0" fill="#EAEAEA" transform="matrix(1.00, 0.00, -0.00, -1.00, 296.6, 41.9)">s</text><text xml:space="preserve" font-family="HelveticaNeue-Medium,Helvetica Neue" font-size="28.0" fill="#EAEAEA" transform="matrix(1.00, 0.00, -0.00, -1.00, 311.1, 41.9)">n</text><text xml:space="preserve" font-family="HelveticaNeue-Medium,Helvetica Neue" font-size="28.0" fill="#EAEAEA" transform="matrix(1.00, 0.00, -0.00, -1.00, 327.2, 41.9)">’</text><text xml:space="preserve" font-family="HelveticaNeue-Medium,Helvetica Neue" font-size="28.0" fill="#EAEAEA" transform="matrix(1.00, 0.00, -0.00, -1.00, 334.5, 41.9)">t</text><text xml:space="preserve" font-family="HelveticaNeue-Medium,Helvetica Neue" font-size="28.0" fill="#EAEAEA" transform="matrix(1.00, 0.00, -0.00, -1.00, 343.8, 41.9)"> </text><image xlink:href="AA1665AD5EEE6EB4863124184CA2CFBD.png" width="270.00" height="29.00" transform="matrix(1.00, 0.00, -0.00, -1.00, 28.0, 30.0)"></image><text xml:space="preserve" font-family="HelveticaNeue-Medium,Helvetica Neue" font-size="28.0" fill="#EAEAEA" transform="matrix(1.00, 0.00, -0.00, -1.00, 31.0, 7.9)">m</text><text xml:space="preserve" font-family="HelveticaNeue-Medium,Helvetica Neue" font-size="28.0" fill="#EAEAEA" transform="matrix(1.00, 0.00, -0.00, -1.00, 55.4, 7.9)">e</text><text xml:space="preserve" font-family="HelveticaNeue-Medium,Helvetica Neue" font-size="28.0" fill="#EAEAEA" transform="matrix(1.00, 0.00, -0.00, -1.00, 70.9, 7.9)">a</text><text xml:space="preserve" font-family="HelveticaNeue-Medium,Helvetica Neue" font-size="28.0" fill="#EAEAEA" transform="matrix(1.00, 0.00, -0.00, -1.00, 86.5, 7.9)">n</text><text xml:space="preserve" font-family="HelveticaNeue-Medium,Helvetica Neue" font-size="28.0" fill="#EAEAEA" transform="matrix(1.00, 0.00, -0.00, -1.00, 102.6, 7.9)"> </text><text xml:space="preserve" font-family="HelveticaNeue-Medium,Helvetica Neue" font-size="28.0" fill="#EAEAEA" transform="matrix(1.00, 0.00, -0.00, -1.00, 110.4, 7.9)">i</text><text xml:space="preserve" font-family="HelveticaNeue-Medium,Helvetica Neue" font-size="28.0" fill="#EAEAEA" transform="matrix(1.00, 0.00, -0.00, -1.00, 117.1, 7.9)">t</text><text xml:space="preserve" font-family="HelveticaNeue-Medium,Helvetica Neue" font-size="28.0" fill="#EAEAEA" transform="matrix(1.00, 0.00, -0.00, -1.00, 126.4, 7.9)"> </text><text xml:space="preserve" font-family="HelveticaNeue-Medium,Helvetica Neue" font-size="28.0" fill="#EAEAEA" transform="matrix(1.00, 0.00, -0.00, -1.00, 134.2, 7.9)">w</text><text xml:space="preserve" font-family="HelveticaNeue-Medium,Helvetica Neue" font-size="28.0" fill="#EAEAEA" transform="matrix(1.00, 0.00, -0.00, -1.00, 156.0, 7.9)">i</text><text xml:space="preserve" font-family="HelveticaNeue-Medium,Helvetica Neue" font-size="28.0" fill="#EAEAEA" transform="matrix(1.00, 0.00, -0.00, -1.00, 162.7, 7.9)">l</text><text xml:space="preserve" font-family="HelveticaNeue-Medium,Helvetica Neue" font-size="28.0" fill="#EAEAEA" transform="matrix(1.00, 0.00, -0.00, -1.00, 169.5, 7.9)">l</text><text xml:space="preserve" font-family="HelveticaNeue-Medium,Helvetica Neue" font-size="28.0" fill="#EAEAEA" transform="matrix(1.00, 0.00, -0.00, -1.00, 176.2, 7.9)"> </text><text xml:space="preserve" font-family="HelveticaNeue-Medium,Helvetica Neue" font-size="28.0" fill="#EAEAEA" transform="matrix(1.00, 0.00, -0.00, -1.00, 184.0, 7.9)">b</text><text xml:space="preserve" font-family="HelveticaNeue-Medium,Helvetica Neue" font-size="28.0" fill="#EAEAEA" transform="matrix(1.00, 0.00, -0.00, -1.00, 201.1, 7.9)">e</text><text xml:space="preserve" font-family="HelveticaNeue-Medium,Helvetica Neue" font-size="28.0" fill="#EAEAEA" transform="matrix(1.00, 0.00, -0.00, -1.00, 216.7, 7.9)"> </text><text xml:space="preserve" font-family="HelveticaNeue-Medium,Helvetica Neue" font-size="28.0" fill="#EAEAEA" transform="matrix(1.00, 0.00, -0.00, -1.00, 224.5, 7.9)">ﬁ</text><text xml:space="preserve" font-family="HelveticaNeue-Medium,Helvetica Neue" font-size="28.0" fill="#EAEAEA" transform="matrix(1.00, 0.00, -0.00, -1.00, 240.0, 7.9)">x</text><text xml:space="preserve" font-family="HelveticaNeue-Medium,Helvetica Neue" font-size="28.0" fill="#EAEAEA" transform="matrix(1.00, 0.00, -0.00, -1.00, 255.1, 7.9)">e</text><text xml:space="preserve" font-family="HelveticaNeue-Medium,Helvetica Neue" font-size="28.0" fill="#EAEAEA" transform="matrix(1.00, 0.00, -0.00, -1.00, 270.7, 7.9)">d</text><text xml:space="preserve" font-family="HelveticaNeue-Medium,Helvetica Neue" font-size="28.0" fill="#EAEAEA" transform="matrix(1.00, 0.00, -0.00, -1.00, 287.8, 7.9)">!</text></g></svg>