<?xml version="1.0" encoding="UTF-8" standalone="no"?><svg xmlns="http://www.w3.org/2000/svg" xmlns:xlink="http://www.w3.org/1999/xlink" clip-rule="evenodd" stroke-miterlimit="10" viewBox="0 0 116 76"><desc>SVG generated by Keynote</desc><defs></defs><g transform="matrix(1.00, 0.00, -0.00, -1.00, 0.0, 76.0)"><image xlink:href="D0BBE64E1AC44B4F5B5E4B8B997A9B5B.png" width="55.00" height="29.00" transform="matrix(1.00, 0.00, -0.00, -1.00, 29.0, 75.0)"></image><text xml:space="preserve" font-family="Chalkboard,Chalkboard" font-size="30.0" fill="#FEFFFE" transform="matrix(1.00, 0.00, -0.00, -1.00, 31.5, 51.2)">P</text><text xml:space="preserve" font-family="Chalkboard,Chalkboard" font-size="30.0" fill="#FEFFFE" transform="matrix(1.00, 0.00, -0.00, -1.00, 48.9, 51.2)">u</text><text xml:space="preserve" font-family="Chalkboard,Chalkboard" font-size="30.0" fill="#FEFFFE" transform="matrix(1.00, 0.00, -0.00, -1.00, 65.5, 51.2)">l</text><text xml:space="preserve" font-family="Chalkboard,Chalkboard" font-size="30.0" fill="#FEFFFE" transform="matrix(1.00, 0.00, -0.00, -1.00, 74.1, 51.2)">l</text><text xml:space="preserve" font-family="Chalkboard,Chalkboard" font-size="30.0" fill="#FEFFFE" transform="matrix(1.00, 0.00, -0.00, -1.00, 83.1, 51.2)">
</text><text xml:space="preserve" font-family="Chalkboard,Chalkboard" font-size="30.0" fill="#FEFFFE" transform="matrix(1.00, 0.00, -0.00, -1.00, 83.1, 51.2)"></text><image xlink:href="4CF9343102BB06910DB59C405C7E8AF2.png" width="113.00" height="37.00" transform="matrix(1.00, 0.00, -0.00, -1.00, 1.0, 38.0)"></image><text xml:space="preserve" font-family="Chalkboard,Chalkboard" font-size="30.0" fill="#FEFFFE" transform="matrix(1.00, 0.00, -0.00, -1.00, 3.6, 14.2)">R</text><text xml:space="preserve" font-family="Chalkboard,Chalkboard" font-size="30.0" fill="#FEFFFE" transform="matrix(1.00, 0.00, -0.00, -1.00, 22.3, 14.2)">e</text><text xml:space="preserve" font-family="Chalkboard,Chalkboard" font-size="30.0" fill="#FEFFFE" transform="matrix(1.00, 0.00, -0.00, -1.00, 38.1, 14.2)">q</text><text xml:space="preserve" font-family="Chalkboard,Chalkboard" font-size="30.0" fill="#FEFFFE" transform="matrix(1.00, 0.00, -0.00, -1.00, 53.6, 14.2)">u</text><text xml:space="preserve" font-family="Chalkboard,Chalkboard" font-size="30.0" fill="#FEFFFE" transform="matrix(1.00, 0.00, -0.00, -1.00, 69.4, 14.2)">e</text><text xml:space="preserve" font-family="Chalkboard,Chalkboard" font-size="30.0" fill="#FEFFFE" transform="matrix(1.00, 0.00, -0.00, -1.00, 85.9, 14.2)">s</text><text xml:space="preserve" font-family="Chalkboard,Chalkboard" font-size="30.0" fill="#FEFFFE" transform="matrix(1.00, 0.00, -0.00, -1.00, 97.4, 14.2)">t</text></g></svg>