<?xml version="1.0" encoding="UTF-8" standalone="no"?><svg xmlns="http://www.w3.org/2000/svg" xmlns:xlink="http://www.w3.org/1999/xlink" clip-rule="evenodd" stroke-miterlimit="10" viewBox="0 0 85 183"><desc>SVG generated by Keynote</desc><defs></defs><g transform="matrix(1.00, 0.00, -0.00, -1.00, 0.0, 183.0)"><path d="M 24.8 157.7 C 24.5 158.3 23.0 159.1 22.8 159.6 M 24.8 157.7 C 22.1 157.1 19.8 158.9 16.5 161.1 C 13.1 163.8 17.9 162.6 18.1 163.7 C 14.1 168.0 13.0 166.7 12.2 164.3 C 11.5 167.0 4.2 168.8 7.1 170.3 C 15.1 164.6 1.9 175.0 9.6 171.5 C 10.6 171.3 9.1 173.4 8.4 173.9 C 11.3 173.3 8.3 177.3 12.5 175.4 C 14.0 176.5 12.9 176.3 16.1 175.8 C 17.2 175.2 16.4 175.0 16.0 174.8 C 15.1 172.7 19.5 173.6 20.5 171.2 C 23.9 172.1 23.4 168.1 21.3 168.3 C 23.0 167.3 26.8 168.1 27.0 165.2 C 28.8 165.5 32.1 161.3 28.6 162.0 C 26.1 162.7 27.4 160.4 27.2 159.6 C 26.2 159.7 24.4 162.5 23.7 162.4 C 24.2 161.4 26.5 158.0 23.3 160.9 C 23.7 159.2 21.8 160.2 24.8 157.7 C 24.8 157.7 24.8 157.7 24.8 157.7 Z M 11.7 166.3 C 11.2 165.8 12.9 165.4 11.7 166.3 C 11.7 166.3 11.7 166.3 11.7 166.3 Z M 26.6 167.4 C 26.1 166.8 27.8 166.4 26.6 167.4 C 26.6 167.4 26.6 167.4 26.6 167.4 Z M 16.7 174.3 C 16.2 173.7 18.0 173.4 16.7 174.3 C 16.7 174.3 16.7 174.3 16.7 174.3 Z M 15.3 164.2 C 17.6 163.1 14.3 166.3 13.6 166.0 C 14.0 165.7 14.4 164.1 15.3 164.2 C 15.3 164.2 15.3 164.2 15.3 164.2 Z M 18.3 167.4 C 18.3 167.1 19.0 166.3 19.4 167.0 C 19.0 167.6 18.3 167.7 18.3 167.4 C 18.3 167.4 18.3 167.4 18.3 167.4 Z M 6.1 172.6 C 6.1 172.3 7.0 171.6 7.3 172.3 C 6.9 172.8 6.1 173.0 6.1 172.6 C 6.1 172.6 6.1 172.6 6.1 172.6 Z M 18.8 164.0 C 19.3 163.7 19.9 164.1 19.4 164.6 C 18.9 164.6 17.5 165.6 18.8 164.0 C 18.8 164.0 18.8 164.0 18.8 164.0 Z M 20.1 159.6 C 21.9 158.6 19.4 162.1 19.3 161.8 C 18.4 161.8 18.8 159.8 20.1 159.6 C 20.1 159.6 20.1 159.6 20.1 159.6 Z M 20.3 164.0 C 21.9 163.2 20.1 164.9 20.3 164.0 C 20.3 164.0 20.3 164.0 20.3 164.0 Z M 10.9 176.2 C 12.6 175.4 10.5 177.1 10.9 176.2 C 10.9 176.2 10.9 176.2 10.9 176.2 Z M 20.1 172.2 C 21.7 171.4 19.8 173.1 20.1 172.2 C 20.1 172.2 20.1 172.2 20.1 172.2 Z M 12.5 168.2 C 10.0 170.1 11.0 166.9 12.5 168.2 C 12.5 168.2 12.5 168.2 12.5 168.2 Z M 23.4 156.4 C 21.3 158.3 21.8 155.2 23.4 156.4 C 23.4 156.4 23.4 156.4 23.4 156.4 Z M 50.6 39.9 C 49.2 37.8 50.7 47.5 52.1 43.1 C 53.9 41.1 56.1 47.2 53.4 46.5 C 53.9 48.4 53.7 48.4 55.2 49.0 C 53.6 49.9 54.1 54.2 55.4 55.3 C 57.2 55.7 54.8 52.5 57.1 54.4 C 59.1 59.3 58.6 53.5 61.2 54.9 C 61.2 55.1 60.3 55.5 61.0 55.8 C 62.8 55.4 63.2 52.0 64.9 53.0 C 64.4 52.2 65.1 47.7 64.1 49.8 C 62.6 51.0 64.6 44.8 62.0 46.2 C 62.8 44.4 60.5 43.7 61.5 41.8 C 61.4 40.7 60.0 41.3 59.7 41.6 C 58.5 42.2 62.1 39.2 59.2 38.6 C 59.8 38.2 57.5 33.9 58.0 37.6 C 57.8 36.6 56.0 31.3 54.9 35.1 C 55.4 39.1 50.7 32.7 52.5 36.8 C 53.7 40.0 54.4 40.3 52.1 38.6 C 51.9 37.9 50.1 34.5 50.4 37.9 C 51.0 38.5 51.4 40.0 50.6 39.9 C 50.6 39.9 50.6 39.9 50.6 39.9 Z M 53.8 37.6 C 54.8 39.4 53.0 38.2 53.8 37.6 C 53.8 37.6 53.8 37.6 53.8 37.6 Z M 62.2 41.9 C 63.0 43.7 61.3 42.4 62.2 41.9 C 62.2 41.9 62.2 41.9 62.2 41.9 Z M 52.3 45.6 C 53.4 46.1 50.9 47.4 52.3 45.6 C 52.3 45.6 52.3 45.6 52.3 45.6 Z M 58.9 39.6 C 58.9 39.8 58.4 39.5 58.1 39.2 C 58.3 39.2 58.8 39.5 58.9 39.6 C 58.9 39.6 58.9 39.6 58.9 39.6 Z M 53.4 48.5 C 55.6 50.5 51.6 49.7 53.4 48.5 C 53.4 48.5 53.4 48.5 53.4 48.5 Z M 57.7 52.8 C 60.4 52.2 58.0 55.6 57.7 52.8 C 57.7 52.8 57.7 52.8 57.7 52.8 Z M 62.1 47.1 C 61.4 46.8 62.3 46.5 62.1 47.1 C 62.1 47.1 62.1 47.1 62.1 47.1 Z M 57.5 35.0 C 56.8 34.8 57.6 34.4 57.5 35.0 C 57.5 35.0 57.5 35.0 57.5 35.0 Z M 63.0 50.6 C 62.0 50.7 63.2 49.4 63.0 50.6 C 63.0 50.6 63.0 50.6 63.0 50.6 Z M 53.5 45.6 C 50.5 44.1 55.3 41.6 53.5 45.6 C 53.5 45.6 53.5 45.6 53.5 45.6 Z M 51.5 41.5 C 50.4 40.0 52.9 41.2 52.9 42.1 C 52.7 42.1 51.8 41.7 51.5 41.5 C 51.5 41.5 51.5 41.5 51.5 41.5 Z M 54.7 48.0 C 53.1 46.8 54.7 46.3 54.7 48.0 C 54.7 48.0 54.7 48.0 54.7 48.0 Z M 52.0 44.4 C 51.9 43.5 52.5 44.9 52.0 44.4 C 52.0 44.4 52.0 44.4 52.0 44.4 Z M 53.7 52.0 C 53.7 51.1 54.2 52.5 53.7 52.0 C 53.7 52.0 53.7 52.0 53.7 52.0 Z M 49.6 39.9 C 49.5 39.0 50.2 40.5 49.6 39.9 C 49.6 39.9 49.6 39.9 49.6 39.9 Z M 54.8 50.8 C 55.8 50.7 57.1 47.8 56.8 52.5 C 56.3 53.4 54.4 52.2 54.8 50.8 C 54.8 50.8 54.8 50.8 54.8 50.8 Z M 29.3 153.5 C 20.7 157.6 25.7 160.0 26.1 161.0 C 26.1 163.0 27.7 162.8 29.7 162.3 C 33.5 163.4 29.6 157.7 32.9 159.2 C 37.9 160.7 32.2 154.4 36.4 157.0 C 37.0 158.1 38.8 154.8 38.4 154.8 C 41.3 155.1 40.0 150.4 39.7 150.1 C 41.0 149.7 44.4 152.4 44.3 147.5 C 45.2 144.7 49.2 146.4 46.4 145.2 C 50.3 145.6 46.6 143.5 48.6 142.6 C 50.9 142.6 46.4 140.9 50.7 140.9 C 49.1 138.5 51.7 142.9 53.7 136.3 C 51.8 138.8 53.5 132.6 54.4 134.6 C 54.9 137.5 55.4 131.7 57.9 129.7 C 57.4 128.5 56.8 124.3 58.9 126.1 C 63.1 124.9 58.5 122.6 61.4 122.5 C 62.8 122.1 60.8 120.8 61.3 120.3 C 63.4 120.1 62.7 118.7 64.4 115.5 C 68.1 108.4 60.2 112.7 60.4 109.8 C 59.7 109.1 52.3 110.9 57.4 110.9 C 55.9 111.0 58.5 118.2 54.7 113.6 C 55.8 116.5 53.0 112.3 53.4 117.5 C 59.4 113.3 51.9 124.5 52.7 118.3 C 51.3 118.8 50.4 121.1 52.0 119.9 C 55.4 120.7 48.7 123.1 53.5 122.7 C 50.7 125.7 54.4 126.5 51.6 126.2 C 47.2 124.9 52.7 126.7 50.5 127.8 C 48.0 131.9 45.6 126.0 46.9 130.3 C 42.5 133.0 48.0 132.2 47.5 133.9 C 49.8 136.0 42.8 136.6 44.5 133.4 C 44.8 135.9 43.2 132.8 43.5 135.7 C 46.7 136.1 39.3 136.2 41.6 137.0 C 40.9 139.1 42.9 139.3 42.6 139.8 C 40.7 142.3 39.1 139.8 40.3 141.6 C 40.8 142.8 37.0 141.6 37.4 142.5 C 39.6 140.2 38.0 146.5 36.6 145.7 C 37.8 144.1 33.2 143.9 34.0 146.4 C 39.6 149.4 30.9 147.3 31.4 149.9 C 34.9 151.3 26.5 155.4 27.7 151.9 C 27.8 152.3 29.4 153.5 29.3 153.5 M 37.2 143.5 C 39.1 141.7 35.9 146.1 37.2 143.5 M 36.5 143.0 C 38.1 142.9 34.2 144.3 36.3 142.6 C 36.3 142.6 36.3 143.1 36.5 143.0 M 42.9 134.7 C 43.5 135.5 41.6 135.5 42.9 134.7 M 45.7 134.3 C 47.4 133.5 44.6 136.2 45.7 134.3 M 55.5 115.0 C 59.5 118.8 52.0 115.9 55.5 115.0 M 48.3 127.1 C 47.6 129.7 47.0 125.2 48.3 127.1 M 49.1 128.4 C 49.1 129.9 47.9 128.0 49.1 128.4 M 53.9 118.6 C 54.1 118.5 54.1 118.5 53.9 118.6 C 53.9 118.6 53.9 118.6 53.9 118.6 Z M 56.4 113.0 C 56.4 112.9 56.4 112.9 56.4 113.0 C 56.4 113.0 56.4 113.0 56.4 113.0 Z M 51.7 124.4 C 49.7 125.6 52.8 121.3 51.7 124.4 C 51.7 124.4 51.7 124.4 51.7 124.4 Z M 62.6 118.7 C 62.6 118.8 62.6 118.8 62.6 118.7 C 62.6 118.7 62.6 118.7 62.6 118.7 Z M 37.6 146.6 C 37.6 146.8 37.6 146.8 37.6 146.6 C 37.6 146.6 37.6 146.6 37.6 146.6 Z M 30.4 151.4 C 31.0 151.8 28.9 152.1 30.4 151.4 C 30.4 151.4 30.4 151.4 30.4 151.4 Z M 29.3 160.6 C 29.3 160.7 29.3 160.7 29.3 160.6 C 29.3 160.6 29.3 160.6 29.3 160.6 Z M 37.7 150.5 C 37.7 150.7 37.7 150.7 37.7 150.5 C 37.7 150.5 37.7 150.5 37.7 150.5 Z M 35.7 147.1 C 32.7 146.2 38.4 145.2 35.7 147.1 C 35.7 147.1 35.7 147.1 35.7 147.1 Z M 56.7 130.1 C 55.6 129.4 57.9 128.7 56.7 130.1 C 56.7 130.1 56.7 130.1 56.7 130.1 Z M 46.8 134.7 C 46.5 134.1 47.7 134.0 46.8 134.7 C 46.8 134.7 46.8 134.7 46.8 134.7 Z M 41.3 135.9 C 40.9 135.3 42.2 135.2 41.3 135.9 C 41.3 135.9 41.3 135.9 41.3 135.9 Z M 30.0 150.8 C 30.0 150.5 30.0 150.5 30.0 150.8 C 30.0 150.8 30.0 150.8 30.0 150.8 Z M 33.6 150.1 C 30.3 149.8 36.9 148.7 33.6 150.1 C 33.6 150.1 33.6 150.1 33.6 150.1 Z M 31.6 153.2 C 33.2 153.1 29.3 154.9 31.6 153.2 M 36.0 154.6 C 37.1 151.9 37.7 159.6 36.0 154.6 C 36.0 154.6 36.0 154.6 36.0 154.6 Z M 45.6 145.4 C 45.8 145.3 45.8 145.3 45.6 145.4 C 45.6 145.4 45.6 145.4 45.6 145.4 Z M 38.8 141.5 C 40.2 139.9 38.4 143.0 38.8 141.5 C 38.8 141.5 38.8 141.5 38.8 141.5 Z M 25.0 155.1 C 26.8 153.6 24.3 156.6 25.0 155.1 C 25.0 155.1 25.0 155.1 25.0 155.1 Z M 48.0 138.0 C 49.7 134.9 47.9 140.5 48.0 138.0 C 48.0 138.0 48.0 138.0 48.0 138.0 Z M 52.1 125.9 C 52.2 125.8 52.2 125.8 52.1 125.9 C 52.1 125.9 52.1 125.9 52.1 125.9 Z M 52.1 123.4 C 52.2 123.4 52.2 123.4 52.1 123.4 C 52.1 123.4 52.1 123.4 52.1 123.4 Z M 58.4 116.3 C 58.6 116.2 58.6 116.2 58.4 116.3 C 58.4 116.3 58.4 116.3 58.4 116.3 Z M 51.9 121.1 C 52.0 121.0 52.0 121.0 51.9 121.1 C 51.9 121.1 51.9 121.1 51.9 121.1 Z M 55.1 115.8 C 55.2 115.7 55.2 115.7 55.1 115.8 C 55.1 115.8 55.1 115.8 55.1 115.8 Z M 52.6 115.7 C 52.7 115.6 52.7 115.6 52.6 115.7 C 52.6 115.7 52.6 115.7 52.6 115.7 Z M 56.3 133.7 C 56.4 133.7 56.4 133.7 56.3 133.7 C 56.3 133.7 56.3 133.7 56.3 133.7 Z M 32.1 147.3 C 32.4 147.3 32.4 147.3 32.1 147.3 C 32.1 147.3 32.1 147.3 32.1 147.3 Z M 55.8 116.7 C 55.9 116.6 55.9 116.6 55.8 116.7 C 55.8 116.7 55.8 116.7 55.8 116.7 Z M 50.4 131.4 C 52.4 132.6 47.2 131.0 50.6 131.0 C 50.6 131.1 50.1 131.3 50.4 131.4 M 54.8 131.5 C 54.8 131.6 54.8 131.6 54.8 131.5 C 54.8 131.5 54.8 131.5 54.8 131.5 Z M 51.8 138.7 C 51.8 138.8 51.8 138.8 51.8 138.7 C 51.8 138.7 51.8 138.7 51.8 138.7 Z M 51.0 121.8 C 49.8 121.5 52.6 120.8 50.9 122.1 M 62.1 117.8 C 60.8 117.6 63.7 116.4 62.1 118.0 M 23.6 157.5 C 24.0 158.5 22.0 158.2 23.6 157.5 M 51.8 140.8 C 52.4 141.6 50.4 141.7 51.8 140.8 M 51.5 136.2 C 50.2 135.8 53.3 135.2 51.4 136.5 M 60.0 122.3 C 60.1 122.2 60.1 122.2 60.0 122.3 C 60.0 122.3 60.0 122.3 60.0 122.3 Z M 41.0 139.2 C 41.1 139.1 41.1 139.1 41.0 139.2 C 41.0 139.2 41.0 139.2 41.0 139.2 Z M 48.5 133.4 C 46.4 133.4 50.3 132.6 48.5 133.4 M 41.7 143.2 C 38.8 143.2 44.1 141.3 41.7 143.2 M 63.9 114.4 C 60.8 115.4 65.7 113.5 63.9 114.4 M 54.3 120.7 C 51.1 121.3 56.2 120.1 54.3 120.7 M 43.0 138.4 C 41.9 137.6 44.9 137.2 43.0 138.4 M 27.3 153.8 C 25.6 155.1 28.7 151.1 27.3 153.8 M 57.9 126.7 C 58.1 126.7 58.1 126.7 57.9 126.7 C 57.9 126.7 57.9 126.7 57.9 126.7 Z M 39.3 155.8 C 39.5 155.8 39.5 155.8 39.3 155.8 C 39.3 155.8 39.3 155.8 39.3 155.8 Z M 56.7 109.4 C 56.8 109.3 56.8 109.3 56.7 109.4 C 56.7 109.4 56.7 109.4 56.7 109.4 Z M 54.9 122.2 C 55.0 122.3 55.0 122.3 54.9 122.2 C 54.9 122.2 54.9 122.2 54.9 122.2 Z M 55.2 112.5 C 55.4 112.5 55.4 112.5 55.2 112.5 C 55.2 112.5 55.2 112.5 55.2 112.5 Z M 53.8 128.5 C 53.9 128.5 53.9 128.5 53.8 128.5 C 53.8 128.5 53.8 128.5 53.8 128.5 Z M 47.5 126.3 C 47.5 126.3 47.5 126.3 47.5 126.3 C 47.5 126.3 47.5 126.3 47.5 126.3 Z M 46.4 133.3 C 46.4 133.3 46.4 133.3 46.4 133.3 C 46.4 133.3 46.4 133.3 46.4 133.3 Z M 49.4 124.0 C 50.8 120.5 50.4 126.8 49.4 124.0 C 49.4 124.0 49.4 124.0 49.4 124.0 Z M 51.5 133.3 C 51.6 133.3 51.6 133.3 51.5 133.3 C 51.5 133.3 51.5 133.3 51.5 133.3 Z M 47.3 131.2 C 47.1 128.1 50.7 131.8 47.3 131.2 M 39.4 139.5 C 39.1 138.2 40.9 140.1 39.4 139.5 M 43.0 148.7 C 43.1 148.8 43.1 148.8 43.0 148.7 C 43.0 148.7 43.0 148.7 43.0 148.7 Z M 43.4 147.2 C 43.5 147.2 43.5 147.2 43.4 147.2 C 43.4 147.2 43.4 147.2 43.4 147.2 Z M 37.3 141.4 C 37.4 141.4 37.4 141.4 37.3 141.4 C 37.3 141.4 37.3 141.4 37.3 141.4 Z M 45.4 148.7 C 45.5 148.6 45.5 148.6 45.4 148.7 C 45.4 148.7 45.4 148.7 45.4 148.7 Z M 46.9 127.6 C 46.9 127.6 46.9 127.6 46.9 127.6 C 46.9 127.6 46.9 127.6 46.9 127.6 Z M 54.9 110.5 C 55.0 110.5 55.0 110.5 54.9 110.5 C 54.9 110.5 54.9 110.5 54.9 110.5 Z M 32.6 158.3 C 32.8 158.3 32.8 158.3 32.6 158.3 C 32.6 158.3 32.6 158.3 32.6 158.3 Z M 50.2 127.2 C 50.3 127.2 50.3 127.2 50.2 127.2 C 50.2 127.2 50.2 127.2 50.2 127.2 Z M 40.6 150.9 C 40.7 150.9 40.7 150.9 40.6 150.9 C 40.6 150.9 40.6 150.9 40.6 150.9 Z M 49.0 128.0 C 49.1 128.0 49.1 128.0 49.0 128.0 C 49.0 128.0 49.0 128.0 49.0 128.0 Z M 58.1 127.6 C 58.2 127.5 58.2 127.5 58.1 127.6 C 58.1 127.6 58.1 127.6 58.1 127.6 Z M 61.5 124.2 C 61.5 124.1 61.5 124.1 61.5 124.2 C 61.5 124.2 61.5 124.2 61.5 124.2 Z M 53.9 125.7 C 54.0 125.6 54.0 125.6 53.9 125.7 C 53.9 125.7 53.9 125.7 53.9 125.7 Z M 37.4 150.2 C 29.5 155.3 41.5 144.2 37.4 150.2 M 55.0 124.7 C 52.0 129.4 54.8 119.6 55.0 124.7 C 54.7 123.9 55.0 124.6 55.0 124.7 M 56.2 107.4 C 57.9 110.0 60.1 110.9 62.8 110.7 C 64.3 110.0 59.6 108.6 63.6 109.8 C 63.6 112.4 69.8 110.4 64.7 109.0 C 65.0 105.5 68.2 109.3 66.6 106.8 C 67.1 103.1 68.2 105.3 68.4 102.4 C 65.9 100.2 70.1 101.0 67.6 99.8 C 70.3 101.7 67.2 96.7 68.6 96.8 C 70.0 99.6 69.7 87.1 68.1 93.7 C 67.0 90.8 69.4 91.5 69.8 90.6 C 68.2 89.3 71.5 86.0 69.7 84.3 C 69.3 84.6 69.2 85.5 68.6 85.7 C 67.5 86.2 68.9 83.8 68.8 84.1 C 68.2 82.9 66.3 78.4 69.5 83.2 C 70.9 83.4 68.7 79.3 70.0 79.4 C 69.9 75.1 67.1 78.5 69.1 76.5 C 68.9 73.5 68.6 71.3 68.3 71.3 C 68.4 69.5 69.9 68.8 68.1 67.4 C 70.5 63.1 61.7 66.0 67.4 63.3 C 65.7 62.5 69.4 60.6 65.7 61.6 C 67.7 62.5 67.0 54.4 65.2 58.5 C 64.1 57.8 67.3 51.6 63.8 53.4 C 60.6 52.5 58.1 53.8 56.5 58.0 C 58.5 57.0 55.3 62.4 58.2 58.7 C 58.6 55.3 60.9 64.0 59.2 62.5 C 54.6 63.1 62.8 66.2 59.9 68.5 C 61.5 66.8 63.4 73.6 59.8 72.0 C 59.7 73.3 61.3 73.5 59.5 75.0 C 59.4 71.0 63.2 76.2 61.1 76.2 C 59.8 75.6 59.1 81.6 61.0 80.9 C 65.6 78.7 60.1 82.4 61.9 83.5 C 63.0 86.7 58.0 82.9 61.4 85.4 C 60.8 86.0 60.6 90.3 59.8 87.6 C 60.3 86.6 64.7 90.5 60.7 90.6 C 58.8 85.9 58.9 95.7 60.3 94.3 C 63.3 87.6 61.7 102.0 60.4 96.2 C 57.7 99.0 59.7 95.2 59.9 99.2 C 61.3 98.9 61.8 102.1 59.5 100.9 C 55.7 100.7 64.2 103.2 58.6 104.3 C 56.4 104.0 58.9 109.2 57.0 106.9 C 56.8 106.8 56.2 107.2 56.2 107.4 M 57.0 106.2 C 57.7 106.9 55.7 106.7 57.0 106.2 M 57.6 106.9 C 57.6 107.0 57.6 107.0 57.6 106.9 C 57.6 106.9 57.6 106.9 57.6 106.9 Z M 60.0 99.8 C 59.8 99.8 59.8 99.8 60.0 99.8 C 60.0 99.8 60.0 99.8 60.0 99.8 Z M 70.3 95.0 C 70.2 95.1 70.2 95.1 70.3 95.0 C 70.3 95.0 70.3 95.0 70.3 95.0 Z M 61.0 94.8 C 61.0 94.9 61.0 94.9 61.0 94.8 C 61.0 94.8 61.0 94.8 61.0 94.8 Z M 60.0 102.5 C 60.0 102.6 60.0 102.6 60.0 102.5 C 60.0 102.5 60.0 102.5 60.0 102.5 Z M 59.5 95.1 C 61.0 94.9 58.3 96.7 59.3 95.0 C 59.4 95.0 59.4 95.3 59.5 95.1 M 59.6 88.6 C 59.8 88.6 59.8 88.6 59.6 88.6 M 70.3 72.9 C 70.4 72.9 70.4 72.9 70.3 72.9 M 58.9 73.0 C 59.1 72.8 59.1 72.8 58.9 73.0 M 61.2 82.2 C 60.9 80.1 61.9 81.6 61.2 82.2 M 58.9 67.4 C 58.5 70.2 57.6 64.7 58.9 67.4 M 57.5 65.0 C 57.6 64.7 57.6 64.7 57.5 65.0 M 59.8 76.6 C 59.9 76.7 59.9 76.7 59.8 76.6 C 59.8 76.6 59.8 76.6 59.8 76.6 Z M 60.6 83.0 C 59.9 85.7 59.2 80.3 60.6 83.0 M 58.8 98.7 C 58.4 97.1 60.6 99.0 58.8 98.7 M 59.0 101.7 C 59.1 101.7 59.1 101.7 59.0 101.7 C 59.0 101.7 59.0 101.7 59.0 101.7 Z M 59.5 71.6 C 59.5 71.7 59.5 71.7 59.5 71.6 C 59.5 71.6 59.5 71.6 59.5 71.6 Z M 58.8 68.6 C 58.8 68.7 58.8 68.7 58.8 68.6 C 58.8 68.6 58.8 68.6 58.8 68.6 Z M 67.9 61.3 C 68.0 61.4 68.0 61.4 67.9 61.3 C 67.9 61.3 67.9 61.3 67.9 61.3 Z M 63.7 100.4 C 62.6 102.2 60.7 97.7 63.1 98.6 C 64.2 98.5 63.5 100.1 63.7 100.4 M 63.8 85.0 C 67.3 84.5 58.9 86.9 63.8 85.0 M 59.7 64.1 C 63.4 61.1 57.4 67.4 59.7 64.1 M 58.0 60.0 C 58.5 58.6 60.4 67.8 57.8 61.7 C 57.0 61.2 57.7 60.6 58.0 60.0 M 61.3 88.6 C 63.3 88.2 60.3 91.7 61.3 88.6 M 67.0 75.8 C 65.7 74.9 64.2 72.3 66.5 73.3 C 69.3 73.0 68.2 77.0 67.0 75.8 M 59.1 106.1 C 56.5 103.7 61.6 106.9 59.1 106.1 M 61.1 98.7 C 60.9 98.6 60.9 98.6 61.1 98.7 C 61.1 98.7 61.1 98.7 61.1 98.7 Z M 61.0 95.6 C 61.3 95.5 61.3 95.5 61.0 95.6 M 56.7 104.2 C 57.0 104.2 57.0 104.2 56.7 104.2 M 63.8 76.2 C 64.0 76.0 64.0 76.0 63.8 76.2 M 62.0 82.7 C 65.1 79.7 62.7 84.3 62.0 82.7 M 67.8 90.5 C 69.3 89.6 67.7 92.5 67.8 90.5 M 60.6 77.8 C 63.4 75.5 63.6 80.6 60.6 77.8 M 61.7 84.2 C 61.7 84.1 61.7 84.1 61.7 84.2 C 61.7 84.2 61.7 84.2 61.7 84.2 Z M 67.3 75.0 C 67.3 75.0 67.3 75.0 67.3 75.0 C 67.3 75.0 67.3 75.0 67.3 75.0 Z M 67.0 74.0 C 67.1 74.1 67.1 74.1 67.0 74.0 C 67.0 74.0 67.0 74.0 67.0 74.0 Z M 60.0 75.2 C 60.1 75.3 60.1 75.3 60.0 75.2 C 60.0 75.2 60.0 75.2 60.0 75.2 Z M 66.9 103.7 C 67.6 101.5 66.9 105.5 66.9 103.7 C 66.9 103.7 66.9 103.7 66.9 103.7 Z M 59.9 92.8 C 62.6 89.7 61.8 95.4 59.9 92.8 C 59.9 92.8 59.9 92.8 59.9 92.8 Z M 64.0 89.2 C 64.2 89.2 64.2 89.2 64.0 89.2 C 64.0 89.2 64.0 89.2 64.0 89.2 Z M 58.9 79.3 C 59.0 79.3 59.0 79.3 58.9 79.3 C 58.9 79.3 58.9 79.3 58.9 79.3 Z M 67.5 102.6 C 67.7 102.7 67.7 102.7 67.5 102.6 C 67.5 102.6 67.5 102.6 67.5 102.6 Z M 60.8 68.9 C 61.0 68.8 61.0 68.8 60.8 68.9 C 60.8 68.9 60.8 68.9 60.8 68.9 Z M 68.1 81.2 C 66.9 80.4 69.0 81.0 68.1 81.2 C 68.1 81.2 68.1 81.2 68.1 81.2 Z M 68.0 77.7 C 67.9 77.6 67.9 77.6 68.0 77.7 C 68.0 77.7 68.0 77.7 68.0 77.7 Z M 57.1 64.2 C 57.1 64.1 57.1 64.1 57.1 64.2 C 57.1 64.2 57.1 64.2 57.1 64.2 Z M 69.7 68.5 C 69.7 68.4 69.7 68.4 69.7 68.5 C 69.7 68.5 69.7 68.5 69.7 68.5 Z M 65.8 66.1 C 65.8 66.1 65.8 66.1 65.8 66.1 C 65.8 66.1 65.8 66.1 65.8 66.1 Z M 60.8 75.7 C 59.9 72.6 62.2 76.4 60.8 75.7 C 60.8 75.7 60.8 75.7 60.8 75.7 Z M 62.9 57.7 C 63.1 57.5 63.1 57.5 62.9 57.7 C 62.9 57.7 62.9 57.7 62.9 57.7 Z M 58.5 57.0 C 58.7 56.8 58.7 56.8 58.5 57.0 C 58.5 57.0 58.5 57.0 58.5 57.0 Z M 56.2 56.7 C 56.4 56.6 56.4 56.6 56.2 56.7 C 56.2 56.7 56.2 56.7 56.2 56.7 Z M 65.3 96.3 C 65.2 96.3 65.2 96.3 65.3 96.3 C 65.3 96.3 65.3 96.3 65.3 96.3 Z M 58.6 96.5 C 58.6 96.6 58.6 96.6 58.6 96.5 C 58.6 96.5 58.6 96.5 58.6 96.5 Z M 58.9 92.4 C 58.8 92.5 58.8 92.5 58.9 92.4 C 58.9 92.4 58.9 92.4 58.9 92.4 Z M 69.1 97.7 C 69.1 97.7 69.1 97.7 69.1 97.7 C 69.1 97.7 69.1 97.7 69.1 97.7 Z M 64.5 80.4 C 64.4 80.4 64.4 80.4 64.5 80.4 C 64.5 80.4 64.5 80.4 64.5 80.4 Z M 67.1 78.7 C 67.0 78.7 67.0 78.7 67.1 78.7 C 67.1 78.7 67.1 78.7 67.1 78.7 Z M 70.8 82.6 C 70.7 82.6 70.7 82.6 70.8 82.6 C 70.8 82.6 70.8 82.6 70.8 82.6 Z M 69.3 77.2 C 69.2 77.3 69.2 77.3 69.3 77.2 C 69.3 77.2 69.3 77.2 69.3 77.2 Z M 65.5 108.8 C 65.5 108.8 65.5 108.8 65.5 108.8 C 65.5 108.8 65.5 108.8 65.5 108.8 Z M 60.5 107.7 C 60.7 107.8 60.7 107.8 60.5 107.7 C 60.5 107.7 60.5 107.7 60.5 107.7 Z M 60.8 80.0 C 59.7 79.4 62.2 78.5 60.8 80.0 M 61.5 86.1 C 61.6 86.2 61.6 86.2 61.5 86.1 C 61.5 86.1 61.5 86.1 61.5 86.1 Z M 59.9 69.6 C 61.8 68.4 59.4 72.7 59.9 69.6 C 59.9 69.6 59.9 69.6 59.9 69.6 Z M 68.7 71.8 C 68.8 71.8 68.8 71.8 68.7 71.8 C 68.7 71.8 68.7 71.8 68.7 71.8 Z M 67.7 70.2 C 67.8 70.0 67.8 70.0 67.7 70.2 C 67.7 70.2 67.7 70.2 67.7 70.2 Z M 60.5 61.6 C 60.6 61.4 60.6 61.4 60.5 61.6 M 59.7 86.8 C 60.6 86.0 60.5 86.2 59.7 86.8 M 59.6 67.4 C 59.7 67.5 59.7 67.5 59.6 67.4 C 59.6 67.4 59.6 67.4 59.6 67.4 Z M 58.9 59.8 C 59.0 59.8 59.0 59.8 58.9 59.8 C 58.9 59.8 58.9 59.8 58.9 59.8 Z M 60.8 91.2 C 63.3 91.2 62.6 92.0 60.8 91.2 M 59.7 103.1 C 59.9 103.1 59.9 103.1 59.7 103.1 C 59.7 103.1 59.7 103.1 59.7 103.1 Z M 59.7 103.1 " fill="#EEEEEE"></path><path d="M 60.3 36.8 C 61.0 39.9 55.0 39.6 55.7 42.6 C 56.4 45.7 51.6 42.9 49.2 41.2 C 49.1 41.1 49.0 41.0 48.8 40.9 C 48.5 40.5 48.1 39.9 47.8 39.3 C 48.5 40.5 45.7 39.2 45.4 40.4 C 45.2 40.5 46.2 42.2 46.1 42.3 C 45.5 43.5 45.6 44.4 45.3 46.0 C 45.2 46.3 45.1 46.5 44.9 46.6 C 44.9 46.8 44.9 46.9 44.8 47.0 C 44.7 47.5 42.7 47.8 42.6 48.2 C 42.5 48.4 42.8 49.9 42.7 50.0 C 42.5 50.5 44.0 49.7 43.8 50.1 C 43.7 50.2 43.2 50.8 43.1 50.9 C 42.6 51.6 42.7 52.0 42.6 52.8 C 42.5 53.0 42.5 53.2 42.5 53.4 C 43.1 54.5 41.9 55.9 41.3 57.1 C 41.2 57.3 38.6 59.4 38.5 59.6 C 38.4 59.8 38.5 59.9 38.4 60.1 C 38.3 60.3 38.0 60.3 37.8 60.3 C 37.2 60.5 36.5 59.6 36.8 58.8 C 37.1 57.9 36.6 62.5 35.8 62.1 C 34.3 61.3 35.7 60.8 36.1 59.8 C 36.1 58.6 34.2 58.2 35.0 56.7 C 35.3 56.2 37.7 53.2 36.5 52.8 C 35.8 53.7 36.8 53.8 35.5 53.8 C 34.3 53.9 35.2 52.2 35.2 51.6 C 35.3 51.0 34.6 50.8 34.6 50.5 C 34.6 49.3 34.0 48.1 34.2 46.8 C 34.3 46.5 38.0 44.4 35.5 43.9 C 34.4 43.7 33.8 43.7 34.3 42.5 C 34.4 42.2 34.5 42.0 34.7 41.8 C 34.9 41.7 35.2 41.6 35.5 41.6 C 35.5 41.4 35.5 41.2 35.5 41.0 C 35.5 40.4 35.4 39.9 35.6 39.3 C 35.2 39.5 35.1 39.4 34.7 39.5 C 35.2 38.0 36.2 36.7 36.3 35.1 C 36.3 33.9 35.6 36.9 34.2 36.6 C 34.1 35.9 34.3 32.2 34.8 31.6 C 34.7 30.7 36.6 32.8 37.4 32.0 C 37.9 31.5 36.2 29.8 37.2 29.5 C 37.6 29.3 37.0 27.6 37.0 27.1 C 37.0 26.9 35.4 26.4 35.4 26.2 C 35.2 25.9 35.0 25.6 34.9 25.4 C 34.9 25.2 34.9 25.0 35.2 24.4 C 35.3 24.3 36.6 23.9 36.8 23.8 C 36.5 24.0 35.9 23.2 35.7 23.3 C 35.1 22.9 35.1 21.8 35.4 21.4 C 35.5 21.3 35.7 20.9 35.8 20.7 C 35.9 19.4 36.4 20.6 36.3 19.1 C 36.3 18.6 36.2 18.1 35.9 17.4 L 36.3 14.0 C 36.5 13.9 36.7 12.1 36.7 11.9 C 36.9 8.0 40.2 11.4 40.6 11.4 C 40.8 11.4 42.2 11.8 42.4 11.8 C 43.5 12.5 44.7 13.3 46.0 13.2 C 46.1 13.3 46.8 13.6 47.0 13.7 C 40.5 13.8 53.4 17.2 51.0 14.4 C 50.9 14.3 51.3 14.3 51.4 14.2 C 51.6 14.2 52.2 14.7 52.3 14.8 C 52.7 15.0 52.2 15.3 52.8 15.7 C 53.6 16.1 54.0 16.4 54.6 17.1 C 55.2 17.7 55.0 16.4 57.5 17.2 C 49.3 18.2 55.3 20.9 58.2 21.8 C 59.1 22.1 59.8 18.9 60.6 19.3 C 64.8 21.3 60.6 21.3 60.2 21.5 C 61.0 21.6 59.4 22.4 63.2 23.2 C 63.7 23.3 64.8 22.8 65.0 22.8 C 65.9 23.0 67.4 23.7 68.0 24.5 C 68.5 25.5 68.0 27.0 69.0 27.5 C 69.9 28.0 70.4 27.1 71.1 26.3 C 71.4 26.4 73.5 29.0 74.0 28.4 C 73.9 28.2 73.7 28.1 73.5 28.0 L 73.7 27.7 C 74.3 28.2 74.8 27.6 75.2 27.8 L 76.7 28.7 C 77.0 28.9 73.0 30.2 73.4 30.5 C 82.8 37.2 78.0 30.2 78.5 30.4 C 78.6 30.4 78.9 31.0 79.4 31.6 C 79.5 31.8 79.7 32.0 79.9 32.2 C 81.0 32.3 81.8 33.1 82.6 34.0 C 82.7 34.2 82.9 34.5 83.0 34.7 C 83.4 35.3 83.8 36.2 83.3 36.6 C 81.3 37.0 80.1 36.5 78.3 36.2 C 78.2 36.1 78.0 36.0 77.8 36.0 C 77.1 35.8 76.3 35.7 75.4 35.9 C 75.1 35.9 74.9 35.8 74.6 35.8 C 72.9 35.6 71.0 35.9 69.3 36.3 C 69.1 36.3 68.3 34.8 68.1 34.9 C 67.5 34.9 67.6 36.4 67.3 35.9 C 67.0 35.8 65.0 34.3 64.8 34.2 C 64.2 34.0 65.3 35.2 64.7 34.9 C 64.5 34.9 64.3 34.8 64.1 34.7 C 62.4 35.3 60.1 31.6 59.0 33.8 C 59.9 36.9 59.6 33.7 60.3 36.8 Z M 39.8 60.2 C 39.5 59.9 39.5 59.9 40.0 59.8 C 39.9 60.0 39.7 60.3 39.8 60.2 Z M 38.7 58.5 C 38.6 58.2 38.6 57.9 38.7 57.7 C 38.1 57.0 38.6 56.5 39.2 56.1 C 39.4 56.0 40.2 55.4 40.4 55.3 C 41.4 54.7 41.8 54.9 41.3 54.7 C 41.2 54.8 41.6 54.4 41.4 53.8 C 41.3 53.6 41.0 54.0 40.8 54.1 C 40.7 54.2 40.1 53.5 39.9 53.6 C 39.8 53.7 40.0 54.8 39.6 55.0 C 39.5 55.1 38.4 55.8 38.2 55.9 C 38.3 56.0 38.0 57.8 38.6 58.0 C 38.6 58.1 38.7 58.3 38.7 58.5 Z M 40.4 45.7 C 40.8 44.9 41.2 44.5 41.7 44.1 C 41.8 44.0 42.0 43.9 42.2 43.9 C 42.4 43.7 42.8 43.6 42.9 43.4 C 43.0 43.1 42.3 43.0 42.7 43.0 C 42.3 43.2 41.9 43.4 42.0 43.4 C 41.8 43.4 41.6 43.4 41.5 43.4 C 40.4 43.5 39.8 44.2 40.0 45.7 C 40.1 45.9 40.2 46.0 40.4 45.7 Z M 37.6 53.7 C 41.2 51.8 40.9 51.2 37.5 53.0 C 37.5 53.2 37.6 53.4 37.6 53.7 Z M 43.9 48.6 C 44.0 48.8 44.0 49.2 44.1 49.3 C 44.2 49.0 44.8 48.2 44.2 48.3 C 44.1 48.6 44.4 48.5 43.9 48.6 Z M 40.1 47.4 C 39.6 46.5 39.6 46.5 39.3 46.1 C 39.1 45.8 39.0 45.7 39.0 45.7 C 38.9 45.7 39.0 46.1 39.2 46.5 C 39.3 46.9 39.5 47.3 39.6 47.2 C 39.6 47.3 39.8 47.4 40.1 47.4 Z M 37.2 47.2 C 37.1 47.6 37.0 48.1 37.1 48.6 C 38.4 48.6 38.2 47.0 37.6 46.4 C 37.4 46.7 37.2 46.9 37.2 47.2 Z M 44.9 44.3 C 45.1 44.0 44.9 42.5 45.4 42.2 C 44.8 41.0 44.4 41.4 43.2 42.1 C 44.7 41.9 43.8 45.0 43.2 47.0 C 43.2 47.1 44.9 44.3 44.9 44.3 Z M 38.0 41.9 C 38.4 41.7 38.8 41.8 39.3 41.8 C 39.5 41.8 39.8 41.9 40.1 41.9 C 40.2 41.9 40.4 41.9 40.6 41.8 C 40.8 41.8 40.9 41.8 41.1 41.7 C 41.6 40.7 43.4 41.2 43.3 39.7 C 42.8 40.0 42.8 40.0 42.1 40.4 C 42.0 40.5 41.9 40.6 41.7 40.7 C 41.6 40.8 41.4 40.9 41.2 41.0 C 41.1 41.0 40.9 41.0 40.7 41.1 C 40.5 41.1 40.3 41.2 40.0 41.3 C 39.8 41.3 39.6 41.4 39.4 41.4 C 39.0 41.5 38.6 41.5 38.3 41.3 C 38.3 41.5 38.2 41.7 38.0 41.9 Z M 41.5 23.4 C 41.8 23.7 42.0 23.6 41.8 23.2 C 41.7 23.1 41.6 22.9 41.5 22.8 C 41.3 22.7 41.2 22.6 41.0 22.5 C 41.0 22.7 41.1 22.8 41.2 23.0 C 41.2 23.2 41.4 23.4 41.5 23.4 Z M 41.2 18.0 C 41.2 17.9 41.1 17.6 41.0 17.4 C 40.8 17.1 40.7 16.9 40.6 16.8 C 40.4 16.6 40.3 16.5 40.2 16.4 C 40.0 16.2 39.9 16.0 39.9 15.9 C 39.5 14.8 40.5 15.1 38.6 14.6 C 39.3 15.8 37.8 16.4 39.6 16.5 C 39.7 16.5 39.7 16.9 39.7 17.0 C 39.8 17.2 39.8 17.3 39.9 17.5 C 39.9 17.7 39.7 17.7 39.9 17.9 L 39.9 17.9 C 39.9 18.5 41.1 18.5 41.2 18.0 Z M 36.9 21.0 C 40.7 27.3 39.5 24.1 37.4 21.0 C 37.2 21.0 37.1 20.9 36.9 21.0 Z M 45.2 18.0 C 44.9 17.9 44.8 18.0 44.6 17.7 L 44.6 17.7 C 44.5 18.0 44.1 18.0 44.4 18.4 C 44.6 18.9 45.0 18.6 45.4 18.8 C 45.5 18.9 46.2 19.6 46.4 19.3 C 46.2 18.8 45.8 18.2 45.2 18.0 Z M 48.3 17.6 C 48.1 18.3 49.2 18.8 49.7 18.8 C 49.3 18.6 48.4 17.2 48.3 17.6 Z M 45.1 22.0 C 44.9 21.8 44.9 21.5 44.5 21.4 C 44.4 21.4 44.2 21.5 44.1 21.3 L 44.1 21.3 C 44.1 21.6 43.8 21.9 44.1 22.1 C 44.3 22.2 44.6 22.0 44.9 22.2 C 45.0 22.3 45.1 22.6 45.2 22.7 C 45.4 22.3 45.2 22.3 45.1 22.0 Z M 40.2 30.5 C 40.4 30.4 40.5 30.3 40.5 30.2 C 40.5 30.0 40.4 29.9 40.3 29.7 C 40.3 29.7 40.1 29.9 40.0 30.2 C 39.9 30.4 39.8 30.6 40.2 30.5 Z M 41.1 29.9 C 41.9 29.0 41.8 28.4 41.3 27.4 C 41.0 28.2 40.9 29.2 41.1 29.9 Z M 44.8 27.2 C 44.7 27.1 44.5 26.8 44.2 26.6 C 44.2 26.8 44.2 27.0 44.2 27.2 C 44.4 27.4 44.6 27.4 44.8 27.2 Z M 36.2 30.8 C 36.3 30.9 36.4 31.0 36.6 31.1 C 36.5 30.9 36.5 30.7 36.4 30.5 C 36.3 30.6 36.3 30.7 36.2 30.8 Z M 35.5 27.4 C 35.5 28.0 35.7 28.5 35.9 29.1 L 36.1 29.9 C 36.7 28.9 36.3 28.2 36.2 27.7 C 36.2 27.3 35.8 27.1 35.5 27.4 Z M 38.5 27.3 C 38.0 27.6 37.8 28.1 38.5 28.5 C 38.5 28.2 38.5 27.7 38.5 27.3 Z M 57.2 18.5 C 57.3 18.6 58.4 19.0 58.6 19.1 C 58.5 18.1 56.9 18.2 57.2 18.5 Z M 52.5 16.1 C 51.9 16.4 51.8 17.5 52.6 17.7 C 53.7 17.1 53.3 16.5 52.5 16.1 Z M 52.9 21.7 C 52.8 21.6 52.2 21.1 52.2 21.0 C 52.4 21.7 52.7 21.8 53.0 22.3 C 52.7 21.9 52.7 21.6 52.9 21.7 Z M 51.1 22.5 C 50.7 22.3 50.5 22.0 50.2 21.7 C 50.4 22.3 50.7 23.0 51.0 23.6 C 51.2 23.6 51.3 23.6 51.5 23.5 C 52.3 23.8 51.2 22.6 51.1 22.5 Z M 77.9 33.9 C 77.6 33.8 77.3 33.7 76.9 33.6 C 76.2 33.4 75.5 33.3 74.9 34.1 C 75.5 33.8 76.1 33.5 76.6 34.0 C 76.8 34.1 77.0 34.1 77.2 34.1 C 77.4 34.1 77.7 34.1 77.9 33.9 Z M 72.1 35.0 C 73.2 35.2 73.5 35.7 74.7 35.1 C 73.4 34.2 72.3 34.9 71.5 35.0 C 71.7 35.0 71.9 35.0 72.1 35.0 Z M 73.9 33.8 C 73.1 33.6 73.8 33.1 73.2 32.9 C 72.9 33.2 72.9 33.4 73.4 33.7 C 73.5 33.8 73.7 33.8 73.9 33.8 Z M 69.6 34.4 C 69.8 33.3 71.4 34.7 71.3 33.2 C 70.7 33.5 70.1 33.9 69.8 34.1 C 69.7 34.2 69.6 34.3 69.6 34.4 Z M 36.7 40.5 C 40.3 38.4 39.9 37.8 36.6 39.9 C 36.7 40.2 36.7 40.5 36.7 40.5 Z M 45.9 38.2 C 45.2 36.6 46.2 39.0 45.1 37.2 C 45.0 37.0 45.7 36.6 45.6 36.4 C 45.8 36.5 46.2 36.3 46.4 36.7 C 47.4 38.8 47.3 37.1 46.7 39.3 C 46.7 39.3 45.8 38.2 45.9 38.2 Z M 38.4 36.3 C 38.5 36.2 38.5 36.1 38.5 35.9 C 38.5 35.5 38.3 35.1 38.1 34.7 C 38.1 35.2 38.2 35.7 38.4 36.3 Z M 48.4 28.9 C 48.4 28.7 48.3 28.4 48.3 28.1 C 48.0 28.3 48.3 28.8 48.4 28.9 Z M 49.0 13.8 C 48.9 13.8 48.8 13.7 48.6 13.7 C 48.6 13.8 48.6 13.9 48.7 14.1 C 48.9 14.0 49.0 13.9 49.0 13.8 Z M 38.9 32.8 C 38.7 32.8 38.6 32.8 38.5 32.9 C 38.3 33.1 38.2 33.4 38.3 33.7 C 38.3 33.8 38.3 33.9 38.4 34.0 C 39.0 33.7 39.0 33.7 39.1 33.2 C 39.0 33.1 38.9 32.9 38.9 32.8 Z M 61.6 34.5 C 61.4 34.5 61.3 34.5 61.1 34.6 C 60.9 34.8 60.9 35.1 60.9 35.4 C 60.9 35.5 61.0 35.6 61.1 35.7 C 61.7 35.4 61.7 35.4 61.7 34.9 C 61.7 34.8 61.6 34.6 61.6 34.5 Z M 37.8 61.4 C 37.4 61.4 37.1 61.5 36.9 61.6 C 36.5 61.9 36.4 62.6 36.5 63.1 C 36.5 63.4 36.7 63.7 36.9 63.9 C 38.1 63.2 38.1 63.2 38.1 62.2 C 38.0 61.9 37.9 61.6 37.8 61.4 Z M 34.2 44.4 C 34.0 44.4 33.9 44.4 33.8 44.5 C 33.5 44.7 33.5 45.0 33.5 45.3 C 33.6 45.4 33.6 45.6 33.7 45.7 C 34.3 45.3 34.3 45.3 34.3 44.8 C 34.3 44.7 34.2 44.5 34.2 44.4 Z M 57.0 19.7 C 56.7 19.6 55.2 19.2 55.0 19.6 C 55.3 19.9 57.7 20.8 58.1 21.0 C 58.3 20.6 57.1 20.1 57.0 19.7 Z M 57.5 25.8 C 56.4 25.2 56.2 24.7 54.9 25.9 C 55.3 26.3 55.7 26.5 56.1 26.8 C 56.5 27.0 57.0 27.1 57.4 27.3 C 58.3 27.0 58.3 27.0 58.7 26.8 C 58.7 26.6 58.5 26.3 58.2 26.2 C 58.0 26.0 57.6 25.9 57.5 25.8 Z M 76.4 30.4 C 75.8 30.1 75.6 29.8 74.8 30.5 C 75.0 30.8 75.3 30.9 75.5 31.0 C 75.8 31.2 76.1 31.3 76.3 31.3 C 76.9 31.1 76.9 31.1 77.2 31.0 C 77.2 30.9 77.0 30.7 76.9 30.6 C 76.7 30.5 76.5 30.5 76.4 30.4 Z M 54.6 26.3 C 54.4 26.5 54.6 26.8 55.2 27.0 C 55.1 26.7 54.9 26.4 54.6 26.3 Z M 57.2 32.1 C 56.8 32.0 56.5 32.0 56.1 32.1 C 56.3 33.6 57.6 34.7 58.4 35.7 C 58.2 34.4 57.6 33.3 57.2 32.1 Z M 47.6 32.1 C 48.2 32.2 47.7 34.0 49.1 33.6 C 49.1 33.5 49.0 33.4 49.0 33.2 C 48.8 32.8 48.6 32.5 48.1 32.3 C 48.0 32.2 47.8 32.1 47.6 32.1 Z M 63.2 20.3 C 63.8 20.4 63.3 22.2 64.8 21.9 C 64.7 21.7 64.6 21.6 64.6 21.5 C 64.4 21.1 64.2 20.7 63.7 20.5 C 63.6 20.5 63.4 20.4 63.2 20.3 Z M 64.6 25.7 C 64.4 25.5 64.1 25.5 63.7 25.6 C 63.3 25.7 63.0 25.9 62.9 25.9 C 63.3 26.3 63.6 26.9 63.9 26.7 C 64.1 26.8 64.3 26.8 64.6 26.8 C 64.8 26.9 65.1 26.8 65.4 26.7 C 65.0 26.2 65.2 26.1 64.6 25.7 Z M 69.3 25.6 C 69.3 25.9 69.2 26.8 69.9 26.5 C 70.2 26.4 69.3 25.7 69.3 25.6 Z M 69.2 28.3 C 69.2 28.5 69.4 29.0 69.6 29.2 C 70.0 29.2 69.7 28.0 69.2 28.3 Z M 66.3 30.0 C 66.5 30.2 66.7 30.4 66.9 30.7 C 67.0 30.3 66.5 30.0 66.3 30.0 Z M 66.9 33.5 C 67.1 34.1 67.1 34.1 67.9 34.0 C 68.1 33.9 68.3 33.8 68.4 33.6 C 68.9 33.2 69.4 32.7 69.8 33.3 C 70.0 32.4 68.5 32.5 68.2 31.9 C 67.8 32.2 67.3 32.4 67.1 32.8 C 67.0 32.9 66.9 33.1 66.9 33.2 C 66.9 33.3 67.0 33.3 66.9 33.5 Z M 71.7 29.7 L 71.2 29.5 C 70.9 29.3 70.4 29.0 70.2 29.6 C 70.5 29.7 71.3 29.9 71.7 29.7 Z M 66.2 32.7 C 66.1 32.4 66.1 32.4 65.7 31.7 C 65.6 31.5 65.5 31.4 65.4 31.2 C 64.8 30.5 64.1 29.9 62.9 29.6 C 63.0 30.5 64.0 30.9 64.8 31.4 C 65.0 31.5 65.2 31.6 65.4 31.7 C 65.8 31.8 66.1 32.4 66.0 32.5 C 66.1 32.5 66.1 32.6 66.2 32.7 Z M 63.2 31.7 C 63.1 31.5 62.9 31.3 62.8 31.1 C 62.2 30.4 61.6 29.8 62.4 31.2 C 62.5 31.4 62.7 31.6 62.9 31.9 C 63.0 32.0 63.2 32.0 63.2 31.7 Z M 62.5 29.4 C 62.4 28.9 62.2 28.6 62.2 28.3 C 62.1 28.0 62.1 27.8 62.3 27.7 C 62.4 27.4 62.3 27.1 62.2 26.9 C 62.1 26.7 61.8 26.6 61.3 26.7 C 61.9 26.9 61.3 27.9 61.5 28.4 C 61.5 28.6 61.7 28.7 61.9 28.8 C 62.1 29.0 62.3 29.2 62.5 29.4 Z M 51.5 32.1 C 51.2 32.9 49.6 34.0 51.1 34.3 C 51.5 33.7 51.8 32.8 51.5 32.1 Z M 50.2 37.5 C 50.2 37.3 50.3 37.2 50.4 37.1 C 50.5 37.0 50.6 37.0 50.9 37.0 C 50.9 36.8 50.9 36.7 50.9 36.6 C 50.9 36.1 50.7 35.7 50.2 35.6 C 49.8 35.5 50.0 35.9 50.3 36.4 C 50.4 36.6 50.5 36.9 50.5 37.1 C 50.5 37.3 50.4 37.4 50.2 37.5 L 50.2 37.5 Z M 54.7 35.6 C 54.5 35.5 54.3 35.5 54.1 35.5 C 53.8 35.4 53.6 35.4 53.4 35.4 C 53.2 35.6 53.3 35.9 53.5 36.1 C 53.6 36.4 53.8 36.7 53.9 36.8 C 54.2 37.1 54.6 37.7 55.2 38.2 C 55.3 38.2 55.5 38.1 55.6 38.1 C 55.8 38.1 56.0 38.1 56.2 38.0 C 56.1 37.8 55.9 37.4 55.7 37.0 C 55.5 36.6 55.3 36.3 55.2 36.1 C 55.0 36.0 54.9 35.8 54.7 35.6 Z M 56.5 37.0 C 56.4 37.3 56.4 37.6 56.6 37.9 C 57.0 37.8 57.0 37.5 56.5 37.0 Z M 52.7 39.2 C 52.3 39.0 52.6 39.6 52.9 39.7 C 52.8 39.6 52.7 39.4 52.7 39.2 Z M 59.0 38.3 C 58.2 37.2 57.7 38.3 57.7 38.6 C 57.9 38.5 58.8 38.4 59.0 38.3 Z M 59.0 38.3 " fill="#EEEEEE"></path></g></svg>