<?xml version="1.0" encoding="UTF-8" standalone="no"?><svg xmlns="http://www.w3.org/2000/svg" xmlns:xlink="http://www.w3.org/1999/xlink" clip-rule="evenodd" stroke-miterlimit="10" viewBox="0 0 268 228"><desc>SVG generated by Keynote</desc><defs></defs><g transform="matrix(1.00, 0.00, -0.00, -1.00, 0.0, 228.0)"><path d="M 3.8 207.2 C 4.0 207.6 3.6 208.7 3.9 209.0 M 3.8 207.2 C 2.3 208.2 2.1 210.1 1.8 212.7 C 1.7 215.4 3.2 212.6 3.8 212.9 C 4.3 216.5 3.3 216.5 1.7 216.0 C 2.8 217.4 0.9 221.6 2.9 220.7 C 2.8 214.8 3.4 224.8 4.5 219.9 C 4.8 219.4 5.3 220.8 5.3 221.3 C 6.1 219.7 7.1 222.4 7.7 219.9 C 8.9 219.5 8.4 220.0 9.3 218.3 C 9.5 217.6 9.0 217.9 8.8 218.0 C 7.3 217.7 9.6 216.0 8.7 214.7 C 10.6 213.5 8.4 212.2 7.5 213.3 C 7.8 212.1 9.8 210.7 8.5 209.4 C 9.4 208.8 8.9 205.6 7.6 207.4 C 6.8 208.8 6.3 207.2 5.9 207.0 C 5.4 207.5 6.0 209.5 5.6 209.8 C 5.3 209.2 4.7 206.6 4.7 209.3 C 4.1 208.4 3.6 209.7 3.8 207.2 C 3.8 207.2 3.8 207.2 3.8 207.2 Z M 2.5 217.0 C 2.0 217.0 2.6 216.1 2.5 217.0 C 2.5 217.0 2.5 217.0 2.5 217.0 Z M 9.4 210.5 C 8.9 210.5 9.4 209.6 9.4 210.5 C 9.4 210.5 9.4 210.5 9.4 210.5 Z M 8.8 217.5 C 8.3 217.5 8.8 216.6 8.8 217.5 C 8.8 217.5 8.8 217.5 8.8 217.5 Z M 2.9 214.4 C 3.3 212.9 3.6 215.8 3.1 216.0 C 3.2 215.7 2.4 214.8 2.9 214.4 C 2.9 214.4 2.9 214.4 2.9 214.4 Z M 5.8 214.3 C 5.6 214.1 5.6 213.5 6.1 213.6 C 6.2 214.0 6.0 214.4 5.8 214.3 C 5.8 214.3 5.8 214.3 5.8 214.3 Z M 3.8 222.0 C 3.6 221.8 3.5 221.2 4.0 221.3 C 4.1 221.7 3.9 222.1 3.8 222.0 C 3.8 222.0 3.8 222.0 3.8 222.0 Z M 4.2 212.7 C 4.3 212.3 4.8 212.2 4.9 212.7 C 4.6 212.9 4.5 213.9 4.2 212.7 C 4.2 212.7 4.2 212.7 4.2 212.7 Z M 2.6 210.3 C 2.9 209.0 3.6 211.6 3.4 211.6 C 3.0 212.0 2.2 211.0 2.6 210.3 C 2.6 210.3 2.6 210.3 2.6 210.3 Z M 5.0 212.0 C 5.2 210.9 5.3 212.4 5.0 212.0 C 5.0 212.0 5.0 212.0 5.0 212.0 Z M 7.5 220.9 C 7.7 219.8 7.9 221.3 7.5 220.9 C 7.5 220.9 7.5 220.9 7.5 220.9 Z M 9.1 215.2 C 9.3 214.2 9.4 215.7 9.1 215.2 C 9.1 215.2 9.1 215.2 9.1 215.2 Z M 3.9 217.3 C 3.8 219.2 2.6 217.6 3.9 217.3 C 3.9 217.3 3.9 217.3 3.9 217.3 Z M 2.6 207.3 C 2.5 209.2 1.3 207.5 2.6 207.3 C 2.6 207.3 2.6 207.3 2.6 207.3 Z M 237.7 18.2 C 239.8 17.9 231.6 16.5 234.7 18.4 C 235.7 20.0 230.2 20.1 231.5 18.5 C 229.9 18.4 229.9 18.3 229.0 19.1 C 228.7 17.9 224.8 17.5 223.5 18.2 C 222.8 19.3 226.1 18.2 224.0 19.4 C 219.3 20.0 224.3 20.5 222.6 22.0 C 222.4 22.0 222.3 21.4 221.9 21.8 C 221.8 23.0 224.6 23.7 223.4 24.8 C 224.1 24.5 227.6 25.7 226.1 24.7 C 225.5 23.5 229.9 25.9 229.5 24.0 C 230.7 24.8 231.8 23.5 232.9 24.6 C 233.8 24.8 233.7 23.8 233.6 23.5 C 233.5 22.6 234.7 25.5 236.0 23.9 C 236.2 24.3 240.0 24.0 237.1 23.4 C 237.9 23.5 242.4 23.8 240.0 22.1 C 236.9 21.4 243.2 20.2 239.5 20.2 C 236.7 20.1 236.1 20.5 238.2 19.5 C 238.9 19.6 242.1 19.3 239.3 18.6 C 238.7 18.8 237.4 18.7 237.7 18.2 C 237.7 18.2 237.7 18.2 237.7 18.2 Z M 238.4 20.8 C 236.8 20.9 238.3 20.1 238.4 20.8 C 238.4 20.8 238.4 20.8 238.4 20.8 Z M 232.7 25.0 C 231.1 25.2 232.6 24.3 232.7 25.0 C 232.7 25.0 232.7 25.0 232.7 25.0 Z M 232.6 18.0 C 231.8 18.6 231.5 16.7 232.6 18.0 C 232.6 18.0 232.6 18.0 232.6 18.0 Z M 235.3 23.4 C 235.2 23.4 235.6 23.2 235.9 23.1 C 235.9 23.2 235.5 23.4 235.3 23.4 C 235.3 23.4 235.3 23.4 235.3 23.4 Z M 229.9 18.1 C 227.6 19.1 229.4 16.7 229.9 18.1 C 229.9 18.1 229.9 18.1 229.9 18.1 Z M 225.2 20.1 C 225.0 21.9 222.7 19.8 225.2 20.1 C 225.2 20.1 225.2 20.1 225.2 20.1 Z M 228.7 23.9 C 229.1 23.5 229.1 24.1 228.7 23.9 C 228.7 23.9 228.7 23.9 228.7 23.9 Z M 239.2 23.7 C 239.6 23.3 239.6 24.0 239.2 23.7 C 239.2 23.7 239.2 23.7 239.2 23.7 Z M 225.7 23.9 C 225.9 23.2 226.6 24.2 225.7 23.9 C 225.7 23.9 225.7 23.9 225.7 23.9 Z M 232.2 18.7 C 234.4 17.2 235.0 20.7 232.2 18.7 C 232.2 18.7 232.2 18.7 232.2 18.7 Z M 236.2 18.4 C 237.7 18.1 236.0 19.3 235.3 19.1 C 235.3 19.0 235.9 18.5 236.2 18.4 C 236.2 18.4 236.2 18.4 236.2 18.4 Z M 229.9 19.0 C 231.4 18.2 231.3 19.3 229.9 19.0 C 229.9 19.0 229.9 19.0 229.9 19.0 Z M 233.7 18.0 C 234.5 18.2 233.1 18.2 233.7 18.0 C 233.7 18.0 233.7 18.0 233.7 18.0 Z M 226.9 17.6 C 227.6 17.8 226.2 17.8 226.9 17.6 C 226.9 17.6 226.9 17.6 226.9 17.6 Z M 238.0 17.6 C 238.8 17.7 237.4 17.8 238.0 17.6 C 238.0 17.6 238.0 17.6 238.0 17.6 Z M 227.5 18.6 C 227.3 19.2 229.5 20.5 225.7 19.5 C 225.0 19.1 226.5 18.1 227.5 18.6 C 227.5 18.6 227.5 18.6 227.5 18.6 Z M 4.1 201.8 C 1.6 209.4 5.4 207.8 6.0 208.2 C 7.0 209.2 7.6 208.2 8.3 206.7 C 10.7 205.2 6.1 204.1 8.4 203.1 C 11.5 201.2 5.9 200.6 9.1 199.9 C 9.9 200.3 9.5 197.3 9.2 197.6 C 10.9 196.2 8.3 193.9 8.1 193.9 C 8.6 192.9 11.4 193.1 9.6 189.9 C 9.0 187.5 12.0 186.8 10.0 187.3 C 12.3 185.8 9.5 186.0 10.4 184.5 C 11.7 183.4 8.6 184.2 11.1 182.4 C 9.4 181.3 12.1 183.5 11.7 177.8 C 11.1 180.4 10.6 175.1 11.7 176.3 C 12.7 178.3 11.6 173.6 12.9 171.4 C 12.3 170.6 11.3 167.4 12.9 168.2 C 15.5 166.1 12.2 165.4 14.1 164.7 C 15.0 164.1 13.6 163.4 13.8 162.9 C 15.3 162.3 14.6 161.3 15.7 158.5 C 18.0 152.1 12.7 156.6 13.0 154.0 C 12.5 153.4 7.4 156.0 10.9 155.4 C 9.9 155.6 11.7 161.9 9.0 158.3 C 9.8 160.8 7.6 157.5 8.3 162.2 C 12.1 156.9 7.8 169.1 7.9 163.2 C 7.0 164.0 6.6 166.4 7.5 164.8 C 9.9 164.6 5.7 168.6 8.9 166.8 C 7.4 170.3 10.0 169.8 8.1 170.5 C 5.1 170.9 8.9 170.5 7.7 172.2 C 6.9 176.6 4.2 172.6 6.0 175.7 C 3.8 179.8 7.1 176.8 7.2 178.4 C 9.2 179.1 5.0 182.7 5.2 179.3 C 6.1 181.2 4.2 179.5 5.2 181.6 C 7.3 180.4 2.9 184.0 4.5 183.6 C 4.7 185.5 6.0 184.7 5.9 185.2 C 5.6 187.9 3.9 186.9 5.2 187.6 C 5.9 188.3 3.3 189.4 3.9 189.8 C 4.3 186.9 5.7 192.3 4.6 192.5 C 4.7 190.8 2.1 193.2 3.5 194.5 C 7.7 193.4 2.2 196.9 3.6 198.3 C 6.0 197.2 3.5 204.7 2.6 201.8 C 2.8 201.9 4.1 201.7 4.1 201.8 M 4.2 190.6 C 4.6 188.3 4.4 193.2 4.2 190.6 M 3.5 190.7 C 4.4 189.7 2.8 192.8 3.3 190.5 C 3.3 190.5 3.5 190.8 3.5 190.7 M 4.6 181.1 C 5.2 181.5 4.0 182.3 4.6 181.1 M 6.2 179.5 C 7.0 178.1 6.0 181.5 6.2 179.5 M 9.6 159.4 C 12.5 162.2 7.2 161.0 9.6 159.4 M 6.2 172.4 C 6.2 174.9 4.9 171.3 6.2 172.4 M 6.9 173.3 C 7.3 174.5 6.1 173.4 6.9 173.3 M 8.7 163.1 C 8.8 163.0 8.8 163.0 8.7 163.1 C 8.7 163.1 8.7 163.1 8.7 163.1 Z M 10.2 157.4 C 10.2 157.3 10.2 157.3 10.2 157.4 C 10.2 157.4 10.2 157.4 10.2 157.4 Z M 7.9 168.9 C 6.8 170.6 8.2 165.8 7.9 168.9 C 7.9 168.9 7.9 168.9 7.9 168.9 Z M 14.6 161.3 C 14.6 161.4 14.6 161.4 14.6 161.3 C 14.6 161.3 14.6 161.3 14.6 161.3 Z M 5.5 192.6 C 5.6 192.7 5.6 192.7 5.5 192.6 C 5.5 192.6 5.5 192.6 5.5 192.6 Z M 3.7 199.8 C 4.2 199.8 3.3 201.2 3.7 199.8 C 3.7 199.8 3.7 199.8 3.7 199.8 Z M 7.3 206.0 C 7.4 206.1 7.4 206.1 7.3 206.0 C 7.3 206.0 7.3 206.0 7.3 206.0 Z M 7.1 195.2 C 7.2 195.3 7.2 195.3 7.1 195.2 C 7.1 195.2 7.1 195.2 7.1 195.2 Z M 4.7 194.0 C 2.7 195.0 5.4 191.2 4.7 194.0 C 4.7 194.0 4.7 194.0 4.7 194.0 Z M 12.1 172.0 C 11.3 171.8 12.7 170.5 12.1 172.0 C 12.1 172.0 12.1 172.0 12.1 172.0 Z M 7.0 179.3 C 6.6 179.0 7.4 178.4 7.0 179.3 C 7.0 179.3 7.0 179.3 7.0 179.3 Z M 4.0 182.9 C 3.6 182.5 4.3 181.8 4.0 182.9 C 4.0 182.9 4.0 182.9 4.0 182.9 Z M 3.2 199.7 C 3.1 199.5 3.1 199.5 3.2 199.7 C 3.2 199.7 3.2 199.7 3.2 199.7 Z M 4.8 197.1 C 2.9 198.8 5.9 194.4 4.8 197.1 C 4.8 197.1 4.8 197.1 4.8 197.1 Z M 5.1 200.3 C 5.8 199.4 4.7 202.6 5.1 200.3 M 7.9 198.7 C 7.3 196.4 10.9 200.9 7.9 198.7 C 7.9 198.7 7.9 198.7 7.9 198.7 Z M 9.6 187.8 C 9.7 187.6 9.7 187.6 9.6 187.8 C 9.6 187.8 9.6 187.8 9.6 187.8 Z M 4.3 188.4 C 4.6 186.4 4.6 189.6 4.3 188.4 C 4.3 188.4 4.3 188.4 4.3 188.4 Z M 2.7 205.4 C 2.9 203.4 3.1 206.7 2.7 205.4 C 2.7 205.4 2.7 205.4 2.7 205.4 Z M 8.6 181.3 C 8.8 178.3 9.3 183.3 8.6 181.3 C 8.6 181.3 8.6 181.3 8.6 181.3 Z M 8.4 170.0 C 8.5 170.0 8.5 170.0 8.4 170.0 C 8.4 170.0 8.4 170.0 8.4 170.0 Z M 8.1 167.9 C 8.1 167.8 8.1 167.8 8.1 167.9 C 8.1 167.9 8.1 167.9 8.1 167.9 Z M 11.6 160.1 C 11.7 160.0 11.7 160.0 11.6 160.1 C 11.6 160.1 11.6 160.1 11.6 160.1 Z M 7.6 165.9 C 7.6 165.9 7.6 165.9 7.6 165.9 C 7.6 165.9 7.6 165.9 7.6 165.9 Z M 9.3 160.3 C 9.4 160.2 9.4 160.2 9.3 160.3 C 9.3 160.3 9.3 160.3 9.3 160.3 Z M 7.6 160.7 C 7.7 160.6 7.7 160.6 7.6 160.7 C 7.6 160.7 7.6 160.7 7.6 160.7 Z M 12.7 175.0 C 12.7 174.9 12.7 174.9 12.7 175.0 C 12.7 175.0 12.7 175.0 12.7 175.0 Z M 2.8 196.2 C 3.0 196.0 3.0 196.0 2.8 196.2 C 2.8 196.2 2.8 196.2 2.8 196.2 Z M 9.9 160.9 C 9.9 160.9 9.9 160.9 9.9 160.9 C 9.9 160.9 9.9 160.9 9.9 160.9 Z M 8.5 175.2 C 10.0 175.4 6.3 176.1 8.5 174.9 C 8.5 174.9 8.2 175.3 8.5 175.2 M 11.2 173.7 C 11.3 173.8 11.3 173.8 11.2 173.7 C 11.2 173.7 11.2 173.7 11.2 173.7 Z M 11.1 180.3 C 11.2 180.4 11.2 180.4 11.1 180.3 C 11.1 180.3 11.1 180.3 11.1 180.3 Z M 7.1 166.9 C 6.2 167.0 8.1 165.4 7.1 167.1 M 14.2 160.6 C 13.3 160.7 15.2 159.3 14.2 160.9 M 3.2 207.7 C 3.8 208.0 2.8 209.0 3.2 207.7 M 11.7 181.9 C 12.3 182.2 11.2 183.1 11.7 181.9 M 10.3 178.6 C 9.4 178.7 11.2 177.1 10.3 178.8 M 13.2 164.8 C 13.2 164.8 13.2 164.8 13.2 164.8 C 13.2 164.8 13.2 164.8 13.2 164.8 Z M 4.8 185.5 C 4.8 185.4 4.8 185.4 4.8 185.5 C 4.8 185.5 4.8 185.5 4.8 185.5 Z M 7.7 177.6 C 6.4 178.5 8.6 176.2 7.7 177.6 M 6.5 188.1 C 4.9 189.6 7.3 185.5 6.5 188.1 M 15.3 157.6 C 13.2 158.8 16.6 156.6 15.3 157.6 M 9.2 164.9 C 7.1 166.2 10.4 163.8 9.2 164.9 M 5.7 183.9 C 4.8 183.9 6.5 182.1 5.7 183.9 M 3.2 203.1 C 3.0 205.0 2.6 200.7 3.2 203.1 M 12.4 169.0 C 12.5 168.9 12.5 168.9 12.4 169.0 C 12.4 169.0 12.4 169.0 12.4 169.0 Z M 10.2 197.7 C 10.2 197.6 10.2 197.6 10.2 197.7 C 10.2 197.7 10.2 197.7 10.2 197.7 Z M 10.4 154.0 C 10.5 154.0 10.5 154.0 10.4 154.0 C 10.4 154.0 10.4 154.0 10.4 154.0 Z M 9.7 166.1 C 9.9 166.0 9.9 166.0 9.7 166.1 C 9.7 166.1 9.7 166.1 9.7 166.1 Z M 9.3 157.2 C 9.5 157.1 9.5 157.1 9.3 157.2 C 9.3 157.2 9.3 157.2 9.3 157.2 Z M 10.0 171.7 C 10.1 171.7 10.1 171.7 10.0 171.7 C 10.0 171.7 10.0 171.7 10.0 171.7 Z M 5.5 172.0 C 5.5 172.0 5.5 172.0 5.5 172.0 C 5.5 172.0 5.5 172.0 5.5 172.0 Z M 6.3 178.4 C 6.4 178.4 6.4 178.4 6.3 178.4 C 6.3 178.4 6.3 178.4 6.3 178.4 Z M 6.3 169.4 C 6.7 165.7 7.4 171.4 6.3 169.4 C 6.3 169.4 6.3 169.4 6.3 169.4 Z M 9.6 176.3 C 9.6 176.3 9.6 176.3 9.6 176.3 C 9.6 176.3 9.6 176.3 9.6 176.3 Z M 6.4 176.3 C 5.5 173.8 8.7 175.4 6.4 176.3 M 4.0 186.5 C 3.4 185.7 5.1 186.2 4.0 186.5 M 9.3 191.3 C 9.4 191.3 9.4 191.3 9.3 191.3 C 9.3 191.3 9.3 191.3 9.3 191.3 Z M 9.0 190.1 C 9.0 190.0 9.0 190.0 9.0 190.1 C 9.0 190.1 9.0 190.1 9.0 190.1 Z M 3.5 189.0 C 3.5 189.0 3.5 189.0 3.5 189.0 C 3.5 189.0 3.5 189.0 3.5 189.0 Z M 10.6 190.1 C 10.7 190.0 10.7 190.0 10.6 190.1 C 10.6 190.1 10.6 190.1 10.6 190.1 Z M 5.4 173.4 C 5.4 173.4 5.4 173.4 5.4 173.4 C 5.4 173.4 5.4 173.4 5.4 173.4 Z M 9.2 155.3 C 9.2 155.3 9.2 155.3 9.2 155.3 C 9.2 155.3 9.2 155.3 9.2 155.3 Z M 7.9 202.8 C 7.9 202.7 7.9 202.7 7.9 202.8 C 7.9 202.8 7.9 202.8 7.9 202.8 Z M 7.4 171.8 C 7.5 171.8 7.5 171.8 7.4 171.8 C 7.4 171.8 7.4 171.8 7.4 171.8 Z M 8.8 193.9 C 8.9 193.9 8.9 193.9 8.8 193.9 C 8.8 193.9 8.8 193.9 8.8 193.9 Z M 6.8 172.9 C 6.9 172.9 6.9 172.9 6.8 172.9 C 6.8 172.9 6.8 172.9 6.8 172.9 Z M 12.6 169.6 C 12.7 169.6 12.7 169.6 12.6 169.6 C 12.6 169.6 12.6 169.6 12.6 169.6 Z M 14.4 166.0 C 14.4 166.0 14.4 166.0 14.4 166.0 C 14.4 166.0 14.4 166.0 14.4 166.0 Z M 9.6 169.3 C 9.6 169.2 9.6 169.2 9.6 169.3 C 9.6 169.3 9.6 169.3 9.6 169.3 Z M 6.8 195.1 C 4.7 202.7 6.6 189.0 6.8 195.1 M 10.2 168.2 C 8.8 173.0 9.3 163.9 10.2 168.2 C 9.8 167.5 10.1 168.1 10.2 168.2 M 10.2 152.1 C 11.2 154.5 12.7 154.9 14.6 154.5 C 15.6 153.8 12.5 153.0 15.1 153.7 C 15.0 156.0 19.4 153.9 16.0 152.9 C 16.3 149.9 18.2 153.1 17.4 151.0 C 18.0 147.9 18.5 149.8 19.0 147.4 C 17.6 145.5 20.3 146.4 18.8 145.2 C 20.3 147.0 19.1 142.7 20.0 142.9 C 20.4 145.3 22.8 135.2 20.3 140.3 C 20.3 137.8 21.7 138.8 22.2 138.1 C 21.4 136.8 24.4 135.1 23.9 133.3 C 23.5 133.5 23.2 134.1 22.7 134.1 C 21.9 134.2 23.5 132.7 23.4 132.9 C 23.3 131.9 23.6 128.1 24.0 132.5 C 24.8 133.0 24.9 129.4 25.6 129.9 C 27.1 126.8 24.3 128.3 26.2 127.6 C 27.2 125.4 28.0 123.9 27.8 123.8 C 28.6 122.6 29.7 122.9 29.4 121.2 C 32.6 119.6 26.8 117.5 30.9 118.5 C 30.5 117.3 33.2 117.9 30.9 116.8 C 31.5 118.2 35.1 113.5 32.2 114.8 C 32.0 113.9 36.7 112.4 34.2 111.5 C 33.3 109.4 31.6 108.5 28.5 110.2 C 30.0 110.6 25.6 112.1 28.9 111.5 C 31.0 109.7 27.3 116.0 27.3 114.2 C 24.9 112.4 27.3 118.1 24.6 118.5 C 26.3 117.9 24.1 123.5 22.9 120.9 C 22.2 121.8 23.1 122.5 21.4 123.1 C 23.1 119.9 22.9 125.3 21.7 124.5 C 21.2 123.6 18.4 128.3 19.7 128.3 C 23.4 127.8 18.6 129.3 19.4 130.6 C 18.8 133.6 17.1 129.2 18.3 132.1 C 17.7 132.5 16.2 136.2 16.6 133.6 C 17.2 132.9 18.9 137.1 16.3 136.5 C 16.4 132.0 13.8 140.9 15.1 139.8 C 18.7 134.0 14.3 147.0 14.6 141.6 C 12.3 143.9 14.3 140.6 13.8 144.3 C 14.7 144.1 14.6 147.1 13.2 145.9 C 10.6 145.7 16.1 147.8 12.2 149.0 C 10.6 148.9 12.0 153.7 10.8 151.6 C 10.7 151.5 10.2 152.0 10.2 152.1 M 10.9 150.9 C 11.2 151.6 9.9 151.5 10.9 150.9 M 11.2 151.6 C 11.2 151.6 11.2 151.6 11.2 151.6 C 11.2 151.6 11.2 151.6 11.2 151.6 Z M 13.7 144.8 C 13.6 144.8 13.6 144.8 13.7 144.8 C 13.7 144.8 13.7 144.8 13.7 144.8 Z M 21.5 141.7 C 21.4 141.7 21.4 141.7 21.5 141.7 C 21.5 141.7 21.5 141.7 21.5 141.7 Z M 15.4 140.4 C 15.3 140.4 15.3 140.4 15.4 140.4 C 15.4 140.4 15.4 140.4 15.4 140.4 Z M 13.3 147.4 C 13.3 147.4 13.3 147.4 13.3 147.4 C 13.3 147.4 13.3 147.4 13.3 147.4 Z M 14.3 140.5 C 15.4 140.5 13.1 141.8 14.2 140.4 C 14.3 140.3 14.2 140.6 14.3 140.5 M 16.2 134.6 C 16.3 134.6 16.3 134.6 16.2 134.6 M 28.2 125.6 C 28.3 125.6 28.3 125.6 28.2 125.6 M 22.0 121.3 C 22.1 121.2 22.1 121.2 22.0 121.3 M 19.4 129.3 C 20.0 127.6 20.0 129.1 19.4 129.3 M 24.7 117.2 C 23.0 119.0 25.4 114.8 24.7 117.2 M 25.2 115.0 C 25.4 114.9 25.4 114.9 25.2 115.0 M 20.8 124.5 C 20.9 124.5 20.9 124.5 20.8 124.5 C 20.8 124.5 20.8 124.5 20.8 124.5 Z M 18.7 129.9 C 17.3 131.9 18.9 127.3 18.7 129.9 M 13.1 143.7 C 13.1 142.3 14.2 144.1 13.1 143.7 M 12.7 146.6 C 12.8 146.6 12.8 146.6 12.7 146.6 C 12.7 146.6 12.7 146.6 12.7 146.6 Z M 22.9 120.5 C 22.9 120.6 22.9 120.6 22.9 120.5 C 22.9 120.5 22.9 120.5 22.9 120.5 Z M 24.0 118.1 C 24.0 118.1 24.0 118.1 24.0 118.1 C 24.0 118.1 24.0 118.1 24.0 118.1 Z M 32.1 117.6 C 32.1 117.7 32.1 117.7 32.1 117.6 C 32.1 117.6 32.1 117.6 32.1 117.6 Z M 16.1 145.5 C 15.1 147.1 14.6 143.0 16.0 143.9 C 16.8 143.9 16.0 145.2 16.1 145.5 M 20.0 132.3 C 22.3 132.8 16.3 132.7 20.0 132.3 M 26.8 115.5 C 30.1 115.3 23.9 116.5 26.8 115.5 M 28.1 112.1 C 29.1 111.5 25.1 118.1 27.1 113.0 C 27.0 112.3 27.7 112.3 28.1 112.1 M 17.3 134.9 C 18.7 134.9 15.7 137.4 17.3 134.9 M 25.2 126.4 C 24.8 125.3 25.1 122.9 26.0 124.4 C 27.6 125.3 25.4 127.6 25.2 126.4 M 12.3 150.7 C 10.7 148.7 14.0 151.3 12.3 150.7 M 14.6 143.9 C 14.5 143.8 14.5 143.8 14.6 143.9 C 14.6 143.9 14.6 143.9 14.6 143.9 Z M 15.2 141.1 C 15.4 141.0 15.4 141.0 15.2 141.1 M 10.9 149.1 C 11.1 149.0 11.1 149.0 10.9 149.1 M 23.2 125.5 C 23.4 125.4 23.4 125.4 23.2 125.5 M 19.7 130.0 C 22.6 128.4 19.5 131.5 19.7 130.0 M 20.9 137.6 C 22.1 137.2 20.3 139.2 20.9 137.6 M 20.8 125.7 C 23.3 124.8 21.3 128.8 20.8 125.7 M 18.9 131.2 C 19.0 131.1 19.0 131.1 18.9 131.2 C 18.9 131.2 18.9 131.2 18.9 131.2 Z M 25.7 125.9 C 25.7 125.9 25.7 125.9 25.7 125.9 C 25.7 125.9 25.7 125.9 25.7 125.9 Z M 26.0 125.1 C 26.0 125.2 26.0 125.2 26.0 125.1 C 26.0 125.1 26.0 125.1 26.0 125.1 Z M 21.6 123.4 C 21.6 123.5 21.6 123.5 21.6 123.4 C 21.6 123.4 21.6 123.4 21.6 123.4 Z M 17.8 148.4 C 18.6 146.6 17.7 149.9 17.8 148.4 C 17.8 148.4 17.8 148.4 17.8 148.4 Z M 15.1 138.4 C 17.7 135.9 15.7 141.0 15.1 138.4 C 15.1 138.4 15.1 138.4 15.1 138.4 Z M 18.8 135.9 C 18.9 135.9 18.9 135.9 18.8 135.9 C 18.8 135.9 18.8 135.9 18.8 135.9 Z M 19.1 126.3 C 19.2 126.3 19.2 126.3 19.1 126.3 C 19.1 126.3 19.1 126.3 19.1 126.3 Z M 18.4 147.6 C 18.5 147.6 18.5 147.6 18.4 147.6 C 18.4 147.6 18.4 147.6 18.4 147.6 Z M 24.9 119.1 C 25.0 119.1 25.0 119.1 24.9 119.1 C 24.9 119.1 24.9 119.1 24.9 119.1 Z M 23.9 130.6 C 23.5 129.6 24.5 130.7 23.9 130.6 C 23.9 130.6 23.9 130.6 23.9 130.6 Z M 25.1 128.0 C 25.1 128.0 25.1 128.0 25.1 128.0 C 25.1 128.0 25.1 128.0 25.1 128.0 Z M 25.5 114.3 C 25.5 114.2 25.5 114.2 25.5 114.3 C 25.5 114.3 25.5 114.3 25.5 114.3 Z M 29.8 122.6 C 29.8 122.5 29.8 122.5 29.8 122.6 C 29.8 122.6 29.8 122.6 29.8 122.6 Z M 28.8 119.4 C 28.8 119.5 28.8 119.5 28.8 119.4 C 28.8 119.4 28.8 119.4 28.8 119.4 Z M 21.8 124.1 C 22.6 121.4 22.3 125.1 21.8 124.1 C 21.8 124.1 21.8 124.1 21.8 124.1 Z M 31.6 113.2 C 31.7 113.2 31.7 113.2 31.6 113.2 C 31.6 113.2 31.6 113.2 31.6 113.2 Z M 30.0 110.6 C 30.2 110.6 30.2 110.6 30.0 110.6 C 30.0 110.6 30.0 110.6 30.0 110.6 Z M 29.1 109.3 C 29.3 109.3 29.3 109.3 29.1 109.3 C 29.1 109.3 29.1 109.3 29.1 109.3 Z M 17.9 142.1 C 17.8 142.1 17.8 142.1 17.9 142.1 C 17.9 142.1 17.9 142.1 17.9 142.1 Z M 13.4 141.7 C 13.4 141.8 13.4 141.8 13.4 141.7 C 13.4 141.7 13.4 141.7 13.4 141.7 Z M 14.6 137.9 C 14.5 137.9 14.5 137.9 14.6 137.9 C 14.6 137.9 14.6 137.9 14.6 137.9 Z M 20.2 143.6 C 20.1 143.7 20.1 143.7 20.2 143.6 C 20.2 143.6 20.2 143.6 20.2 143.6 Z M 22.0 128.9 C 21.9 128.9 21.9 128.9 22.0 128.9 C 22.0 128.9 22.0 128.9 22.0 128.9 Z M 24.2 128.4 C 24.1 128.4 24.1 128.4 24.2 128.4 C 24.2 128.4 24.2 128.4 24.2 128.4 Z M 25.0 132.3 C 25.0 132.4 25.0 132.4 25.0 132.3 C 25.0 132.3 25.0 132.3 25.0 132.3 Z M 26.0 128.1 C 26.0 128.1 26.0 128.1 26.0 128.1 C 26.0 128.1 26.0 128.1 26.0 128.1 Z M 16.5 152.7 C 16.5 152.7 16.5 152.7 16.5 152.7 C 16.5 152.7 16.5 152.7 16.5 152.7 Z M 13.2 152.1 C 13.3 152.2 13.3 152.2 13.2 152.1 C 13.2 152.1 13.2 152.1 13.2 152.1 Z M 20.0 127.5 C 19.6 126.6 21.4 126.7 20.0 127.5 M 18.2 132.8 C 18.2 132.8 18.2 132.8 18.2 132.8 C 18.2 132.8 18.2 132.8 18.2 132.8 Z M 24.1 119.2 C 25.6 119.2 22.3 121.2 24.1 119.2 C 24.1 119.2 24.1 119.2 24.1 119.2 Z M 27.8 124.3 C 27.9 124.3 27.9 124.3 27.8 124.3 C 27.8 124.3 27.8 124.3 27.8 124.3 Z M 28.0 122.8 C 28.1 122.8 28.1 122.8 28.0 122.8 C 28.0 122.8 28.0 122.8 28.0 122.8 Z M 28.4 114.3 C 28.6 114.2 28.6 114.2 28.4 114.3 M 16.8 133.0 C 17.7 132.4 17.5 132.5 16.8 133.0 M 25.0 117.6 C 25.0 117.7 25.0 117.7 25.0 117.6 C 25.0 117.6 25.0 117.6 25.0 117.6 Z M 28.7 112.4 C 28.7 112.5 28.7 112.5 28.7 112.4 C 28.7 112.4 28.7 112.4 28.7 112.4 Z M 16.2 137.0 C 17.8 137.5 17.1 138.1 16.2 137.0 M 13.0 147.9 C 13.1 147.9 13.1 147.9 13.0 147.9 C 13.0 147.9 13.0 147.9 13.0 147.9 Z M 32.2 104.5 C 29.1 106.0 31.2 107.4 31.3 107.4 C 28.6 105.3 31.1 110.3 31.9 110.2 C 32.3 110.5 38.4 111.8 36.5 108.2 C 36.4 107.5 37.5 107.8 37.8 107.5 C 39.6 104.6 34.9 108.5 37.3 105.0 C 38.1 104.6 39.9 107.0 39.7 103.8 C 40.0 103.9 42.5 102.2 40.8 102.3 C 42.7 102.0 41.9 100.4 42.5 99.2 C 43.8 98.7 43.4 101.2 44.8 97.0 C 47.7 97.1 44.9 94.1 47.9 94.5 C 48.6 93.8 46.4 89.8 46.7 93.2 C 46.7 92.8 44.2 92.6 46.9 90.6 C 47.0 91.3 49.0 95.5 50.8 90.3 C 51.5 89.8 52.0 87.6 52.6 87.6 C 51.2 89.9 56.4 86.4 55.1 85.9 C 58.6 83.7 55.5 83.9 58.7 82.9 C 60.4 81.3 56.7 82.1 59.7 80.8 C 61.2 79.1 60.8 81.0 60.6 81.1 C 62.2 79.9 62.2 78.8 62.8 78.4 C 63.2 78.3 64.5 78.4 64.1 77.3 C 64.4 74.4 61.7 74.2 61.2 72.1 C 59.3 72.4 61.6 73.7 59.8 73.3 C 60.1 74.7 59.6 73.2 56.7 76.3 C 56.9 76.5 58.3 76.4 57.6 77.2 C 56.3 78.2 54.8 75.0 54.5 78.6 C 57.3 76.9 52.0 82.5 54.6 80.9 C 52.2 83.8 53.7 81.4 51.2 82.8 C 52.9 84.3 49.3 81.3 49.9 83.3 C 49.1 82.8 46.5 86.2 49.5 84.9 C 47.0 88.5 47.9 85.6 46.0 86.0 C 44.5 87.4 48.6 88.5 45.7 87.7 C 43.0 88.8 46.7 88.6 43.8 88.7 C 45.8 89.3 42.5 90.1 44.5 90.9 C 41.8 94.4 43.2 89.1 42.3 92.4 C 43.0 91.7 40.6 90.3 40.7 92.9 C 43.8 94.3 36.9 93.1 41.2 94.7 C 38.2 100.4 39.1 94.4 37.0 97.2 C 36.5 97.9 38.7 97.3 38.3 97.9 C 35.1 101.1 36.4 97.5 36.7 100.6 C 34.6 104.5 34.5 100.6 33.1 102.3 C 33.9 103.0 34.3 105.4 32.2 104.5 M 35.3 101.8 C 35.3 100.7 36.2 101.8 35.3 101.8 M 29.6 108.7 C 29.5 107.5 30.5 108.6 29.6 108.7 M 36.9 98.5 C 37.1 97.1 38.0 98.9 36.9 98.5 M 53.2 81.3 C 52.0 82.4 53.3 80.3 53.2 81.3 M 31.4 105.6 C 31.4 104.1 32.5 106.0 31.4 105.6 M 31.9 107.9 C 32.0 107.8 32.0 107.8 31.9 107.9 M 53.6 78.4 C 53.7 78.3 53.7 78.3 53.6 78.4 M 49.1 82.9 C 50.0 82.0 48.9 83.8 49.1 82.9 M 54.1 88.0 C 55.0 87.1 53.9 88.9 54.1 88.0 M 56.1 75.9 C 56.8 74.5 57.0 76.2 56.1 75.9 M 59.8 74.6 C 60.3 73.4 60.9 74.7 59.8 74.6 M 36.9 103.9 C 37.0 104.0 37.0 104.0 36.9 103.9 C 36.9 103.9 36.9 103.9 36.9 103.9 Z M 45.1 95.9 C 43.7 96.5 46.9 95.2 45.1 95.9 M 40.1 94.6 C 41.9 94.8 38.9 96.0 40.1 94.6 C 40.1 94.6 40.1 94.6 40.1 94.6 Z M 39.4 96.6 C 39.5 96.7 39.5 96.7 39.4 96.6 C 39.4 96.6 39.4 96.6 39.4 96.6 Z M 43.6 91.6 C 43.5 91.6 43.5 91.6 43.6 91.6 C 43.6 91.6 43.6 91.6 43.6 91.6 Z M 42.8 92.7 C 42.7 93.3 42.1 93.1 42.8 92.7 C 42.8 92.7 42.8 92.7 42.8 92.7 Z M 52.5 88.7 C 52.3 89.3 51.8 89.0 52.5 88.7 C 52.5 88.7 52.5 88.7 52.5 88.7 Z M 41.9 94.6 C 42.9 95.7 40.6 94.7 41.9 94.6 C 41.9 94.6 41.9 94.6 41.9 94.6 Z M 49.0 91.5 C 49.1 90.8 50.8 91.6 49.0 91.5 M 54.8 77.6 C 54.9 76.9 56.6 77.8 54.8 77.6 M 44.7 87.5 C 44.8 86.8 46.6 87.4 44.7 87.5 M 35.2 100.9 C 35.4 100.8 35.4 100.8 35.2 100.9 M 44.8 98.6 C 44.9 97.5 45.6 98.6 44.8 98.6 M 37.0 108.5 C 37.1 107.5 37.8 108.5 37.0 108.5 M 58.0 83.8 C 57.7 83.6 59.1 83.0 58.0 83.8 M 47.5 87.8 C 48.5 87.0 49.9 86.6 48.1 88.4 C 47.8 88.3 48.1 87.6 47.5 87.8 C 47.5 87.8 47.5 87.8 47.5 87.8 Z M 52.9 86.9 C 53.1 86.8 53.1 86.8 52.9 86.9 M 48.0 85.3 C 48.2 85.2 48.2 85.2 48.0 85.3 M 53.1 80.2 C 53.3 80.3 53.3 80.3 53.1 80.2 M 53.4 79.3 C 53.5 79.4 53.5 79.4 53.4 79.3 C 53.4 79.3 53.4 79.3 53.4 79.3 Z M 58.9 73.5 C 58.9 73.5 58.9 73.5 58.9 73.5 C 58.9 73.5 58.9 73.5 58.9 73.5 Z M 51.6 82.0 C 51.6 82.0 51.6 82.0 51.6 82.0 C 51.6 82.0 51.6 82.0 51.6 82.0 Z M 60.0 81.5 C 60.1 81.6 60.1 81.6 60.0 81.5 C 60.0 81.5 60.0 81.5 60.0 81.5 Z M 58.9 81.4 C 58.9 81.5 58.9 81.5 58.9 81.4 C 58.9 81.4 58.9 81.4 58.9 81.4 Z M 32.6 104.0 C 32.3 102.5 35.0 104.9 32.6 104.0 M 61.4 79.1 C 62.8 79.2 60.2 80.5 61.4 79.1 C 61.4 79.1 61.4 79.1 61.4 79.1 Z M 51.9 83.4 C 52.1 83.5 52.1 83.5 51.9 83.4 M 53.9 79.1 C 54.1 79.2 54.1 79.2 53.9 79.1 M 39.1 93.8 C 39.3 93.9 39.3 93.9 39.1 93.8 M 58.1 75.5 C 60.8 73.5 58.4 78.1 58.1 75.5 M 39.2 95.9 C 39.1 95.9 39.1 95.9 39.2 95.9 M 46.0 91.9 C 47.3 90.1 46.1 93.0 46.0 91.9 M 48.3 86.4 C 48.3 86.5 48.3 86.5 48.3 86.4 C 48.3 86.4 48.3 86.4 48.3 86.4 Z M 46.1 88.9 C 45.2 90.2 45.6 88.9 46.1 88.9 C 46.1 88.9 46.1 88.9 46.1 88.9 Z M 34.6 103.4 C 35.9 101.8 33.7 105.5 34.6 103.4 C 34.6 103.4 34.6 103.4 34.6 103.4 Z M 59.3 79.0 C 59.3 79.2 59.3 79.2 59.3 79.0 C 59.3 79.0 59.3 79.0 59.3 79.0 Z M 50.6 81.6 C 50.2 82.5 50.0 81.6 50.6 81.6 C 50.6 81.6 50.6 81.6 50.6 81.6 Z M 59.8 72.7 C 59.2 73.6 59.1 72.7 59.8 72.7 C 59.8 72.7 59.8 72.7 59.8 72.7 Z M 32.9 105.4 C 39.2 100.3 26.8 113.6 32.9 105.4 C 32.9 105.4 32.9 105.4 32.9 105.4 Z M 46.3 87.2 C 46.3 87.3 46.3 87.3 46.3 87.2 C 46.3 87.2 46.3 87.2 46.3 87.2 Z M 36.5 97.7 C 36.5 97.8 36.5 97.8 36.5 97.7 C 36.5 97.7 36.5 97.7 36.5 97.7 Z M 36.1 100.4 C 36.2 100.5 36.2 100.5 36.1 100.4 C 36.1 100.4 36.1 100.4 36.1 100.4 Z M 41.1 103.2 C 41.2 103.3 41.2 103.3 41.1 103.2 C 41.1 103.2 41.1 103.2 41.1 103.2 Z M 39.5 101.0 C 39.6 101.2 39.6 101.2 39.5 101.0 C 39.5 101.0 39.5 101.0 39.5 101.0 Z M 37.5 105.5 C 37.6 105.6 37.6 105.6 37.5 105.5 C 37.5 105.5 37.5 105.5 37.5 105.5 Z M 38.2 105.9 C 38.2 105.9 38.2 105.9 38.2 105.9 C 38.2 105.9 38.2 105.9 38.2 105.9 Z M 55.0 80.2 C 55.0 80.4 55.0 80.4 55.0 80.2 C 55.0 80.2 55.0 80.2 55.0 80.2 Z M 54.8 83.8 C 55.4 81.9 55.2 85.0 54.8 83.8 C 54.8 83.8 54.8 83.8 54.8 83.8 Z M 43.5 94.6 C 44.3 93.1 43.4 95.9 43.5 94.6 C 43.5 94.6 43.5 94.6 43.5 94.6 Z M 47.0 95.2 C 47.0 95.2 47.0 95.2 47.0 95.2 C 47.0 95.2 47.0 95.2 47.0 95.2 Z M 35.0 99.6 C 35.1 99.7 35.1 99.7 35.0 99.6 C 35.0 99.6 35.0 99.6 35.0 99.6 Z M 34.1 102.6 C 35.0 103.4 33.1 103.1 34.1 102.6 M 42.8 90.1 C 42.9 90.2 42.9 90.2 42.8 90.1 C 42.8 90.1 42.8 90.1 42.8 90.1 Z M 50.6 84.2 C 50.7 84.2 50.7 84.2 50.6 84.2 C 50.6 84.2 50.6 84.2 50.6 84.2 Z M 57.0 76.9 C 57.0 77.0 57.0 77.0 57.0 76.9 C 57.0 76.9 57.0 76.9 57.0 76.9 Z M 46.9 85.6 C 47.0 85.8 47.0 85.8 46.9 85.6 C 46.9 85.6 46.9 85.6 46.9 85.6 Z M 44.7 89.8 C 44.8 89.9 44.8 89.9 44.7 89.8 C 44.7 89.8 44.7 89.8 44.7 89.8 Z M 59.7 76.7 C 59.7 76.8 59.7 76.8 59.7 76.7 C 59.7 76.7 59.7 76.7 59.7 76.7 Z M 47.5 84.7 C 47.5 84.8 47.5 84.8 47.5 84.7 C 47.5 84.7 47.5 84.7 47.5 84.7 Z M 52.2 85.3 C 52.2 85.5 52.2 85.5 52.2 85.3 C 52.2 85.3 52.2 85.3 52.2 85.3 Z M 32.9 101.3 C 32.9 101.4 32.9 101.4 32.9 101.3 C 32.9 101.3 32.9 101.3 32.9 101.3 Z M 58.7 75.4 C 58.7 75.5 58.7 75.5 58.7 75.4 C 58.7 75.4 58.7 75.4 58.7 75.4 Z M 58.4 74.3 C 58.4 74.3 58.4 74.3 58.4 74.3 C 58.4 74.3 58.4 74.3 58.4 74.3 Z M 57.3 83.0 C 54.5 84.8 59.3 80.8 56.6 81.5 C 59.9 78.0 57.9 82.6 57.3 83.0 C 57.3 83.0 57.3 83.0 57.3 83.0 Z M 61.6 70.9 C 61.2 73.4 62.2 74.5 63.9 75.3 C 65.2 75.3 63.1 72.9 64.9 74.9 C 63.6 76.7 68.2 77.5 65.9 74.8 C 67.7 72.6 67.7 76.3 68.1 74.1 C 70.2 72.0 69.7 73.8 71.3 72.2 C 71.2 69.8 73.0 72.1 72.4 70.3 C 72.6 72.6 74.0 68.3 74.6 69.0 C 73.6 71.3 81.3 64.3 76.4 67.1 C 77.7 65.0 78.3 66.6 79.1 66.4 C 79.2 64.9 82.7 65.1 83.3 63.3 C 82.9 63.2 82.3 63.6 81.9 63.4 C 81.1 62.9 83.3 62.6 83.1 62.7 C 83.7 61.8 86.2 58.8 83.9 62.7 C 84.3 63.6 86.5 60.6 86.8 61.4 C 89.8 59.6 86.6 59.3 88.7 59.7 C 90.8 58.5 92.4 57.6 92.3 57.4 C 93.8 56.9 94.6 57.7 95.3 56.1 C 99.0 56.5 95.4 51.4 98.3 54.6 C 98.7 53.3 100.7 55.3 99.4 53.1 C 99.0 54.6 105.2 52.4 101.8 52.0 C 102.2 51.1 107.3 52.3 105.7 50.2 C 106.3 47.9 105.2 46.2 101.5 46.0 C 102.4 47.2 97.7 46.2 101.0 47.4 C 103.9 46.9 96.8 50.5 97.9 48.9 C 96.9 46.0 95.4 52.3 92.9 51.2 C 94.6 51.6 89.4 55.2 89.9 52.3 C 88.8 52.7 89.1 53.8 87.3 53.3 C 90.7 51.6 87.2 56.0 86.7 54.7 C 86.9 53.7 81.7 56.0 82.8 56.8 C 86.1 58.4 81.2 57.0 81.1 58.5 C 78.9 60.7 80.1 56.0 79.4 59.2 C 78.7 59.2 75.3 61.4 77.1 59.5 C 78.1 59.2 77.0 63.6 75.2 61.7 C 77.9 58.0 70.7 63.9 72.3 63.7 C 78.5 61.0 67.7 69.1 71.0 64.9 C 67.7 65.5 71.3 63.9 68.8 66.6 C 69.7 67.0 67.9 69.3 67.4 67.6 C 65.4 66.0 68.8 70.8 64.9 69.5 C 63.7 68.6 62.2 73.1 62.4 70.8 C 62.3 70.6 61.7 70.8 61.6 70.9 M 62.8 70.3 C 62.8 71.0 61.8 70.2 62.8 70.3 M 62.8 71.0 C 62.7 71.0 62.7 71.0 62.8 71.0 C 62.8 71.0 62.8 71.0 62.8 71.0 Z M 68.4 67.0 C 68.3 67.0 68.3 67.0 68.4 67.0 C 68.4 67.0 68.4 67.0 68.4 67.0 Z M 76.5 68.9 C 76.5 68.8 76.5 68.8 76.5 68.9 C 76.5 68.9 76.5 68.9 76.5 68.9 Z M 72.2 64.4 C 72.2 64.4 72.2 64.4 72.2 64.4 C 72.2 64.4 72.2 64.4 72.2 64.4 Z M 66.7 68.8 C 66.7 68.9 66.7 68.9 66.7 68.8 C 66.7 68.8 66.7 68.8 66.7 68.8 Z M 71.3 63.9 C 72.2 64.4 69.6 64.3 71.3 63.7 C 71.4 63.7 71.2 63.9 71.3 63.9 M 76.2 60.0 C 76.3 60.1 76.3 60.1 76.2 60.0 M 91.6 59.2 C 91.7 59.3 91.7 59.3 91.6 59.2 M 88.9 52.1 C 89.1 52.1 89.1 52.1 88.9 52.1 M 81.9 57.5 C 83.4 56.3 82.5 57.6 81.9 57.5 M 93.7 50.1 C 91.2 50.7 95.8 48.4 93.7 50.1 M 95.6 48.5 C 95.8 48.5 95.8 48.5 95.6 48.5 M 86.0 54.2 C 86.0 54.2 86.0 54.2 86.0 54.2 C 86.0 54.2 86.0 54.2 86.0 54.2 Z M 81.0 57.6 C 78.6 58.5 82.7 55.5 81.0 57.6 M 68.5 65.8 C 69.3 64.6 69.2 66.8 68.5 65.8 M 66.7 67.9 C 66.7 68.0 66.7 68.0 66.7 67.9 C 66.7 67.9 66.7 67.9 66.7 67.9 Z M 90.2 51.9 C 90.1 52.0 90.1 52.0 90.2 51.9 C 90.2 51.9 90.2 51.9 90.2 51.9 Z M 92.6 50.4 C 92.5 50.5 92.5 50.5 92.6 50.4 C 92.6 50.4 92.6 50.4 92.6 50.4 Z M 99.9 54.4 C 99.9 54.5 99.9 54.5 99.9 54.4 C 99.9 54.4 99.9 54.4 99.9 54.4 Z M 70.0 69.0 C 68.3 69.6 70.1 66.0 70.8 67.6 C 71.4 68.1 70.1 68.7 70.0 69.0 M 80.6 60.3 C 82.3 62.0 77.4 58.6 80.6 60.3 M 96.6 49.7 C 99.6 51.3 93.5 49.0 96.6 49.7 M 99.9 47.5 C 101.2 47.5 93.5 51.1 98.4 47.8 C 98.7 47.1 99.4 47.4 99.9 47.5 M 76.9 60.9 C 78.1 61.7 74.1 62.1 76.9 60.9 M 88.6 58.2 C 88.9 57.0 90.6 55.2 90.4 57.0 C 91.3 58.6 88.0 59.4 88.6 58.2 M 64.1 71.0 C 63.9 68.4 65.2 72.4 64.1 71.0 M 69.7 66.8 C 69.7 66.7 69.7 66.7 69.7 66.8 C 69.7 66.8 69.7 66.8 69.7 66.8 Z M 71.7 64.9 C 71.9 64.9 71.9 64.9 71.7 64.9 M 63.8 68.8 C 64.0 68.9 64.0 68.9 63.8 68.8 M 87.4 56.4 C 87.6 56.4 87.6 56.4 87.4 56.4 M 81.7 58.2 C 85.2 58.5 80.7 59.4 81.7 58.2 M 78.3 65.2 C 79.5 65.6 77.0 66.2 78.3 65.2 M 85.2 55.1 C 87.9 55.8 83.8 58.1 85.2 55.1 M 80.4 58.8 C 80.6 58.7 80.6 58.7 80.4 58.8 C 80.4 58.8 80.4 58.8 80.4 58.8 Z M 89.3 58.0 C 89.3 58.1 89.3 58.1 89.3 58.0 C 89.3 58.0 89.3 58.0 89.3 58.0 Z M 90.0 57.5 C 89.9 57.6 89.9 57.6 90.0 57.5 C 90.0 57.5 90.0 57.5 90.0 57.5 Z M 87.2 53.7 C 87.2 53.8 87.2 53.8 87.2 53.7 C 87.2 53.7 87.2 53.7 87.2 53.7 Z M 69.9 72.3 C 71.4 71.2 68.9 73.4 69.9 72.3 C 69.9 72.3 69.9 72.3 69.9 72.3 Z M 73.2 62.6 C 76.7 62.0 72.2 65.1 73.2 62.6 C 73.2 62.6 73.2 62.6 73.2 62.6 Z M 77.6 62.6 C 77.7 62.7 77.7 62.7 77.6 62.6 C 77.6 62.6 77.6 62.6 77.6 62.6 Z M 83.5 54.8 C 83.6 54.9 83.6 54.9 83.5 54.8 C 83.5 54.8 83.5 54.8 83.5 54.8 Z M 70.8 71.9 C 70.8 72.0 70.8 72.0 70.8 71.9 C 70.8 71.9 70.8 71.9 70.8 71.9 Z M 92.8 51.8 C 92.8 51.9 92.8 51.9 92.8 51.8 C 92.8 51.8 92.8 51.8 92.8 51.8 Z M 84.9 61.0 C 85.1 60.0 85.4 61.5 84.9 61.0 C 84.9 61.0 84.9 61.0 84.9 61.0 Z M 87.4 59.5 C 87.5 59.5 87.5 59.5 87.4 59.5 C 87.4 59.5 87.4 59.5 87.4 59.5 Z M 96.2 48.0 C 96.2 48.0 96.2 48.0 96.2 48.0 C 96.2 48.0 96.2 48.0 96.2 48.0 Z M 94.8 57.4 C 94.9 57.4 94.9 57.4 94.8 57.4 C 94.8 57.4 94.8 57.4 94.8 57.4 Z M 95.9 54.2 C 95.9 54.3 95.9 54.3 95.9 54.2 C 95.9 54.2 95.9 54.2 95.9 54.2 Z M 87.0 54.4 C 89.4 52.5 86.9 55.5 87.0 54.4 C 87.0 54.4 87.0 54.4 87.0 54.4 Z M 102.2 50.3 C 102.4 50.4 102.4 50.4 102.2 50.3 C 102.2 50.3 102.2 50.3 102.2 50.3 Z M 102.5 47.2 C 102.6 47.3 102.6 47.3 102.5 47.2 C 102.5 47.2 102.5 47.2 102.5 47.2 Z M 102.6 45.6 C 102.7 45.7 102.7 45.7 102.6 45.6 C 102.6 45.6 102.6 45.6 102.6 45.6 Z M 73.4 67.2 C 73.3 67.2 73.3 67.2 73.4 67.2 C 73.4 67.2 73.4 67.2 73.4 67.2 Z M 69.9 64.4 C 69.8 64.4 69.8 64.4 69.9 64.4 C 69.9 64.4 69.9 64.4 69.9 64.4 Z M 73.0 61.9 C 72.9 61.9 72.9 61.9 73.0 61.9 C 73.0 61.9 73.0 61.9 73.0 61.9 Z M 74.4 69.8 C 74.3 69.7 74.3 69.7 74.4 69.8 C 74.4 69.8 74.4 69.8 74.4 69.8 Z M 84.4 58.6 C 84.3 58.5 84.3 58.5 84.4 58.6 C 84.4 58.6 84.4 58.6 84.4 58.6 Z M 86.5 59.4 C 86.4 59.3 86.4 59.3 86.5 59.4 C 86.5 59.4 86.5 59.4 86.5 59.4 Z M 84.8 63.1 C 84.8 63.1 84.8 63.1 84.8 63.1 C 84.8 63.1 84.8 63.1 84.8 63.1 Z M 88.2 60.1 C 88.1 60.1 88.1 60.1 88.2 60.1 C 88.2 60.1 88.2 60.1 88.2 60.1 Z M 66.5 74.9 C 66.5 75.0 66.5 75.0 66.5 74.9 C 66.5 74.9 66.5 74.9 66.5 74.9 Z M 64.1 72.5 C 64.1 72.7 64.1 72.7 64.1 72.5 C 64.1 72.5 64.1 72.5 64.1 72.5 Z M 83.5 56.3 C 83.7 55.3 85.2 56.4 83.5 56.3 M 78.9 59.7 C 78.9 59.7 78.9 59.7 78.9 59.7 C 78.9 59.7 78.9 59.7 78.9 59.7 Z M 92.0 51.5 C 93.3 52.3 89.3 52.2 92.0 51.5 C 92.0 51.5 92.0 51.5 92.0 51.5 Z M 92.1 57.9 C 92.1 57.9 92.1 57.9 92.1 57.9 C 92.1 57.9 92.1 57.9 92.1 57.9 Z M 93.1 56.7 C 93.2 56.7 93.2 56.7 93.1 56.7 C 93.1 56.7 93.1 56.7 93.1 56.7 Z M 98.8 49.6 C 99.0 49.6 99.0 49.6 98.8 49.6 M 77.6 59.1 C 78.7 59.1 78.5 59.1 77.6 59.1 M 93.8 50.6 C 93.7 50.7 93.7 50.7 93.8 50.6 C 93.8 50.6 93.8 50.6 93.8 50.6 Z M 100.2 48.0 C 100.1 48.1 100.1 48.1 100.2 48.0 C 100.2 48.0 100.2 48.0 100.2 48.0 Z M 74.8 62.1 C 75.8 63.3 75.0 63.5 74.8 62.1 M 66.2 69.1 C 66.3 69.2 66.3 69.2 66.2 69.1 C 66.2 69.1 66.2 69.1 66.2 69.1 Z M 108.4 43.0 C 104.7 42.7 105.7 45.0 105.7 45.1 C 104.6 41.8 103.6 47.5 104.5 47.8 C 104.6 48.3 109.3 52.7 109.9 48.5 C 110.3 47.8 111.0 48.6 111.5 48.5 C 115.0 46.8 108.2 47.9 112.7 46.0 C 113.7 46.1 113.8 49.1 115.7 46.2 C 115.9 46.4 119.4 46.2 117.8 45.4 C 119.7 46.1 120.1 44.2 121.3 43.4 C 122.9 43.7 121.0 45.7 125.0 42.6 C 127.7 44.1 127.1 40.0 129.7 41.8 C 130.9 41.5 131.4 36.9 129.4 40.1 C 129.7 39.7 127.3 38.3 131.3 37.8 C 130.9 38.5 130.1 43.2 135.4 39.4 C 136.4 39.2 138.4 37.5 139.1 37.8 C 136.1 39.1 143.8 38.4 142.7 37.3 C 147.8 36.8 144.5 35.7 148.4 36.2 C 151.4 35.5 147.0 34.5 150.9 34.7 C 153.7 33.8 152.0 35.3 151.7 35.3 C 154.2 34.9 154.9 34.0 155.8 33.8 C 156.4 33.9 157.7 34.5 158.0 33.3 C 160.2 30.8 157.4 29.5 158.2 27.3 C 156.0 26.8 157.6 29.0 156.0 27.8 C 155.3 29.2 155.7 27.7 150.6 29.3 C 150.8 29.5 152.3 30.0 151.1 30.5 C 149.0 30.8 149.6 27.2 146.9 30.4 C 151.0 30.0 141.8 32.8 145.5 32.5 C 141.2 34.1 144.2 32.6 140.8 32.7 C 141.6 34.8 139.9 30.5 139.2 32.6 C 138.6 31.8 133.8 33.6 137.7 33.9 C 132.8 36.0 135.6 33.8 133.5 33.2 C 131.1 33.8 134.4 36.7 132.1 34.6 C 128.7 34.4 132.4 35.9 129.5 34.6 C 131.1 36.1 127.3 35.3 128.8 37.0 C 123.8 38.9 128.7 34.7 125.6 37.3 C 126.8 37.0 125.4 34.5 123.8 37.0 C 125.9 39.7 120.1 35.2 123.1 38.8 C 116.6 42.4 121.3 37.5 117.5 38.9 C 116.6 39.3 119.1 39.8 118.2 40.2 C 113.2 41.5 116.7 38.9 115.0 41.8 C 110.6 44.2 113.0 40.7 110.7 41.5 C 110.9 42.5 109.7 44.9 108.4 43.0 M 112.9 42.2 C 113.6 41.2 113.8 42.6 112.9 42.2 M 103.3 45.3 C 104.0 44.2 104.2 45.7 103.3 45.3 M 116.6 40.1 C 117.6 38.9 117.4 41.0 116.6 40.1 M 143.8 32.2 C 141.8 32.8 144.5 31.4 143.8 32.2 M 106.9 43.5 C 107.9 42.2 107.7 44.4 106.9 43.5 M 105.9 45.8 C 106.0 45.8 106.0 45.8 105.9 45.8 M 146.1 29.8 C 146.2 29.8 146.2 29.8 146.1 29.8 M 138.5 31.8 C 140.1 31.4 137.8 32.5 138.5 31.8 M 140.3 38.8 C 141.9 38.4 139.5 39.5 140.3 38.8 M 150.3 28.6 C 151.9 27.7 151.0 29.3 150.3 28.6 M 155.1 29.1 C 156.4 28.1 156.2 29.6 155.1 29.1 M 113.0 44.9 C 113.0 44.9 113.0 44.9 113.0 44.9 C 113.0 44.9 113.0 44.9 113.0 44.9 Z M 126.1 41.8 C 124.3 41.6 128.2 41.9 126.1 41.8 M 122.2 38.2 C 123.7 39.2 120.1 38.8 122.2 38.2 C 122.2 38.2 122.2 38.2 122.2 38.2 Z M 120.2 39.6 C 120.1 39.7 120.1 39.7 120.2 39.6 C 120.2 39.6 120.2 39.6 120.2 39.6 Z M 127.5 37.1 C 127.4 37.2 127.4 37.2 127.5 37.1 C 127.5 37.1 127.5 37.1 127.5 37.1 Z M 126.0 37.8 C 125.5 38.3 125.0 37.8 126.0 37.8 C 126.0 37.8 126.0 37.8 126.0 37.8 Z M 138.2 38.7 C 137.6 39.2 137.3 38.6 138.2 38.7 C 138.2 38.7 138.2 38.7 138.2 38.7 Z M 123.8 39.0 C 124.1 40.5 122.5 38.5 123.8 39.0 C 123.8 39.0 123.8 39.0 123.8 39.0 Z M 132.8 39.6 C 133.4 39.1 134.6 40.5 132.8 39.6 M 147.8 29.6 C 148.4 29.0 149.7 30.6 147.8 29.6 M 131.3 33.9 C 131.8 33.3 133.1 34.8 131.3 33.9 M 113.5 41.3 C 113.7 41.4 113.7 41.4 113.5 41.3 M 124.0 44.0 C 124.8 43.1 124.7 44.4 124.0 44.0 M 110.2 49.0 C 110.9 48.1 110.9 49.4 110.2 49.0 M 147.2 36.7 C 147.0 36.4 148.9 36.5 147.2 36.7 M 133.8 35.6 C 135.3 35.3 136.9 35.6 134.0 36.4 C 133.7 36.2 134.5 35.7 133.8 35.6 C 133.8 35.6 133.8 35.6 133.8 35.6 Z M 139.8 37.2 C 140.1 37.3 140.1 37.3 139.8 37.2 M 135.9 33.5 C 136.2 33.6 136.2 33.6 135.9 33.5 M 144.4 31.2 C 144.6 31.4 144.6 31.4 144.4 31.2 M 145.4 30.6 C 145.3 30.6 145.3 30.6 145.4 30.6 C 145.4 30.6 145.4 30.6 145.4 30.6 Z M 154.8 27.6 C 154.8 27.7 154.8 27.7 154.8 27.6 C 154.8 27.6 154.8 27.6 154.8 27.6 Z M 141.7 32.2 C 141.7 32.2 141.7 32.2 141.7 32.2 C 141.7 32.2 141.7 32.2 141.7 32.2 Z M 150.8 35.5 C 150.9 35.5 150.9 35.5 150.8 35.5 C 150.8 35.5 150.8 35.5 150.8 35.5 Z M 149.6 34.9 C 149.7 34.9 149.7 34.9 149.6 34.9 C 149.6 34.9 149.6 34.9 149.6 34.9 Z M 109.1 42.7 C 109.8 41.3 110.7 44.8 109.1 42.7 M 153.8 33.9 C 155.3 34.5 151.7 34.6 153.8 33.9 C 153.8 33.9 153.8 33.9 153.8 33.9 Z M 141.1 33.6 C 141.2 33.8 141.2 33.8 141.1 33.6 M 145.9 30.5 C 146.1 30.7 146.1 30.7 145.9 30.5 M 121.6 37.0 C 121.8 37.1 121.8 37.1 121.6 37.0 M 152.7 29.1 C 156.9 28.5 151.3 31.6 152.7 29.1 M 120.4 38.9 C 120.3 38.8 120.3 38.8 120.4 38.9 M 129.6 38.5 C 132.1 37.6 129.0 39.6 129.6 38.5 M 135.5 34.7 C 135.5 34.8 135.5 34.8 135.5 34.7 C 135.5 34.7 135.5 34.7 135.5 34.7 Z M 131.7 35.9 C 129.9 36.7 131.1 35.7 131.7 35.9 C 131.7 35.9 131.7 35.9 131.7 35.9 Z M 111.2 43.2 C 113.5 42.5 109.1 44.6 111.2 43.2 C 111.2 43.2 111.2 43.2 111.2 43.2 Z M 151.6 32.9 C 151.6 33.0 151.6 33.0 151.6 32.9 C 151.6 32.9 151.6 32.9 151.6 32.9 Z M 141.0 31.3 C 139.9 32.0 140.3 31.1 141.0 31.3 C 141.0 31.3 141.0 31.3 141.0 31.3 Z M 156.2 27.3 C 155.1 27.9 155.6 27.0 156.2 27.3 C 156.2 27.3 156.2 27.3 156.2 27.3 Z M 108.5 44.1 C 117.4 42.9 97.6 48.2 108.5 44.1 C 108.5 44.1 108.5 44.1 108.5 44.1 Z M 132.9 34.5 C 132.9 34.6 132.9 34.6 132.9 34.5 C 132.9 34.5 132.9 34.5 132.9 34.5 Z M 116.7 39.1 C 116.7 39.2 116.7 39.2 116.7 39.1 C 116.7 39.1 116.7 39.1 116.7 39.1 Z M 114.6 41.4 C 114.6 41.5 114.6 41.5 114.6 41.4 C 114.6 41.4 114.6 41.4 114.6 41.4 Z M 117.4 46.4 C 117.4 46.4 117.4 46.4 117.4 46.4 C 117.4 46.4 117.4 46.4 117.4 46.4 Z M 117.4 43.6 C 117.3 43.8 117.3 43.8 117.4 43.6 C 117.4 43.6 117.4 43.6 117.4 43.6 Z M 112.5 46.6 C 112.5 46.7 112.5 46.7 112.5 46.6 C 112.5 46.6 112.5 46.6 112.5 46.6 Z M 112.9 47.3 C 112.9 47.3 112.9 47.3 112.9 47.3 C 112.9 47.3 112.9 47.3 112.9 47.3 Z M 146.3 32.1 C 146.3 32.2 146.3 32.2 146.3 32.1 C 146.3 32.1 146.3 32.1 146.3 32.1 Z M 143.8 35.2 C 145.7 33.8 143.5 36.6 143.8 35.2 C 143.8 35.2 143.8 35.2 143.8 35.2 Z M 125.3 39.8 C 127.1 38.9 124.4 40.9 125.3 39.8 C 125.3 39.8 125.3 39.8 125.3 39.8 Z M 128.3 42.0 C 128.4 42.0 128.4 42.0 128.3 42.0 C 128.3 42.0 128.3 42.0 128.3 42.0 Z M 114.1 40.1 C 114.1 40.2 114.1 40.2 114.1 40.1 C 114.1 40.1 114.1 40.1 114.1 40.1 Z M 111.3 42.3 C 111.6 43.5 110.1 42.2 111.3 42.3 M 127.7 35.4 C 127.7 35.5 127.7 35.5 127.7 35.4 C 127.7 35.4 127.7 35.4 127.7 35.4 Z M 139.3 33.7 C 139.3 33.8 139.3 33.8 139.3 33.7 C 139.3 33.7 139.3 33.7 139.3 33.7 Z M 150.6 29.9 C 150.6 30.1 150.6 30.1 150.6 29.9 C 150.6 29.9 150.6 29.9 150.6 29.9 Z M 134.6 33.3 C 134.6 33.5 134.6 33.5 134.6 33.3 C 134.6 33.3 134.6 33.3 134.6 33.3 Z M 129.7 36.0 C 129.7 36.2 129.7 36.2 129.7 36.0 C 129.7 36.0 129.7 36.0 129.7 36.0 Z M 153.6 30.9 C 153.5 31.0 153.5 31.0 153.6 30.9 C 153.6 30.9 153.6 30.9 153.6 30.9 Z M 135.8 32.8 C 135.8 32.8 135.8 32.8 135.8 32.8 C 135.8 32.8 135.8 32.8 135.8 32.8 Z M 140.1 35.5 C 140.0 35.6 140.0 35.6 140.1 35.5 C 140.1 35.5 140.1 35.5 140.1 35.5 Z M 111.1 40.5 C 111.0 40.6 111.0 40.6 111.1 40.5 C 111.1 40.5 111.1 40.5 111.1 40.5 Z M 153.3 29.3 C 153.3 29.4 153.3 29.4 153.3 29.3 C 153.3 29.3 153.3 29.3 153.3 29.3 Z M 153.8 28.1 C 153.8 28.2 153.8 28.2 153.8 28.1 C 153.8 28.1 153.8 28.1 153.8 28.1 Z M 147.0 35.7 C 142.8 36.1 150.5 34.5 147.2 34.0 C 153.0 32.2 147.8 35.5 147.0 35.7 C 147.0 35.7 147.0 35.7 147.0 35.7 Z M 159.4 26.4 C 157.3 28.5 157.7 30.0 159.1 31.4 C 160.4 32.0 159.7 28.8 160.3 31.5 C 157.8 32.6 162.4 35.3 161.6 31.8 C 165.0 30.6 162.6 33.9 164.4 32.1 C 168.1 31.0 166.4 32.4 169.3 31.6 C 170.7 29.4 171.2 32.2 171.6 30.3 C 170.5 32.5 174.8 29.2 175.0 30.0 C 172.5 31.7 185.6 28.3 178.2 28.9 C 181.0 27.5 180.7 29.2 181.8 29.3 C 182.9 28.0 186.9 29.5 188.6 28.1 C 188.2 27.9 187.2 28.0 186.9 27.6 C 186.2 26.9 189.0 27.5 188.7 27.5 C 189.9 26.9 194.7 25.0 189.7 27.8 C 189.6 28.8 194.0 26.8 193.9 27.7 C 198.6 27.1 194.8 25.6 197.1 26.8 C 200.4 26.5 202.9 26.2 202.8 26.0 C 204.9 26.0 205.4 27.0 207.2 25.8 C 211.6 27.5 209.8 21.5 211.8 25.5 C 212.9 24.4 214.3 27.0 213.9 24.5 C 212.5 25.7 221.4 25.9 217.4 24.3 C 218.4 23.6 224.2 26.5 223.2 24.0 C 225.1 22.0 224.7 20.1 220.2 18.6 C 220.7 20.0 215.4 17.4 218.9 19.7 C 222.7 20.2 212.1 21.1 214.3 20.0 C 214.6 16.9 209.4 22.3 207.0 20.3 C 208.9 21.4 200.5 22.8 202.8 20.3 C 201.2 20.3 200.9 21.4 199.1 20.3 C 204.1 19.9 197.5 22.8 197.6 21.4 C 198.4 20.5 191.0 20.7 191.9 21.8 C 194.8 24.6 189.9 21.4 188.8 22.8 C 185.0 24.0 189.1 20.1 186.5 22.8 C 185.6 22.5 180.4 23.3 183.6 22.1 C 184.9 22.3 181.0 26.0 180.1 23.4 C 185.4 21.1 173.7 23.7 175.6 24.2 C 184.3 24.2 167.1 27.3 173.4 24.8 C 169.4 24.0 174.3 24.0 169.9 25.4 C 170.7 26.1 167.3 27.6 167.8 25.8 C 166.6 23.5 167.2 29.3 163.8 26.5 C 163.1 25.1 158.7 28.7 160.2 26.7 C 160.3 26.5 159.5 26.4 159.4 26.4 M 161.0 26.3 C 160.6 27.0 159.9 25.9 161.0 26.3 M 160.5 27.0 C 160.5 27.0 160.5 27.0 160.5 27.0 C 160.5 27.0 160.5 27.0 160.5 27.0 Z M 169.2 25.7 C 169.2 25.6 169.2 25.6 169.2 25.7 C 169.2 25.7 169.2 25.7 169.2 25.7 Z M 177.3 30.7 C 177.2 30.6 177.2 30.6 177.3 30.7 C 177.3 30.7 177.3 30.7 177.3 30.7 Z M 175.2 24.7 C 175.1 24.7 175.1 24.7 175.2 24.7 C 175.2 24.7 175.2 24.7 175.2 24.7 Z M 166.2 26.7 C 166.1 26.7 166.1 26.7 166.2 26.7 C 166.2 26.7 166.2 26.7 166.2 26.7 Z M 174.5 23.9 C 175.1 24.8 172.3 23.6 174.5 23.8 C 174.6 23.8 174.2 23.9 174.5 23.9 M 182.2 22.3 C 182.3 22.4 182.3 22.4 182.2 22.3 M 201.0 27.4 C 201.0 27.5 201.0 27.5 201.0 27.4 M 201.7 19.7 C 201.9 19.8 201.9 19.8 201.7 19.7 M 190.3 22.1 C 192.8 21.7 191.0 22.5 190.3 22.1 M 208.5 19.6 C 205.2 19.3 212.0 18.8 208.5 19.6 M 211.6 18.8 C 211.9 18.9 211.9 18.9 211.6 18.8 M 197.1 20.6 C 197.0 20.7 197.0 20.7 197.1 20.6 C 197.1 20.6 197.1 20.6 197.1 20.6 Z M 189.3 21.9 C 186.0 21.8 192.4 20.6 189.3 21.9 M 170.1 24.6 C 171.7 23.8 170.3 25.8 170.1 24.6 M 166.8 25.7 C 166.7 25.8 166.7 25.8 166.8 25.7 C 166.8 25.7 166.8 25.7 166.8 25.7 Z M 203.3 20.1 C 203.2 20.1 203.2 20.1 203.3 20.1 C 203.3 20.1 203.3 20.1 203.3 20.1 Z M 207.0 19.5 C 206.9 19.6 206.9 19.6 207.0 19.5 C 207.0 19.5 207.0 19.5 207.0 19.5 Z M 213.9 25.9 C 213.7 25.9 213.7 25.9 213.9 25.9 C 213.9 25.9 213.9 25.9 213.9 25.9 Z M 169.8 28.1 C 167.5 28.1 171.7 25.4 171.6 27.2 C 172.0 27.8 170.1 27.9 169.8 28.1 M 187.2 24.3 C 188.1 26.5 184.4 21.4 187.2 24.3 M 212.3 20.3 C 215.0 22.9 208.9 18.6 212.3 20.3 M 217.4 19.4 C 219.0 19.9 207.7 20.5 215.5 19.1 C 216.3 18.6 216.9 19.1 217.4 19.4 M 182.5 23.4 C 183.4 24.6 178.7 23.4 182.5 23.4 M 197.8 25.3 C 198.9 24.4 202.0 23.3 200.8 24.9 C 200.9 26.7 196.5 26.2 197.8 25.3 M 162.0 27.5 C 163.4 25.1 162.3 29.3 162.0 27.5 M 170.8 26.0 C 170.8 25.9 170.8 25.9 170.8 26.0 C 170.8 26.0 170.8 26.0 170.8 26.0 Z M 174.3 25.0 C 174.5 25.1 174.5 25.1 174.3 25.0 M 163.0 25.4 C 163.2 25.5 163.2 25.5 163.0 25.4 M 197.5 23.2 C 197.7 23.3 197.7 23.3 197.5 23.2 M 189.7 22.7 C 193.6 24.3 187.8 23.4 189.7 22.7 M 181.6 28.0 C 182.8 28.8 179.4 28.4 181.6 28.0 M 195.6 21.2 C 198.4 22.9 192.3 23.5 195.6 21.2 M 187.9 22.8 C 188.1 22.8 188.1 22.8 187.9 22.8 C 187.9 22.8 187.9 22.8 187.9 22.8 Z M 198.8 25.5 C 198.8 25.5 198.8 25.5 198.8 25.5 C 198.8 25.5 198.8 25.5 198.8 25.5 Z M 199.9 25.2 C 199.8 25.3 199.8 25.3 199.9 25.2 C 199.9 25.2 199.9 25.2 199.9 25.2 Z M 198.8 20.6 C 198.7 20.7 198.7 20.7 198.8 20.6 C 198.8 20.6 198.8 20.6 198.8 20.6 Z M 167.6 31.1 C 170.0 30.8 165.8 31.8 167.6 31.1 C 167.6 31.1 167.6 31.1 167.6 31.1 Z M 177.3 23.5 C 181.7 24.3 174.7 25.4 177.3 23.5 C 177.3 23.5 177.3 23.5 177.3 23.5 Z M 182.4 25.3 C 182.4 25.4 182.4 25.4 182.4 25.3 C 182.4 25.3 182.4 25.3 182.4 25.3 Z M 193.8 20.2 C 193.8 20.3 193.8 20.3 193.8 20.2 C 193.8 20.2 193.8 20.2 193.8 20.2 Z M 168.8 31.1 C 168.8 31.3 168.8 31.3 168.8 31.1 C 168.8 31.1 168.8 31.1 168.8 31.1 Z M 206.5 20.9 C 206.5 21.0 206.5 21.0 206.5 20.9 C 206.5 20.9 206.5 20.9 206.5 20.9 Z M 191.9 26.6 C 192.7 25.7 192.2 27.2 191.9 26.6 C 191.9 26.6 191.9 26.6 191.9 26.6 Z M 195.7 26.1 C 195.8 26.1 195.8 26.1 195.7 26.1 C 195.7 26.1 195.7 26.1 195.7 26.1 Z M 212.6 18.6 C 212.8 18.5 212.8 18.5 212.6 18.6 C 212.6 18.6 212.6 18.6 212.6 18.6 Z M 205.8 26.9 C 205.9 26.9 205.9 26.9 205.8 26.9 C 205.8 26.9 205.8 26.9 205.8 26.9 Z M 208.9 24.3 C 208.9 24.3 208.9 24.3 208.9 24.3 C 208.9 24.3 208.9 24.3 208.9 24.3 Z M 198.2 21.2 C 202.0 20.4 197.4 22.2 198.2 21.2 C 198.2 21.2 198.2 21.2 198.2 21.2 Z M 218.9 22.9 C 219.0 23.0 219.0 23.0 218.9 22.9 C 218.9 22.9 218.9 22.9 218.9 22.9 Z M 220.8 20.0 C 220.9 20.2 220.9 20.2 220.8 20.0 C 220.8 20.0 220.8 20.0 220.8 20.0 Z M 221.7 18.5 C 221.9 18.7 221.9 18.7 221.7 18.5 C 221.7 18.5 221.7 18.5 221.7 18.5 Z M 174.7 27.9 C 174.6 27.8 174.6 27.8 174.7 27.9 C 174.7 27.9 174.7 27.9 174.7 27.9 Z M 172.5 23.8 C 172.5 23.8 172.5 23.8 172.5 23.8 C 172.5 23.8 172.5 23.8 172.5 23.8 Z M 177.5 22.7 C 177.4 22.7 177.4 22.7 177.5 22.7 C 177.5 22.7 177.5 22.7 177.5 22.7 Z M 174.3 30.6 C 174.2 30.6 174.2 30.6 174.3 30.6 C 174.3 30.6 174.3 30.6 174.3 30.6 Z M 192.6 24.1 C 192.5 24.0 192.5 24.0 192.6 24.1 C 192.6 24.1 192.6 24.1 192.6 24.1 Z M 194.7 25.6 C 194.6 25.6 194.6 25.6 194.7 25.6 C 194.7 25.6 194.7 25.6 194.7 25.6 Z M 190.5 28.5 C 190.5 28.5 190.5 28.5 190.5 28.5 C 190.5 28.5 190.5 28.5 190.5 28.5 Z M 196.3 27.0 C 196.2 27.0 196.2 27.0 196.3 27.0 C 196.3 27.0 196.3 27.0 196.3 27.0 Z M 162.1 32.2 C 162.1 32.2 162.1 32.2 162.1 32.2 C 162.1 32.2 162.1 32.2 162.1 32.2 Z M 161.0 29.0 C 161.0 29.1 161.0 29.1 161.0 29.0 C 161.0 29.0 161.0 29.0 161.0 29.0 Z M 192.9 21.6 C 193.7 20.8 194.8 22.3 192.9 21.6 M 185.6 23.0 C 185.5 23.1 185.5 23.1 185.6 23.0 C 185.6 23.0 185.6 23.0 185.6 23.0 Z M 205.7 20.3 C 206.8 21.6 202.0 20.0 205.7 20.3 C 205.7 20.3 205.7 20.3 205.7 20.3 Z M 202.2 26.3 C 202.3 26.3 202.3 26.3 202.2 26.3 C 202.2 26.3 202.2 26.3 202.2 26.3 Z M 204.2 25.5 C 204.3 25.7 204.3 25.7 204.2 25.5 C 204.2 25.5 204.2 25.5 204.2 25.5 Z M 215.0 21.0 C 215.3 21.1 215.3 21.1 215.0 21.0 M 184.5 22.0 C 185.7 22.4 185.4 22.3 184.5 22.0 M 208.3 20.1 C 208.2 20.2 208.2 20.2 208.3 20.1 C 208.3 20.1 208.3 20.1 208.3 20.1 Z M 217.5 20.0 C 217.4 20.1 217.4 20.1 217.5 20.0 C 217.5 20.0 217.5 20.0 217.5 20.0 Z M 179.4 23.7 C 179.9 25.2 178.8 25.0 179.4 23.7 M 165.5 26.7 C 165.5 26.8 165.5 26.8 165.5 26.7 C 165.5 26.7 165.5 26.7 165.5 26.7 Z M 165.5 26.7 " fill="#EEEEEE"></path><path d="M 237.2 24.7 C 235.1 24.0 237.3 20.6 235.3 19.9 C 233.2 19.3 236.5 17.4 238.3 16.6 C 238.4 16.5 238.5 16.5 238.6 16.4 C 239.0 16.4 239.5 16.4 239.9 16.4 C 239.0 16.4 240.7 15.2 240.1 14.6 C 240.1 14.4 238.8 14.4 238.7 14.3 C 238.2 13.6 237.7 13.3 236.8 12.6 C 236.7 12.5 236.6 12.3 236.6 12.2 C 236.5 12.1 236.4 12.1 236.4 12.0 C 236.2 11.8 236.7 10.5 236.4 10.2 C 236.4 10.2 235.4 9.8 235.3 9.7 C 235.1 9.4 235.1 10.6 234.9 10.3 C 234.9 10.2 234.7 9.8 234.6 9.6 C 234.4 9.1 234.2 9.1 233.7 8.7 C 233.6 8.6 233.5 8.5 233.4 8.4 C 232.5 8.4 232.1 7.2 231.6 6.4 C 231.6 6.3 231.2 4.0 231.1 3.9 C 231.0 3.8 230.9 3.8 230.8 3.7 C 230.8 3.6 230.8 3.4 230.9 3.3 C 231.0 2.9 231.8 2.8 232.2 3.2 C 232.6 3.7 230.0 1.8 230.5 1.5 C 231.5 0.9 231.4 1.9 231.8 2.4 C 232.5 2.8 233.4 1.8 234.0 2.9 C 234.2 3.2 235.2 5.6 235.8 5.1 C 235.5 4.4 235.1 4.9 235.5 4.1 C 235.9 3.4 236.6 4.5 236.9 4.7 C 237.3 5.0 237.6 4.6 237.8 4.7 C 238.6 5.1 239.5 5.2 240.1 5.8 C 240.3 5.9 240.2 8.9 241.4 7.5 C 241.9 6.9 242.1 6.6 242.7 7.3 C 242.8 7.4 242.9 7.6 242.9 7.8 C 242.9 7.9 242.9 8.1 242.8 8.3 C 242.9 8.4 243.0 8.4 243.1 8.5 C 243.5 8.7 243.8 8.9 244.1 9.2 C 244.1 8.9 244.2 8.8 244.3 8.6 C 245.0 9.3 245.5 10.4 246.4 11.0 C 247.1 11.5 245.6 10.0 246.2 9.2 C 246.7 9.4 248.7 10.8 249.0 11.3 C 249.5 11.6 247.6 12.0 247.8 12.7 C 248.0 13.2 249.5 12.8 249.4 13.5 C 249.4 13.7 250.6 14.0 250.9 14.2 C 251.0 14.3 251.8 13.5 252.0 13.5 C 252.2 13.5 252.4 13.5 252.6 13.5 C 252.7 13.6 252.9 13.6 253.1 14.0 C 253.1 14.1 252.9 15.0 252.9 15.2 C 252.9 14.9 253.5 14.8 253.5 14.7 C 254.0 14.5 254.7 14.8 254.8 15.1 C 254.8 15.2 255.0 15.5 255.0 15.6 C 255.8 16.2 254.9 16.0 255.8 16.5 C 256.1 16.7 256.5 16.8 257.0 16.8 L 258.9 18.2 C 258.9 18.4 259.9 19.2 260.0 19.2 C 262.2 20.7 259.1 21.5 258.9 21.7 C 258.9 21.8 258.2 22.5 258.1 22.6 C 257.3 23.0 256.4 23.5 256.0 24.2 C 255.9 24.3 255.5 24.6 255.4 24.7 C 257.5 20.8 251.1 27.3 253.6 26.8 C 253.7 26.8 253.6 27.0 253.6 27.1 C 253.5 27.2 253.0 27.4 252.9 27.4 C 252.6 27.6 252.7 27.2 252.2 27.4 C 251.7 27.8 251.4 27.9 250.8 28.0 C 250.2 28.2 251.1 28.5 249.7 29.7 C 251.9 24.5 248.3 27.2 246.8 28.5 C 246.2 29.0 247.9 30.4 247.4 30.8 C 244.8 32.6 246.2 30.2 246.2 29.8 C 245.9 30.2 246.0 29.0 244.2 31.0 C 244.0 31.3 243.9 32.1 243.8 32.2 C 243.4 32.7 242.5 33.3 241.8 33.4 C 241.1 33.4 240.3 32.6 239.7 33.0 C 239.1 33.4 239.4 33.9 239.7 34.7 C 239.5 34.8 237.3 35.2 237.4 35.6 C 237.6 35.6 237.7 35.6 237.8 35.5 L 237.9 35.7 C 237.4 35.9 237.7 36.4 237.4 36.5 L 236.4 37.1 C 236.1 37.3 236.7 34.4 236.4 34.6 C 229.2 37.8 235.0 37.4 234.7 37.6 C 234.7 37.7 234.2 37.7 233.7 37.8 C 233.5 37.8 233.4 37.8 233.2 37.8 C 232.7 38.4 232.0 38.7 231.2 38.8 C 231.0 38.8 230.8 38.8 230.7 38.8 C 230.1 38.8 229.4 38.8 229.4 38.4 C 229.8 37.0 230.6 36.5 231.4 35.6 C 231.5 35.5 231.5 35.4 231.6 35.3 C 232.0 34.9 232.3 34.5 232.5 33.9 C 232.6 33.8 232.7 33.6 232.8 33.5 C 233.5 32.5 234.0 31.3 234.4 30.2 C 234.4 30.0 235.6 30.1 235.6 29.9 C 235.8 29.6 234.9 29.1 235.3 29.1 C 235.4 29.0 237.0 28.3 237.1 28.2 C 237.5 27.9 236.4 28.2 236.7 27.9 C 236.9 27.8 237.0 27.7 237.1 27.6 C 237.3 26.4 240.3 26.3 239.4 24.9 C 237.2 24.4 239.2 25.3 237.2 24.7 Z M 230.3 4.5 C 230.6 4.4 230.6 4.4 230.5 4.8 C 230.4 4.6 230.3 4.4 230.3 4.5 Z M 231.7 4.5 C 231.9 4.5 232.0 4.6 232.2 4.7 C 232.8 4.6 232.9 5.1 232.9 5.6 C 232.9 5.7 233.0 6.4 233.0 6.6 C 233.0 7.3 232.8 7.5 233.0 7.3 C 233.0 7.2 233.1 7.6 233.5 7.6 C 233.7 7.7 233.5 7.3 233.5 7.2 C 233.5 7.1 234.2 7.0 234.2 6.8 C 234.2 6.7 233.4 6.4 233.4 6.2 C 233.4 6.1 233.4 5.2 233.4 5.1 C 233.3 5.1 232.4 4.2 232.0 4.6 C 231.9 4.5 231.8 4.5 231.7 4.5 Z M 238.7 9.8 C 239.0 10.3 239.1 10.7 239.2 11.1 C 239.2 11.2 239.2 11.4 239.2 11.5 C 239.2 11.7 239.1 11.9 239.2 12.1 C 239.3 12.2 239.6 11.9 239.5 12.1 C 239.5 11.8 239.5 11.5 239.5 11.6 C 239.6 11.5 239.6 11.3 239.7 11.2 C 240.0 10.6 239.8 10.0 238.8 9.6 C 238.7 9.6 238.6 9.6 238.7 9.8 Z M 234.9 5.5 C 234.8 8.2 235.3 8.2 235.3 5.6 C 235.2 5.5 235.1 5.5 234.9 5.5 Z M 235.8 10.9 C 235.6 10.9 235.4 10.7 235.3 10.8 C 235.4 10.9 235.7 11.5 235.8 11.2 C 235.7 11.0 235.6 11.2 235.8 10.9 Z M 237.8 9.0 C 238.5 9.1 238.5 9.1 238.8 9.0 C 239.1 9.0 239.2 9.0 239.2 9.0 C 239.2 8.9 238.9 8.8 238.6 8.8 C 238.4 8.8 238.1 8.8 238.1 8.8 C 238.0 8.8 237.9 8.9 237.8 9.0 Z M 238.9 7.4 C 238.7 7.2 238.4 7.0 238.1 6.9 C 237.7 7.6 238.7 8.1 239.2 7.9 C 239.2 7.7 239.0 7.5 238.9 7.4 Z M 237.9 13.0 C 238.1 13.2 239.0 13.6 239.0 14.0 C 240.0 14.0 239.9 13.6 239.9 12.7 C 239.4 13.6 237.9 12.1 236.9 11.1 C 236.9 11.0 238.0 13.0 237.9 13.0 Z M 241.8 9.7 C 241.7 10.0 241.6 10.2 241.4 10.5 C 241.3 10.6 241.2 10.8 241.1 10.9 C 241.0 11.0 240.9 11.1 240.9 11.2 C 240.9 11.4 240.8 11.5 240.8 11.6 C 241.2 12.3 240.3 13.2 241.3 13.6 C 241.2 13.2 241.2 13.2 241.2 12.6 C 241.2 12.5 241.2 12.4 241.2 12.3 C 241.2 12.2 241.2 12.1 241.2 11.9 C 241.2 11.8 241.3 11.7 241.3 11.6 C 241.4 11.5 241.4 11.3 241.4 11.1 C 241.5 11.0 241.5 10.8 241.5 10.7 C 241.6 10.4 241.8 10.2 242.0 10.1 C 241.9 10.0 241.8 9.9 241.8 9.7 Z M 251.5 18.1 C 251.2 18.2 251.3 18.3 251.5 18.3 C 251.6 18.3 251.8 18.3 251.9 18.3 C 252.0 18.3 252.1 18.2 252.2 18.1 C 252.1 18.1 252.0 18.0 251.9 18.0 C 251.7 18.0 251.6 18.0 251.5 18.1 Z M 254.8 19.8 C 254.9 19.8 255.1 19.9 255.3 19.9 C 255.5 19.9 255.7 19.8 255.8 19.8 C 255.9 19.8 256.0 19.7 256.2 19.7 C 256.3 19.7 256.4 19.7 256.5 19.7 C 257.3 19.8 256.8 20.3 257.7 19.4 C 256.8 19.4 256.9 18.3 256.3 19.3 C 256.2 19.4 256.0 19.3 255.9 19.2 C 255.8 19.2 255.7 19.2 255.6 19.2 C 255.5 19.1 255.5 19.0 255.3 19.0 L 255.3 19.0 C 255.0 18.8 254.5 19.5 254.8 19.8 Z M 254.5 16.2 C 249.5 16.3 251.8 16.7 254.3 16.5 C 254.4 16.4 254.5 16.3 254.5 16.2 Z M 253.5 22.1 C 253.6 22.0 253.6 21.9 253.8 21.9 L 253.9 21.9 C 253.7 21.7 253.8 21.5 253.5 21.5 C 253.1 21.5 253.2 21.8 252.9 22.0 C 252.8 22.0 252.1 22.2 252.3 22.4 C 252.6 22.4 253.2 22.4 253.5 22.1 Z M 252.6 24.1 C 252.3 23.8 251.6 24.3 251.5 24.6 C 251.7 24.4 252.8 24.3 252.6 24.1 Z M 251.1 20.7 C 251.3 20.7 251.5 20.7 251.6 20.6 C 251.7 20.5 251.7 20.3 251.9 20.3 L 251.9 20.4 C 251.7 20.2 251.7 20.0 251.4 20.1 C 251.2 20.2 251.3 20.4 251.1 20.5 C 251.0 20.6 250.8 20.5 250.7 20.6 C 250.8 20.8 250.9 20.7 251.1 20.7 Z M 247.8 14.9 C 247.8 15.0 247.8 15.1 247.9 15.2 C 247.9 15.2 248.0 15.2 248.2 15.2 C 248.2 15.2 248.1 15.0 248.0 14.9 C 248.0 14.7 247.8 14.7 247.8 14.9 Z M 247.8 15.6 C 248.1 16.4 248.5 16.5 249.2 16.6 C 248.8 16.2 248.3 15.8 247.8 15.6 Z M 248.1 18.8 C 248.2 18.8 248.5 18.7 248.7 18.6 C 248.6 18.5 248.5 18.5 248.3 18.4 C 248.2 18.4 248.1 18.5 248.1 18.8 Z M 248.9 12.4 C 248.8 12.4 248.7 12.5 248.7 12.6 C 248.8 12.6 248.9 12.6 249.0 12.7 C 249.0 12.6 249.0 12.5 248.9 12.4 Z M 251.2 13.2 C 250.8 13.0 250.4 12.9 250.1 12.8 L 249.5 12.7 C 249.9 13.3 250.5 13.4 250.8 13.5 C 251.0 13.7 251.2 13.5 251.2 13.2 Z M 250.2 15.0 C 250.2 14.6 250.0 14.3 249.5 14.6 C 249.7 14.7 250.0 14.9 250.2 15.0 Z M 249.1 29.1 C 248.9 29.1 248.3 29.6 248.2 29.7 C 248.8 30.0 249.3 29.0 249.1 29.1 Z M 252.1 27.1 C 252.1 26.6 251.5 26.3 251.1 26.6 C 251.1 27.5 251.5 27.4 252.1 27.1 Z M 248.6 25.4 C 248.7 25.4 249.2 25.3 249.3 25.2 C 248.8 25.1 248.6 25.3 248.2 25.3 C 248.6 25.3 248.7 25.3 248.6 25.4 Z M 248.8 24.1 C 249.0 23.9 249.3 23.9 249.6 23.8 C 249.1 23.8 248.6 23.7 248.2 23.6 C 248.1 23.7 248.0 23.8 248.0 24.0 C 247.6 24.4 248.6 24.1 248.8 24.1 Z M 232.8 36.1 C 233.0 35.9 233.2 35.8 233.4 35.6 C 233.7 35.2 234.0 34.8 233.7 34.2 C 233.7 34.7 233.7 35.1 233.2 35.3 C 233.1 35.3 233.0 35.4 232.9 35.6 C 232.9 35.7 232.8 35.9 232.8 36.1 Z M 234.2 32.2 C 233.7 32.9 233.3 32.9 233.3 33.8 C 234.2 33.3 234.2 32.4 234.4 31.9 C 234.3 32.0 234.2 32.1 234.2 32.2 Z M 234.3 33.7 C 234.7 33.3 234.7 33.9 235.0 33.6 C 234.9 33.3 234.8 33.3 234.5 33.5 C 234.4 33.5 234.3 33.6 234.3 33.7 Z M 235.4 31.0 C 236.0 31.5 234.6 31.9 235.5 32.4 C 235.5 31.9 235.5 31.5 235.5 31.2 C 235.5 31.1 235.4 31.0 235.4 31.0 Z M 243.0 9.4 C 243.1 12.2 243.5 12.2 243.4 9.6 C 243.2 9.5 243.0 9.4 243.0 9.4 Z M 241.3 15.6 C 242.4 15.8 240.7 15.5 242.1 15.5 C 242.2 15.5 242.3 16.1 242.4 16.1 C 242.3 16.1 242.3 16.5 241.9 16.5 C 240.3 16.3 241.4 16.9 240.3 15.7 C 240.3 15.7 241.3 15.6 241.3 15.6 Z M 245.0 11.9 C 245.0 12.0 245.0 12.0 245.1 12.0 C 245.4 12.2 245.7 12.2 246.0 12.3 C 245.7 12.1 245.3 11.9 245.0 11.9 Z M 245.9 20.3 C 246.0 20.4 246.2 20.5 246.4 20.5 C 246.4 20.3 246.0 20.3 245.9 20.3 Z M 254.6 25.8 C 254.7 25.8 254.8 25.7 254.8 25.6 C 254.8 25.6 254.7 25.6 254.6 25.5 C 254.6 25.7 254.6 25.8 254.6 25.8 Z M 246.9 13.3 C 246.9 13.2 246.9 13.1 246.9 13.1 C 246.9 12.9 246.7 12.7 246.6 12.7 C 246.5 12.6 246.4 12.6 246.3 12.6 C 246.3 13.1 246.3 13.1 246.5 13.3 C 246.6 13.3 246.8 13.3 246.9 13.3 Z M 238.1 26.2 C 238.1 26.1 238.2 26.0 238.2 25.9 C 238.1 25.7 238.0 25.6 237.8 25.5 C 237.7 25.5 237.6 25.5 237.5 25.5 C 237.5 26.0 237.5 26.0 237.8 26.1 C 237.9 26.2 238.0 26.2 238.1 26.2 Z M 230.3 2.9 C 230.4 2.7 230.5 2.5 230.4 2.3 C 230.4 2.0 230.1 1.7 229.7 1.5 C 229.5 1.5 229.3 1.4 229.1 1.5 C 229.1 2.4 229.1 2.4 229.7 2.8 C 229.9 2.9 230.1 2.9 230.3 2.9 Z M 241.6 6.6 C 241.7 6.5 241.7 6.4 241.7 6.3 C 241.6 6.1 241.5 6.0 241.3 5.9 C 241.2 5.9 241.1 5.9 241.0 5.9 C 241.0 6.3 241.0 6.3 241.3 6.5 C 241.4 6.6 241.5 6.6 241.6 6.6 Z M 248.4 28.6 C 248.6 28.4 249.4 27.6 249.2 27.4 C 248.9 27.5 247.5 28.6 247.3 28.7 C 247.5 29.0 248.1 28.5 248.4 28.6 Z M 244.6 26.8 C 245.4 26.3 245.7 26.3 245.4 25.2 C 245.1 25.3 244.8 25.4 244.5 25.6 C 244.3 25.8 244.0 26.0 243.8 26.2 C 243.7 26.8 243.7 26.8 243.6 27.1 C 243.8 27.2 244.0 27.2 244.2 27.1 C 244.3 27.0 244.5 26.8 244.6 26.8 Z M 235.4 36.4 C 235.8 36.1 236.1 36.1 235.9 35.4 C 235.7 35.4 235.5 35.5 235.4 35.6 C 235.2 35.8 235.0 35.9 234.9 36.0 C 234.9 36.4 234.9 36.4 234.8 36.6 C 234.9 36.7 235.0 36.7 235.1 36.6 C 235.2 36.5 235.3 36.4 235.4 36.4 Z M 245.3 24.9 C 245.2 24.7 245.0 24.7 244.7 25.0 C 244.9 25.0 245.1 25.0 245.3 24.9 Z M 241.0 24.4 C 241.2 24.2 241.3 24.0 241.4 23.8 C 240.4 23.4 239.3 23.8 238.5 23.9 C 239.3 24.3 240.2 24.2 241.0 24.4 Z M 244.3 18.7 C 244.1 19.1 243.1 18.2 242.8 19.1 C 242.9 19.1 243.0 19.2 243.1 19.2 C 243.4 19.2 243.7 19.2 244.0 19.0 C 244.1 18.9 244.2 18.8 244.3 18.7 Z M 245.9 32.0 C 245.7 32.3 244.7 31.4 244.5 32.4 C 244.6 32.4 244.7 32.4 244.8 32.4 C 245.1 32.5 245.3 32.5 245.6 32.3 C 245.7 32.2 245.8 32.1 245.9 32.0 Z M 242.2 31.0 C 242.5 31.0 242.6 30.7 242.6 30.5 C 242.7 30.2 242.7 30.0 242.7 29.9 C 242.3 30.0 241.9 30.0 241.9 30.3 C 241.8 30.4 241.7 30.4 241.6 30.6 C 241.5 30.7 241.4 30.9 241.4 31.1 C 241.8 31.1 241.8 31.2 242.2 31.0 Z M 240.7 33.8 C 240.5 33.7 240.0 33.4 240.0 33.9 C 239.9 34.1 240.6 33.8 240.7 33.8 Z M 239.1 32.8 C 239.0 32.8 238.7 32.7 238.4 32.8 C 238.3 33.0 239.1 33.3 239.1 32.8 Z M 239.1 30.5 C 238.9 30.6 238.7 30.6 238.5 30.6 C 238.7 30.8 239.0 30.7 239.1 30.5 Z M 236.9 29.7 C 236.4 29.6 236.4 29.6 236.2 30.1 C 236.2 30.3 236.2 30.4 236.2 30.6 C 236.3 31.0 236.4 31.5 236.0 31.5 C 236.4 31.9 236.9 31.0 237.3 31.0 C 237.3 30.7 237.3 30.3 237.2 30.0 C 237.1 29.9 237.1 29.9 237.0 29.8 C 237.0 29.8 236.9 29.8 236.9 29.7 Z M 237.5 33.8 L 237.7 33.6 C 238.0 33.5 238.3 33.3 238.1 33.0 C 237.9 33.1 237.5 33.6 237.5 33.8 Z M 237.5 29.5 C 237.8 29.6 237.8 29.6 238.3 29.6 C 238.5 29.6 238.6 29.6 238.7 29.6 C 239.4 29.5 239.9 29.2 240.5 28.7 C 239.9 28.4 239.4 28.8 238.8 29.2 C 238.7 29.3 238.6 29.3 238.4 29.4 C 238.2 29.6 237.8 29.6 237.8 29.5 C 237.7 29.5 237.6 29.5 237.5 29.5 Z M 239.2 28.1 C 239.3 28.1 239.5 28.1 239.7 28.1 C 240.3 28.0 240.8 27.8 239.7 27.8 C 239.6 27.8 239.4 27.8 239.2 27.8 C 239.1 27.9 239.0 28.0 239.2 28.1 Z M 240.8 28.5 C 241.1 28.6 241.4 28.6 241.6 28.7 C 241.8 28.7 241.9 28.8 241.9 29.0 C 242.0 29.1 242.2 29.2 242.4 29.2 C 242.5 29.1 242.7 29.0 242.8 28.7 C 242.4 29.0 242.1 28.3 241.7 28.2 C 241.6 28.2 241.5 28.2 241.3 28.4 C 241.1 28.4 240.9 28.4 240.8 28.5 Z M 243.0 21.0 C 242.6 20.6 242.4 19.3 241.8 20.1 C 242.0 20.5 242.4 21.0 243.0 21.0 Z M 240.2 18.4 C 240.3 18.5 240.4 18.6 240.4 18.7 C 240.4 18.7 240.3 18.8 240.3 19.0 C 240.3 19.1 240.4 19.1 240.5 19.2 C 240.7 19.3 241.1 19.3 241.3 19.1 C 241.5 18.9 241.2 18.9 240.8 18.8 C 240.7 18.8 240.5 18.8 240.3 18.7 C 240.2 18.7 240.2 18.6 240.2 18.4 L 240.2 18.4 Z M 239.8 21.8 C 239.9 21.7 240.0 21.5 240.1 21.4 C 240.2 21.3 240.3 21.2 240.4 21.0 C 240.3 20.9 240.1 20.8 239.9 20.8 C 239.7 20.8 239.4 20.9 239.3 20.8 C 239.0 20.9 238.6 20.9 238.1 21.2 C 238.0 21.2 238.0 21.3 238.0 21.4 C 237.9 21.5 237.9 21.6 237.8 21.8 C 238.0 21.8 238.3 21.8 238.6 21.9 C 238.9 21.9 239.2 21.9 239.3 21.8 C 239.5 21.8 239.6 21.8 239.8 21.8 Z M 238.3 22.3 C 238.2 22.2 238.0 22.1 237.8 22.1 C 237.7 22.4 237.9 22.4 238.3 22.3 Z M 238.4 19.3 C 238.6 19.1 238.1 19.1 237.9 19.2 C 238.1 19.3 238.2 19.3 238.4 19.3 Z M 236.7 23.4 C 237.6 23.3 237.2 22.6 237.0 22.5 C 236.9 22.6 236.7 23.2 236.7 23.4 Z M 236.7 23.4 " fill="#EEEEEE"></path></g></svg>