<?xml version="1.0" encoding="UTF-8" standalone="no"?><svg xmlns="http://www.w3.org/2000/svg" xmlns:xlink="http://www.w3.org/1999/xlink" clip-rule="evenodd" stroke-miterlimit="10" viewBox="0 0 85 73"><desc>SVG generated by Keynote</desc><defs></defs><g transform="matrix(1.00, 0.00, -0.00, -1.00, 0.0, 73.0)"><image xlink:href="1987E92A0DD4EA3F43AB1534FDFBBF64.png" width="78.00" height="29.00" transform="matrix(1.00, 0.00, -0.00, -1.00, 4.0, 72.0)"></image><text xml:space="preserve" font-family="Chalkboard,Chalkboard" font-size="30.0" fill="#FEFFFE" transform="matrix(1.00, 0.00, -0.00, -1.00, 6.4, 48.7)">C</text><text xml:space="preserve" font-family="Chalkboard,Chalkboard" font-size="30.0" fill="#FEFFFE" transform="matrix(1.00, 0.00, -0.00, -1.00, 24.0, 48.7)">l</text><text xml:space="preserve" font-family="Chalkboard,Chalkboard" font-size="30.0" fill="#FEFFFE" transform="matrix(1.00, 0.00, -0.00, -1.00, 31.9, 48.7)">o</text><text xml:space="preserve" font-family="Chalkboard,Chalkboard" font-size="30.0" fill="#FEFFFE" transform="matrix(1.00, 0.00, -0.00, -1.00, 47.3, 48.7)">n</text><text xml:space="preserve" font-family="Chalkboard,Chalkboard" font-size="30.0" fill="#FEFFFE" transform="matrix(1.00, 0.00, -0.00, -1.00, 63.0, 48.7)">e</text><text xml:space="preserve" font-family="Chalkboard,Chalkboard" font-size="30.0" fill="#FEFFFE" transform="matrix(1.00, 0.00, -0.00, -1.00, 78.8, 48.7)">
</text><text xml:space="preserve" font-family="Chalkboard,Chalkboard" font-size="30.0" fill="#FEFFFE" transform="matrix(1.00, 0.00, -0.00, -1.00, 78.8, 48.7)"></text><image xlink:href="A88A97A59882D5B77E834ACD170C5E93.png" width="82.00" height="35.00" transform="matrix(1.00, 0.00, -0.00, -1.00, 2.0, 37.0)"></image><text xml:space="preserve" font-family="Chalkboard,Chalkboard" font-size="30.0" fill="#FEFFFE" transform="matrix(1.00, 0.00, -0.00, -1.00, 4.1, 11.7)">(</text><text xml:space="preserve" font-family="Chalkboard,Chalkboard" font-size="30.0" fill="#FEFFFE" transform="matrix(1.00, 0.00, -0.00, -1.00, 12.3, 11.7)">o</text><text xml:space="preserve" font-family="Chalkboard,Chalkboard" font-size="30.0" fill="#FEFFFE" transform="matrix(1.00, 0.00, -0.00, -1.00, 27.7, 11.7)">n</text><text xml:space="preserve" font-family="Chalkboard,Chalkboard" font-size="30.0" fill="#FEFFFE" transform="matrix(1.00, 0.00, -0.00, -1.00, 43.1, 11.7)">c</text><text xml:space="preserve" font-family="Chalkboard,Chalkboard" font-size="30.0" fill="#FEFFFE" transform="matrix(1.00, 0.00, -0.00, -1.00, 57.1, 11.7)">e</text><text xml:space="preserve" font-family="Chalkboard,Chalkboard" font-size="30.0" fill="#FEFFFE" transform="matrix(1.00, 0.00, -0.00, -1.00, 71.8, 11.7)">)</text></g></svg>