<?xml version="1.0" encoding="UTF-8" standalone="no"?><svg xmlns="http://www.w3.org/2000/svg" xmlns:xlink="http://www.w3.org/1999/xlink" clip-rule="evenodd" stroke-miterlimit="10" viewBox="0 0 88 225"><desc>SVG generated by Keynote</desc><defs></defs><g transform="matrix(1.00, 0.00, -0.00, -1.00, 0.0, 225.0)"><path d="M 50.6 196.6 C 51.0 196.8 51.7 197.8 52.1 197.9 M 50.6 196.6 C 50.4 198.5 51.9 200.0 54.0 202.2 C 56.4 204.3 54.8 201.1 55.5 200.9 C 59.0 203.2 58.4 204.0 56.9 204.8 C 58.8 205.0 61.4 209.6 61.8 207.4 C 56.5 203.0 65.9 210.2 62.2 205.6 C 61.9 205.0 63.5 205.6 64.0 206.0 C 63.0 204.2 66.1 205.5 64.2 203.1 C 64.7 201.9 64.7 202.7 63.9 200.7 C 63.3 200.0 63.3 200.6 63.2 200.9 C 62.0 201.8 61.9 198.8 60.2 198.5 C 60.4 196.1 57.8 196.8 58.2 198.2 C 57.3 197.2 57.4 194.6 55.5 194.7 C 55.5 193.5 52.4 191.5 53.2 193.8 C 53.9 195.5 52.2 194.7 51.7 194.9 C 51.8 195.5 53.9 196.6 53.9 197.1 C 53.2 196.9 50.6 195.4 52.9 197.5 C 51.7 197.3 52.6 198.6 50.6 196.6 C 50.6 196.6 50.6 196.6 50.6 196.6 Z M 58.3 204.9 C 58.0 205.3 57.5 204.2 58.3 204.9 C 58.3 204.9 58.3 204.9 58.3 204.9 Z M 57.0 194.8 C 56.7 195.1 56.2 194.0 57.0 194.8 C 57.0 194.8 57.0 194.8 57.0 194.8 Z M 62.8 200.5 C 62.5 200.9 62.0 199.8 62.8 200.5 C 62.8 200.5 62.8 200.5 62.8 200.5 Z M 56.3 202.7 C 55.2 201.2 57.9 203.1 57.8 203.7 C 57.5 203.4 56.3 203.3 56.3 202.7 C 56.3 202.7 56.3 202.7 56.3 202.7 Z M 58.0 200.3 C 57.8 200.4 57.2 200.0 57.6 199.6 C 58.0 199.8 58.2 200.3 58.0 200.3 C 58.0 200.3 58.0 200.3 58.0 200.3 Z M 63.6 207.7 C 63.3 207.8 62.7 207.3 63.1 207.0 C 63.5 207.2 63.8 207.7 63.6 207.7 C 63.6 207.7 63.6 207.7 63.6 207.7 Z M 55.6 200.4 C 55.3 200.0 55.5 199.5 56.0 199.9 C 56.0 200.2 56.9 201.1 55.6 200.4 C 55.6 200.4 55.6 200.4 55.6 200.4 Z M 52.4 199.8 C 51.5 198.6 54.2 200.0 54.0 200.2 C 54.1 200.8 52.7 200.6 52.4 199.8 C 52.4 199.8 52.4 199.8 52.4 199.8 Z M 55.4 199.3 C 54.7 198.3 56.1 199.3 55.4 199.3 C 55.4 199.3 55.4 199.3 55.4 199.3 Z M 65.0 204.0 C 64.2 203.0 65.6 204.1 65.0 204.0 C 65.0 204.0 65.0 204.0 65.0 204.0 Z M 60.9 198.6 C 60.2 197.6 61.6 198.6 60.9 198.6 C 60.9 198.6 60.9 198.6 60.9 198.6 Z M 59.5 204.1 C 61.1 205.6 58.8 205.3 59.5 204.1 C 59.5 204.1 59.5 204.1 59.5 204.1 Z M 49.8 197.6 C 51.3 199.1 49.1 198.7 49.8 197.6 C 49.8 197.6 49.8 197.6 49.8 197.6 Z M 78.4 4.7 C 80.0 3.3 72.1 6.7 75.9 6.5 C 77.6 7.3 72.9 10.5 73.2 8.4 C 71.7 9.2 71.7 9.1 71.4 10.3 C 70.5 9.5 67.0 11.3 66.3 12.6 C 66.3 13.9 68.4 11.1 67.3 13.3 C 63.7 16.4 68.2 14.0 67.7 16.2 C 67.5 16.3 67.0 15.8 66.9 16.4 C 67.6 17.5 70.2 16.6 69.8 18.1 C 70.2 17.5 73.8 16.6 72.0 16.6 C 70.9 15.9 75.9 15.5 74.4 14.1 C 75.9 14.2 76.2 12.5 77.7 12.8 C 78.5 12.4 77.9 11.6 77.7 11.5 C 77.1 10.8 79.7 12.6 79.9 10.4 C 80.3 10.8 83.4 8.4 80.6 9.4 C 81.4 9.1 85.4 6.8 82.4 6.8 C 79.3 7.9 84.1 3.4 81.0 5.4 C 78.5 6.9 78.2 7.5 79.4 5.5 C 80.0 5.3 82.7 3.2 79.9 4.2 C 79.5 4.7 78.3 5.4 78.4 4.7 C 78.4 4.7 78.4 4.7 78.4 4.7 Z M 80.3 6.5 C 79.0 7.5 79.8 6.1 80.3 6.5 C 80.3 6.5 80.3 6.5 80.3 6.5 Z M 77.7 13.2 C 76.5 14.2 77.2 12.7 77.7 13.2 C 77.7 13.2 77.7 13.2 77.7 13.2 Z M 73.8 7.3 C 73.5 8.3 72.2 6.9 73.8 7.3 C 73.8 7.3 73.8 7.3 73.8 7.3 Z M 79.1 10.5 C 79.0 10.5 79.2 10.1 79.4 9.8 C 79.4 9.9 79.2 10.4 79.1 10.5 C 79.1 10.5 79.1 10.5 79.1 10.5 Z M 71.6 9.0 C 70.1 11.1 70.4 8.1 71.6 9.0 C 71.6 9.0 71.6 9.0 71.6 9.0 Z M 68.7 13.2 C 69.6 14.8 66.5 14.4 68.7 13.2 C 68.7 13.2 68.7 13.2 68.7 13.2 Z M 73.7 14.5 C 73.9 13.9 74.2 14.4 73.7 14.5 C 73.7 14.5 73.7 14.5 73.7 14.5 Z M 82.6 8.6 C 82.7 8.0 83.1 8.6 82.6 8.6 C 82.6 8.6 82.6 8.6 82.6 8.6 Z M 71.3 16.1 C 71.0 15.4 72.2 15.9 71.3 16.1 C 71.3 16.1 71.3 16.1 71.3 16.1 Z M 73.9 8.2 C 74.9 5.7 77.3 8.4 73.9 8.2 C 73.9 8.2 73.9 8.2 73.9 8.2 Z M 77.1 5.8 C 78.2 4.6 77.4 6.7 76.7 6.9 C 76.7 6.7 77.0 6.0 77.1 5.8 C 77.1 5.8 77.1 5.8 77.1 5.8 Z M 72.1 9.7 C 72.9 8.2 73.4 9.2 72.1 9.7 C 72.1 9.7 72.1 9.7 72.1 9.7 Z M 74.8 6.8 C 75.5 6.5 74.4 7.3 74.8 6.8 C 74.8 6.8 74.8 6.8 74.8 6.8 Z M 68.8 10.2 C 69.5 9.9 68.4 10.8 68.8 10.2 C 68.8 10.2 68.8 10.2 68.8 10.2 Z M 78.3 4.1 C 79.0 3.8 77.8 4.6 78.3 4.1 C 78.3 4.1 78.3 4.1 78.3 4.1 Z M 69.8 10.6 C 70.0 11.3 72.6 11.2 68.8 12.5 C 68.0 12.5 68.7 10.8 69.8 10.6 C 69.8 10.6 69.8 10.6 69.8 10.6 Z M 45.9 192.1 C 51.0 199.9 52.0 195.8 52.8 195.6 C 54.4 195.7 53.9 194.4 53.0 192.7 C 53.1 189.7 49.3 192.4 49.8 189.9 C 50.2 186.0 46.0 189.9 47.5 186.9 C 48.4 186.5 45.5 184.6 45.6 185.0 C 45.5 182.7 41.9 182.9 41.7 183.1 C 41.2 181.9 43.2 180.0 39.3 178.9 C 37.1 177.5 38.4 174.8 37.4 176.6 C 37.8 173.7 36.1 176.0 35.5 174.2 C 35.5 172.4 34.0 175.3 34.3 172.1 C 32.3 172.4 35.8 172.1 31.1 168.2 C 32.7 170.6 28.3 166.9 29.9 167.0 C 32.2 167.9 27.8 165.1 27.0 162.5 C 26.0 162.3 22.9 160.7 24.7 160.1 C 25.0 156.7 22.2 158.5 23.0 156.7 C 23.2 155.6 21.7 156.1 21.5 155.5 C 22.1 154.1 20.9 153.8 19.8 151.0 C 17.1 144.7 16.3 151.7 14.7 149.5 C 14.0 149.4 12.0 154.8 14.1 152.0 C 13.6 152.8 19.3 156.3 14.8 155.5 C 17.2 156.8 13.2 155.8 17.1 158.9 C 15.9 152.2 21.7 164.5 17.5 160.0 C 17.4 161.2 18.9 163.3 18.4 161.4 C 19.9 159.6 20.0 165.6 20.9 162.0 C 22.4 165.7 23.9 163.4 23.1 165.3 C 21.2 167.8 23.6 164.7 24.1 166.9 C 26.9 170.8 22.0 169.8 25.5 170.8 C 27.3 175.5 27.2 170.8 28.5 171.9 C 30.4 171.0 30.4 176.8 27.9 174.1 C 29.9 174.9 27.3 175.0 29.7 175.9 C 30.1 173.4 30.1 179.4 30.8 177.9 C 32.5 179.2 32.7 177.6 33.1 178.1 C 35.1 180.3 33.1 180.9 34.6 180.4 C 35.6 180.4 34.8 183.2 35.5 183.1 C 33.4 180.6 38.8 183.7 38.3 184.6 C 36.8 183.2 37.2 187.1 39.2 187.0 C 41.0 182.9 40.4 189.8 42.5 189.8 C 43.1 187.2 48.1 194.9 44.9 193.3 C 45.2 193.3 45.8 192.1 45.9 192.1 M 36.4 183.5 C 34.7 181.4 38.7 185.3 36.4 183.5 M 36.0 184.0 C 35.8 182.6 37.3 186.3 35.7 184.1 C 35.7 184.1 36.1 184.2 36.0 184.0 M 28.9 176.0 C 29.6 175.8 29.5 177.3 28.9 176.0 M 28.7 173.5 C 28.2 171.8 30.2 175.2 28.7 173.5 M 16.0 155.9 C 20.0 156.0 15.5 158.7 16.0 155.9 M 23.2 168.1 C 25.1 170.1 21.5 168.2 23.2 168.1 M 24.3 168.3 C 25.5 169.0 23.9 169.0 24.3 168.3 M 18.1 159.3 C 18.0 159.1 18.0 159.1 18.1 159.3 C 18.1 159.3 18.1 159.3 18.1 159.3 Z M 15.0 153.9 C 15.0 153.9 15.0 153.9 15.0 153.9 C 15.0 153.9 15.0 153.9 15.0 153.9 Z M 21.7 164.2 C 22.2 166.3 19.6 161.7 21.7 164.2 C 21.7 164.2 21.7 164.2 21.7 164.2 Z M 21.0 153.8 C 21.1 153.9 21.1 153.9 21.0 153.8 C 21.0 153.8 21.0 153.8 21.0 153.8 Z M 39.0 184.0 C 39.1 184.1 39.1 184.1 39.0 184.0 C 39.0 184.0 39.0 184.0 39.0 184.0 Z M 43.9 190.9 C 44.2 190.5 44.8 192.3 43.9 190.9 C 43.9 190.9 43.9 190.9 43.9 190.9 Z M 51.7 192.9 C 51.8 193.0 51.8 193.0 51.7 192.9 C 51.7 192.9 51.7 192.9 51.7 192.9 Z M 42.2 184.8 C 42.3 184.8 42.3 184.8 42.2 184.8 C 42.2 184.8 42.2 184.8 42.2 184.8 Z M 39.5 185.7 C 39.1 187.9 37.7 183.0 39.5 185.7 C 39.5 185.7 39.5 185.7 39.5 185.7 Z M 27.0 163.5 C 26.3 163.9 26.3 162.0 27.0 163.5 C 27.0 163.5 27.0 163.5 27.0 163.5 Z M 29.1 172.8 C 28.6 172.8 28.6 171.8 29.1 172.8 C 29.1 172.8 29.1 172.8 29.1 172.8 Z M 29.9 177.7 C 29.3 177.7 29.3 176.7 29.9 177.7 C 29.9 177.7 29.9 177.7 29.9 177.7 Z M 43.5 191.2 C 43.3 191.1 43.3 191.1 43.5 191.2 C 43.5 191.2 43.5 191.2 43.5 191.2 Z M 42.3 188.0 C 42.5 190.7 40.7 185.1 42.3 188.0 C 42.3 188.0 42.3 188.0 42.3 188.0 Z M 45.2 190.2 C 44.9 188.9 47.0 192.4 45.2 190.2 M 45.7 186.8 C 43.3 185.6 49.5 186.2 45.7 186.8 C 45.7 186.8 45.7 186.8 45.7 186.8 Z M 37.6 177.3 C 37.6 177.1 37.6 177.1 37.6 177.3 C 37.6 177.3 37.6 177.3 37.6 177.3 Z M 34.6 181.7 C 33.2 180.0 35.9 182.4 34.6 181.7 C 34.6 181.7 34.6 181.7 34.6 181.7 Z M 48.2 196.0 C 46.5 194.3 49.6 196.7 48.2 196.0 C 48.2 196.0 48.2 196.0 48.2 196.0 Z M 31.8 173.1 C 29.5 170.7 33.8 174.1 31.8 173.1 C 31.8 173.1 31.8 173.1 31.8 173.1 Z M 22.9 164.8 C 22.9 164.7 22.9 164.7 22.9 164.8 C 22.9 164.8 22.9 164.8 22.9 164.8 Z M 21.1 163.4 C 21.1 163.3 21.1 163.3 21.1 163.4 C 21.1 163.4 21.1 163.4 21.1 163.4 Z M 18.0 155.0 C 17.9 154.8 17.9 154.8 18.0 155.0 C 18.0 155.0 18.0 155.0 18.0 155.0 Z M 19.3 162.2 C 19.3 162.1 19.3 162.1 19.3 162.2 C 19.3 162.2 19.3 162.2 19.3 162.2 Z M 16.4 156.8 C 16.4 156.6 16.4 156.6 16.4 156.8 C 16.4 156.8 16.4 156.8 16.4 156.8 Z M 15.6 158.3 C 15.5 158.1 15.5 158.1 15.6 158.3 C 15.6 158.3 15.6 158.3 15.6 158.3 Z M 29.6 165.4 C 29.6 165.2 29.6 165.2 29.6 165.4 C 29.6 165.4 29.6 165.4 29.6 165.4 Z M 40.2 188.7 C 40.2 188.5 40.2 188.5 40.2 188.7 C 40.2 188.7 40.2 188.7 40.2 188.7 Z M 17.3 156.8 C 17.3 156.7 17.3 156.7 17.3 156.8 C 17.3 156.8 17.3 156.8 17.3 156.8 Z M 26.9 168.6 C 28.1 167.7 26.1 170.9 26.6 168.4 C 26.7 168.4 26.8 168.9 26.9 168.6 M 27.7 165.5 C 27.8 165.5 27.8 165.5 27.7 165.5 C 27.7 165.5 27.7 165.5 27.7 165.5 Z M 32.7 170.5 C 32.8 170.5 32.8 170.5 32.7 170.5 C 32.7 170.5 32.7 170.5 32.7 170.5 Z M 19.6 163.3 C 19.1 164.0 19.2 161.5 19.8 163.5 M 20.2 153.6 C 19.6 154.2 20.0 151.9 20.4 153.8 M 50.5 197.4 C 51.2 197.1 51.5 198.8 50.5 197.4 M 34.3 171.2 C 35.0 171.0 34.9 172.5 34.3 171.2 M 30.7 169.8 C 30.2 170.6 30.1 168.0 30.9 170.0 M 22.5 157.4 C 22.4 157.4 22.4 157.4 22.5 157.4 C 22.5 157.4 22.5 157.4 22.5 157.4 Z M 32.6 179.1 C 32.5 179.0 32.5 179.0 32.6 179.1 C 32.6 179.1 32.6 179.1 32.6 179.1 Z M 28.2 171.0 C 28.0 172.6 27.8 169.3 28.2 171.0 M 35.9 179.8 C 36.0 182.1 34.3 177.3 35.9 179.8 M 18.9 150.6 C 18.2 152.9 19.1 149.0 18.9 150.6 M 19.6 160.3 C 19.2 162.8 19.7 158.7 19.6 160.3 M 31.9 177.2 C 31.3 177.9 31.0 175.3 31.9 177.2 M 46.5 193.9 C 48.0 195.4 44.0 192.4 46.5 193.9 M 24.9 161.1 C 24.9 161.0 24.9 161.0 24.9 161.1 C 24.9 161.1 24.9 161.1 24.9 161.1 Z M 46.3 184.4 C 46.2 184.2 46.2 184.2 46.3 184.4 C 46.3 184.4 46.3 184.4 46.3 184.4 Z M 12.9 151.3 C 12.9 151.1 12.9 151.1 12.9 151.3 C 12.9 151.3 12.9 151.3 12.9 151.3 Z M 20.9 160.8 C 21.0 160.7 21.0 160.7 20.9 160.8 C 20.9 160.8 20.9 160.8 20.9 160.8 Z M 14.3 154.4 C 14.3 154.2 14.3 154.2 14.3 154.4 C 14.3 154.4 14.3 154.4 14.3 154.4 Z M 25.3 164.8 C 25.3 164.8 25.3 164.8 25.3 164.8 C 25.3 164.8 25.3 164.8 25.3 164.8 Z M 22.4 168.4 C 22.4 168.3 22.4 168.3 22.4 168.4 C 22.4 168.4 22.4 168.4 22.4 168.4 Z M 27.9 172.6 C 28.0 172.5 28.0 172.5 27.9 172.6 C 27.9 172.6 27.9 172.6 27.9 172.6 Z M 21.0 165.7 C 18.5 162.7 23.3 166.5 21.0 165.7 C 21.0 165.7 21.0 165.7 21.0 165.7 Z M 28.5 168.6 C 28.5 168.6 28.5 168.6 28.5 168.6 C 28.5 168.6 28.5 168.6 28.5 168.6 Z M 26.3 170.9 C 23.8 169.7 27.2 168.6 26.3 170.9 M 32.9 180.5 C 31.8 180.3 33.4 179.5 32.9 180.5 M 40.3 180.1 C 40.4 180.1 40.4 180.1 40.3 180.1 C 40.3 180.1 40.3 180.1 40.3 180.1 Z M 39.1 179.5 C 39.1 179.4 39.1 179.4 39.1 179.5 C 39.1 179.5 39.1 179.5 39.1 179.5 Z M 34.6 182.8 C 34.6 182.8 34.6 182.8 34.6 182.8 C 34.6 182.8 34.6 182.8 34.6 182.8 Z M 40.2 178.3 C 40.2 178.1 40.2 178.1 40.2 178.3 C 40.2 178.3 40.2 178.3 40.2 178.3 Z M 23.4 169.5 C 23.4 169.5 23.4 169.5 23.4 169.5 C 23.4 169.5 23.4 169.5 23.4 169.5 Z M 12.9 153.1 C 12.9 153.1 12.9 153.1 12.9 153.1 C 12.9 153.1 12.9 153.1 12.9 153.1 Z M 49.2 190.1 C 49.2 189.9 49.2 189.9 49.2 190.1 C 49.2 190.1 49.2 190.1 49.2 190.1 Z M 23.6 166.8 C 23.6 166.7 23.6 166.7 23.6 166.8 C 23.6 166.8 23.6 166.8 23.6 166.8 Z M 42.2 182.5 C 42.2 182.4 42.2 182.4 42.2 182.5 C 42.2 182.5 42.2 182.5 42.2 182.5 Z M 24.0 168.1 C 24.0 168.0 24.0 168.0 24.0 168.1 C 24.0 168.1 24.0 168.1 24.0 168.1 Z M 25.5 161.4 C 25.5 161.3 25.5 161.3 25.5 161.4 C 25.5 161.4 25.5 161.4 25.5 161.4 Z M 24.1 157.5 C 24.1 157.4 24.1 157.4 24.1 157.5 C 24.1 157.5 24.1 157.5 24.1 157.5 Z M 23.2 163.3 C 23.2 163.3 23.2 163.3 23.2 163.3 C 23.2 163.3 23.2 163.3 23.2 163.3 Z M 41.9 185.0 C 47.0 192.4 36.6 180.4 41.9 185.0 M 22.7 162.1 C 25.4 166.7 19.0 159.5 22.7 162.1 C 22.0 161.8 22.7 162.0 22.7 162.1 M 11.4 150.0 C 13.8 151.1 15.2 150.4 16.3 148.8 C 16.6 147.6 13.7 149.1 16.1 147.8 C 17.6 149.6 19.4 145.1 16.2 146.7 C 14.5 144.3 18.0 145.3 16.0 144.3 C 14.4 141.7 16.1 142.7 15.0 140.6 C 12.7 140.1 15.3 139.0 13.4 139.1 C 15.7 139.5 12.0 137.0 12.9 136.6 C 14.7 138.2 10.4 129.2 11.5 134.5 C 10.0 132.7 11.7 132.6 11.7 131.8 C 10.3 131.2 11.7 128.2 10.3 127.2 C 10.1 127.5 10.2 128.2 9.8 128.4 C 9.2 129.0 9.6 126.9 9.6 127.1 C 9.0 126.4 7.1 123.3 9.9 126.4 C 10.9 126.4 8.9 123.6 9.8 123.6 C 9.3 120.5 7.8 123.1 9.0 121.5 C 8.7 119.3 8.6 117.7 8.3 117.7 C 8.4 116.4 9.5 116.0 8.4 114.9 C 10.3 112.1 4.2 113.1 8.3 112.0 C 7.4 111.2 10.0 110.5 7.5 110.6 C 8.7 111.5 9.6 106.0 7.7 108.3 C 7.1 107.7 10.5 104.4 7.9 104.7 C 6.1 103.3 4.2 103.3 2.2 106.1 C 3.7 105.8 0.6 109.1 3.2 107.0 C 4.1 104.6 4.0 111.6 3.1 110.1 C 0.1 109.7 5.0 113.4 2.9 115.0 C 4.0 113.7 5.1 119.4 2.7 117.9 C 2.6 119.0 3.7 119.1 2.5 120.5 C 2.3 117.0 5.0 121.5 3.6 121.5 C 2.7 121.0 2.9 126.3 4.0 125.5 C 6.8 123.2 3.7 127.0 5.1 127.6 C 6.3 130.3 2.4 127.8 5.1 129.4 C 4.8 130.0 5.8 133.9 4.6 131.6 C 4.6 130.6 8.5 132.9 6.1 134.1 C 3.4 130.4 6.8 139.0 7.1 137.4 C 6.3 130.7 11.0 143.4 7.9 139.0 C 7.5 142.3 7.0 138.4 8.9 141.6 C 9.5 140.8 11.4 143.2 9.5 143.2 C 7.4 144.7 13.0 142.7 10.8 146.3 C 9.6 147.2 13.8 150.0 11.5 149.2 C 11.3 149.2 11.4 149.9 11.4 150.0 M 11.1 148.6 C 11.8 148.8 10.8 149.7 11.1 148.6 M 11.8 148.9 C 11.8 148.9 11.8 148.9 11.8 148.9 C 11.8 148.9 11.8 148.9 11.8 148.9 Z M 9.2 142.1 C 9.2 142.1 9.2 142.1 9.2 142.1 C 9.2 142.1 9.2 142.1 9.2 142.1 Z M 13.3 134.8 C 13.2 134.9 13.2 134.9 13.3 134.8 C 13.3 134.8 13.3 134.8 13.3 134.8 Z M 7.7 137.6 C 7.7 137.7 7.7 137.7 7.7 137.6 C 7.7 137.6 7.7 137.6 7.7 137.6 Z M 10.6 144.3 C 10.6 144.3 10.6 144.3 10.6 144.3 C 10.6 144.3 10.6 144.3 10.6 144.3 Z M 7.0 138.3 C 7.8 137.7 6.9 140.1 6.8 138.3 C 6.8 138.2 7.0 138.5 7.0 138.3 M 4.8 132.6 C 4.9 132.5 4.9 132.5 4.8 132.6 M 9.6 118.9 C 9.8 118.8 9.8 118.8 9.6 118.9 M 2.1 118.7 C 2.2 118.5 2.2 118.5 2.1 118.7 M 4.3 126.6 C 3.9 124.9 4.7 126.1 4.3 126.6 M 2.3 114.0 C 1.8 116.2 1.7 111.6 2.3 114.0 M 1.7 111.8 C 1.8 111.6 1.8 111.6 1.7 111.8 M 2.8 121.9 C 2.9 121.9 2.9 121.9 2.8 121.9 C 2.8 121.9 2.8 121.9 2.8 121.9 Z M 4.1 127.4 C 4.1 129.9 2.7 125.3 4.1 127.4 M 8.1 141.6 C 7.1 140.5 9.2 141.2 8.1 141.6 M 9.6 144.1 C 9.7 144.1 9.7 144.1 9.6 144.1 C 9.6 144.1 9.6 144.1 9.6 144.1 Z M 2.5 117.5 C 2.5 117.6 2.5 117.6 2.5 117.5 C 2.5 117.5 2.5 117.5 2.5 117.5 Z M 2.1 115.0 C 2.1 115.1 2.1 115.1 2.1 115.0 C 2.1 115.0 2.1 115.0 2.1 115.0 Z M 9.0 110.7 C 9.0 110.8 9.0 110.8 9.0 110.7 C 9.0 110.7 9.0 110.7 9.0 110.7 Z M 11.5 141.0 C 11.7 142.9 8.7 140.1 10.4 139.9 C 11.0 139.4 11.3 140.9 11.5 141.0 M 6.5 128.6 C 8.8 127.7 3.8 131.0 6.5 128.6 M 3.2 111.4 C 6.0 109.7 1.3 113.6 3.2 111.4 M 2.8 108.0 C 3.4 107.0 3.0 114.5 2.3 109.2 C 1.9 108.7 2.5 108.3 2.8 108.0 M 5.9 132.2 C 7.0 131.4 6.1 135.1 5.9 132.2 M 7.6 121.1 C 6.6 120.4 5.6 118.4 7.2 119.1 C 9.0 118.9 8.4 122.0 7.6 121.1 M 12.0 147.5 C 9.5 147.0 13.7 146.8 12.0 147.5 M 9.3 140.8 C 9.2 140.8 9.2 140.8 9.3 140.8 C 9.3 140.8 9.3 140.8 9.3 140.8 Z M 8.0 138.2 C 8.1 138.1 8.1 138.1 8.0 138.2 M 9.9 147.2 C 9.9 147.0 9.9 147.0 9.9 147.2 M 5.4 121.4 C 5.6 121.3 5.6 121.3 5.4 121.4 M 5.0 127.0 C 6.5 124.0 5.7 128.3 5.0 127.0 M 10.4 132.2 C 11.1 131.2 10.9 133.7 10.4 132.2 M 3.4 122.9 C 5.1 120.8 5.7 125.1 3.4 122.9 M 5.1 128.3 C 5.0 128.2 5.0 128.2 5.1 128.3 C 5.1 128.3 5.1 128.3 5.1 128.3 Z M 7.7 120.4 C 7.7 120.5 7.7 120.5 7.7 120.4 C 7.7 120.4 7.7 120.4 7.7 120.4 Z M 7.5 119.7 C 7.6 119.7 7.6 119.7 7.5 119.7 C 7.5 119.7 7.5 119.7 7.5 119.7 Z M 2.9 120.7 C 2.9 120.7 2.9 120.7 2.9 120.7 C 2.9 120.7 2.9 120.7 2.9 120.7 Z M 14.7 142.1 C 14.1 140.3 15.6 143.3 14.7 142.1 C 14.7 142.1 14.7 142.1 14.7 142.1 Z M 6.3 136.2 C 6.8 132.7 8.4 137.9 6.3 136.2 C 6.3 136.2 6.3 136.2 6.3 136.2 Z M 7.7 132.0 C 7.8 132.0 7.8 132.0 7.7 132.0 C 7.7 132.0 7.7 132.0 7.7 132.0 Z M 2.4 124.3 C 2.5 124.3 2.5 124.3 2.4 124.3 C 2.4 124.3 2.4 124.3 2.4 124.3 Z M 14.6 141.1 C 14.7 141.1 14.7 141.1 14.6 141.1 C 14.6 141.1 14.6 141.1 14.6 141.1 Z M 3.5 115.4 C 3.6 115.4 3.6 115.4 3.5 115.4 C 3.5 115.4 3.5 115.4 3.5 115.4 Z M 8.7 125.1 C 7.9 124.6 9.3 124.8 8.7 125.1 C 8.7 125.1 8.7 125.1 8.7 125.1 Z M 8.3 122.5 C 8.3 122.4 8.3 122.4 8.3 122.5 C 8.3 122.5 8.3 122.5 8.3 122.5 Z M 1.5 111.1 C 1.5 111.0 1.5 111.0 1.5 111.1 C 1.5 111.1 1.5 111.1 1.5 111.1 Z M 9.4 115.8 C 9.4 115.7 9.4 115.7 9.4 115.8 C 9.4 115.8 9.4 115.8 9.4 115.8 Z M 7.0 113.7 C 7.0 113.8 7.0 113.8 7.0 113.7 C 7.0 113.7 7.0 113.7 7.0 113.7 Z M 3.4 121.1 C 2.7 118.4 4.4 121.6 3.4 121.1 C 3.4 121.1 3.4 121.1 3.4 121.1 Z M 6.4 107.3 C 6.5 107.3 6.5 107.3 6.4 107.3 C 6.4 107.3 6.4 107.3 6.4 107.3 Z M 3.8 105.8 C 3.9 105.8 3.9 105.8 3.8 105.8 C 3.8 105.8 3.8 105.8 3.8 105.8 Z M 2.4 105.0 C 2.5 105.0 2.5 105.0 2.4 105.0 C 2.4 105.0 2.4 105.0 2.4 105.0 Z M 10.8 137.3 C 10.7 137.4 10.7 137.4 10.8 137.3 C 10.8 137.3 10.8 137.3 10.8 137.3 Z M 7.1 139.9 C 7.0 139.9 7.0 139.9 7.1 139.9 C 7.1 139.9 7.1 139.9 7.1 139.9 Z M 5.6 136.2 C 5.5 136.2 5.5 136.2 5.6 136.2 C 5.6 136.2 5.6 136.2 5.6 136.2 Z M 13.5 137.1 C 13.5 137.1 13.5 137.1 13.5 137.1 C 13.5 137.1 13.5 137.1 13.5 137.1 Z M 6.3 124.8 C 6.2 124.9 6.2 124.9 6.3 124.8 C 6.3 124.8 6.3 124.8 6.3 124.8 Z M 7.8 123.2 C 7.7 123.3 7.7 123.3 7.8 123.2 C 7.8 123.2 7.8 123.2 7.8 123.2 Z M 10.7 125.8 C 10.7 125.8 10.7 125.8 10.7 125.8 C 10.7 125.8 10.7 125.8 10.7 125.8 Z M 9.2 122.0 C 9.1 122.0 9.1 122.0 9.2 122.0 C 9.2 122.0 9.2 122.0 9.2 122.0 Z M 16.5 146.2 C 16.5 146.2 16.5 146.2 16.5 146.2 C 16.5 146.2 16.5 146.2 16.5 146.2 Z M 13.6 147.9 C 13.7 147.9 13.7 147.9 13.6 147.9 C 13.6 147.9 13.6 147.9 13.6 147.9 Z M 3.8 124.8 C 3.0 124.3 4.5 123.4 3.8 124.8 M 5.4 130.0 C 5.4 130.0 5.4 130.0 5.4 130.0 C 5.4 130.0 5.4 130.0 5.4 130.0 Z M 2.8 115.9 C 4.1 115.1 2.3 118.4 2.8 115.9 C 2.8 115.9 2.8 115.9 2.8 115.9 Z M 8.7 118.1 C 8.7 118.0 8.7 118.0 8.7 118.1 C 8.7 118.1 8.7 118.1 8.7 118.1 Z M 8.0 116.9 C 8.1 116.8 8.1 116.8 8.0 116.9 C 8.0 116.9 8.0 116.9 8.0 116.9 Z M 4.1 109.6 C 4.2 109.5 4.2 109.5 4.1 109.6 M 4.4 131.0 C 4.7 130.0 4.7 130.2 4.4 131.0 M 2.8 114.1 C 2.8 114.1 2.8 114.1 2.8 114.1 C 2.8 114.1 2.8 114.1 2.8 114.1 Z M 3.4 107.9 C 3.4 108.0 3.4 108.0 3.4 107.9 C 3.4 107.9 3.4 107.9 3.4 107.9 Z M 6.3 134.5 C 7.8 133.9 7.7 134.8 6.3 134.5 M 10.7 144.9 C 10.8 144.8 10.8 144.8 10.7 144.9 C 10.7 144.9 10.7 144.9 10.7 144.9 Z M 3.0 99.5 C 0.8 102.1 3.4 102.4 3.4 102.4 C 0.1 101.8 4.6 105.1 5.3 104.6 C 5.7 104.7 11.8 103.3 8.5 101.0 C 8.1 100.4 9.2 100.2 9.3 99.9 C 9.7 96.6 7.1 101.9 7.8 97.9 C 8.4 97.2 11.0 98.6 9.5 95.9 C 9.8 95.8 11.5 93.4 9.9 94.1 C 11.5 93.1 10.2 92.0 10.2 90.7 C 11.3 89.8 11.9 92.2 11.6 87.9 C 14.4 86.9 10.7 85.0 13.7 84.4 C 14.1 83.5 10.7 80.5 12.1 83.6 C 12.0 83.2 9.5 83.9 11.4 81.1 C 11.7 81.7 14.9 85.0 15.1 79.5 C 15.6 78.7 15.4 76.4 16.1 76.2 C 15.3 78.9 19.4 73.8 18.0 73.7 C 20.8 70.3 17.9 71.6 20.7 69.6 C 22.1 67.3 18.6 69.3 21.3 67.1 C 22.4 64.9 22.4 66.9 22.2 67.0 C 23.5 65.3 23.4 64.2 23.8 63.6 C 24.3 63.4 25.6 63.0 25.0 62.0 C 24.7 58.9 21.9 59.6 20.9 57.6 C 19.1 58.5 21.7 59.1 19.8 59.2 C 20.3 60.7 19.5 59.3 17.2 63.5 C 17.5 63.6 18.8 63.0 18.3 64.1 C 17.2 65.5 15.0 62.7 15.5 66.5 C 17.9 63.8 14.0 71.3 16.2 68.9 C 14.6 72.5 15.4 69.7 13.3 71.9 C 15.4 72.8 11.1 71.0 12.2 72.8 C 11.3 72.6 9.7 76.9 12.3 74.6 C 10.8 79.0 10.9 75.8 9.2 76.9 C 8.2 78.8 12.4 78.4 9.4 78.6 C 7.2 80.7 10.6 79.2 7.9 80.3 C 10.0 80.1 7.1 82.1 9.3 82.2 C 7.8 86.5 7.4 80.9 7.7 84.4 C 8.1 83.5 5.3 83.0 6.4 85.4 C 9.8 85.7 2.8 87.0 7.4 87.0 C 6.7 93.4 5.3 87.5 4.4 90.9 C 4.2 91.7 6.0 90.3 5.9 91.1 C 4.2 95.2 3.9 91.4 5.5 94.1 C 5.1 98.5 3.4 95.0 2.9 97.1 C 3.9 97.4 5.3 99.4 3.0 99.5 M 4.7 95.8 C 4.2 94.8 5.5 95.4 4.7 95.8 M 2.5 104.3 C 1.9 103.4 3.2 103.8 2.5 104.3 M 4.9 92.2 C 4.5 90.8 6.1 92.0 4.9 92.2 M 14.9 69.7 C 14.0 71.3 14.8 68.7 14.9 69.7 M 2.7 100.8 C 2.1 99.5 3.9 100.6 2.7 100.8 M 4.2 102.6 C 4.3 102.5 4.3 102.5 4.2 102.6 M 14.6 66.6 C 14.7 66.5 14.7 66.5 14.6 66.6 M 11.3 72.7 C 12.0 71.4 11.3 73.7 11.3 72.7 M 17.6 76.1 C 18.2 74.9 17.6 77.0 17.6 76.1 M 16.5 63.2 C 16.9 61.6 17.5 63.2 16.5 63.2 M 20.1 60.7 C 20.3 59.2 21.2 60.3 20.1 60.7 M 7.0 97.0 C 7.1 97.1 7.1 97.1 7.0 97.0 C 7.0 97.0 7.0 97.0 7.0 97.0 Z M 11.5 86.7 C 10.4 87.7 12.9 85.4 11.5 86.7 M 6.4 87.3 C 8.1 86.8 5.8 89.0 6.4 87.3 C 6.4 87.3 6.4 87.3 6.4 87.3 Z M 6.5 89.4 C 6.5 89.5 6.5 89.5 6.5 89.4 C 6.5 89.4 6.5 89.4 6.5 89.4 Z M 8.6 83.1 C 8.6 83.2 8.6 83.2 8.6 83.1 C 8.6 83.1 8.6 83.1 8.6 83.1 Z M 8.3 84.5 C 8.4 85.1 7.7 85.1 8.3 84.5 C 8.3 84.5 8.3 84.5 8.3 84.5 Z M 16.2 77.3 C 16.2 78.0 15.6 77.9 16.2 77.3 C 16.2 77.3 16.2 77.3 16.2 77.3 Z M 8.1 86.6 C 9.4 87.2 6.9 87.2 8.1 86.6 C 8.1 86.6 8.1 86.6 8.1 86.6 Z M 13.8 81.2 C 13.6 80.5 15.5 80.6 13.8 81.2 M 15.6 65.5 C 15.6 64.7 17.5 65.0 15.6 65.5 M 8.4 78.7 C 8.3 78.0 10.2 78.1 8.4 78.7 M 4.2 95.0 C 4.4 94.9 4.4 94.9 4.2 95.0 M 12.2 89.3 C 11.9 88.3 12.9 89.0 12.2 89.3 M 9.1 101.0 C 8.7 100.1 9.8 100.7 9.1 101.0 M 20.3 70.7 C 20.0 70.5 21.2 69.5 20.3 70.7 M 11.2 78.1 C 11.9 77.0 13.1 76.1 12.0 78.5 C 11.6 78.5 11.7 77.7 11.2 78.1 C 11.2 78.1 11.2 78.1 11.2 78.1 Z M 16.1 75.4 C 16.3 75.3 16.3 75.3 16.1 75.4 M 10.9 75.5 C 11.1 75.3 11.1 75.3 10.9 75.5 M 14.5 68.7 C 14.8 68.6 14.8 68.6 14.5 68.7 M 14.7 67.6 C 14.7 67.7 14.7 67.7 14.7 67.6 C 14.7 67.6 14.7 67.6 14.7 67.6 Z M 18.8 59.8 C 18.9 59.9 18.9 59.9 18.8 59.8 C 18.8 59.8 18.8 59.8 18.8 59.8 Z M 13.5 70.9 C 13.6 71.0 13.6 71.0 13.5 70.9 C 13.5 70.9 13.5 70.9 13.5 70.9 Z M 21.8 67.7 C 21.8 67.7 21.8 67.7 21.8 67.7 C 21.8 67.7 21.8 67.7 21.8 67.7 Z M 20.6 68.0 C 20.6 68.0 20.6 68.0 20.6 68.0 C 20.6 68.0 20.6 68.0 20.6 68.0 Z M 3.1 98.9 C 2.3 97.6 5.7 98.7 3.1 98.9 M 22.6 64.8 C 24.0 64.4 21.7 66.6 22.6 64.8 C 22.6 64.8 22.6 64.8 22.6 64.8 Z M 14.2 72.3 C 14.4 72.3 14.4 72.3 14.2 72.3 M 15.0 67.3 C 15.2 67.3 15.2 67.3 15.0 67.3 M 5.1 86.9 C 5.4 86.9 5.4 86.9 5.1 86.9 M 18.5 62.2 C 20.8 59.2 19.3 64.7 18.5 62.2 M 6.0 88.8 C 5.9 88.9 5.9 88.9 6.0 88.8 M 11.0 82.6 C 11.7 80.5 11.5 83.6 11.0 82.6 M 11.6 76.5 C 11.6 76.6 11.6 76.6 11.6 76.5 C 11.6 76.5 11.6 76.5 11.6 76.5 Z M 10.2 79.6 C 9.7 81.3 9.6 79.9 10.2 79.6 C 10.2 79.6 10.2 79.6 10.2 79.6 Z M 4.7 97.5 C 5.2 95.6 4.8 99.7 4.7 97.5 C 4.7 97.5 4.7 97.5 4.7 97.5 Z M 20.4 65.4 C 20.5 65.5 20.5 65.5 20.4 65.4 C 20.4 65.4 20.4 65.4 20.4 65.4 Z M 12.4 70.9 C 12.2 72.0 11.8 71.1 12.4 70.9 C 12.4 70.9 12.4 70.9 12.4 70.9 Z M 19.6 58.7 C 19.2 59.8 18.9 58.9 19.6 58.7 C 19.6 58.7 19.6 58.7 19.6 58.7 Z M 4.0 100.0 C 7.5 92.8 2.0 109.8 4.0 100.0 C 4.0 100.0 4.0 100.0 4.0 100.0 Z M 9.8 78.0 C 9.9 78.1 9.9 78.1 9.8 78.0 C 9.8 78.0 9.8 78.0 9.8 78.0 Z M 4.1 91.5 C 4.2 91.6 4.2 91.6 4.1 91.5 C 4.1 91.5 4.1 91.5 4.1 91.5 Z M 4.9 94.2 C 5.0 94.2 5.0 94.2 4.9 94.2 C 4.9 94.2 4.9 94.2 4.9 94.2 Z M 10.6 94.8 C 10.6 94.8 10.6 94.8 10.6 94.8 C 10.6 94.8 10.6 94.8 10.6 94.8 Z M 8.2 93.4 C 8.4 93.6 8.4 93.6 8.2 93.4 C 8.2 93.4 8.2 93.4 8.2 93.4 Z M 8.2 98.2 C 8.3 98.3 8.3 98.3 8.2 98.2 C 8.2 98.2 8.2 98.2 8.2 98.2 Z M 9.0 98.3 C 9.0 98.3 9.0 98.3 9.0 98.3 C 9.0 98.3 9.0 98.3 9.0 98.3 Z M 16.4 68.1 C 16.5 68.2 16.5 68.2 16.4 68.1 C 16.4 68.1 16.4 68.1 16.4 68.1 Z M 17.1 71.7 C 17.3 69.6 17.9 72.8 17.1 71.7 C 17.1 71.7 17.1 71.7 17.1 71.7 Z M 9.5 86.1 C 9.8 84.4 9.9 87.3 9.5 86.1 C 9.5 86.1 9.5 86.1 9.5 86.1 Z M 13.0 85.4 C 13.1 85.4 13.1 85.4 13.0 85.4 C 13.0 85.4 13.0 85.4 13.0 85.4 Z M 3.6 93.9 C 3.7 94.0 3.7 94.0 3.6 93.9 C 3.6 93.9 3.6 93.9 3.6 93.9 Z M 3.9 97.0 C 5.1 97.4 3.2 97.9 3.9 97.0 M 7.4 82.0 C 7.5 82.0 7.5 82.0 7.4 82.0 C 7.4 82.0 7.4 82.0 7.4 82.0 Z M 13.2 73.4 C 13.2 73.5 13.2 73.5 13.2 73.4 C 13.2 73.4 13.2 73.4 13.2 73.4 Z M 17.6 63.9 C 17.7 64.1 17.7 64.1 17.6 63.9 C 17.6 63.9 17.6 63.9 17.6 63.9 Z M 9.9 76.2 C 10.1 76.3 10.1 76.3 9.9 76.2 C 9.9 76.2 9.9 76.2 9.9 76.2 Z M 9.1 81.0 C 9.2 81.1 9.2 81.1 9.1 81.0 C 9.1 81.0 9.1 81.0 9.1 81.0 Z M 20.3 62.9 C 20.3 63.0 20.3 63.0 20.3 62.9 C 20.3 62.9 20.3 62.9 20.3 62.9 Z M 10.3 75.1 C 10.3 75.1 10.3 75.1 10.3 75.1 C 10.3 75.1 10.3 75.1 10.3 75.1 Z M 15.0 74.1 C 15.0 74.2 15.0 74.2 15.0 74.1 C 15.0 74.1 15.0 74.1 15.0 74.1 Z M 2.3 96.3 C 2.4 96.4 2.4 96.4 2.3 96.3 C 2.3 96.3 2.3 96.3 2.3 96.3 Z M 19.0 61.9 C 19.1 62.0 19.1 62.0 19.0 61.9 C 19.0 61.9 19.0 61.9 19.0 61.9 Z M 18.5 60.8 C 18.5 60.8 18.5 60.8 18.5 60.8 C 18.5 60.8 18.5 60.8 18.5 60.8 Z M 19.4 70.1 C 17.1 72.9 20.8 67.2 18.4 68.8 C 20.7 64.1 19.9 69.5 19.4 70.1 C 19.4 70.1 19.4 70.1 19.4 70.1 Z M 21.2 56.2 C 21.2 58.9 22.5 59.8 24.4 60.0 C 25.7 59.6 23.0 57.7 25.3 59.3 C 24.3 61.6 29.2 60.9 26.3 58.8 C 27.8 55.9 28.4 59.8 28.5 57.4 C 30.3 54.4 30.1 56.5 31.6 54.2 C 31.1 51.8 33.3 53.6 32.4 51.9 C 33.0 54.2 33.9 49.2 34.6 49.7 C 33.9 52.5 41.2 42.4 36.2 47.1 C 37.4 44.4 38.3 45.9 39.1 45.3 C 39.1 43.7 43.0 42.6 43.5 40.5 C 43.0 40.6 42.4 41.2 41.9 41.1 C 41.0 40.9 43.4 39.8 43.2 39.9 C 43.8 38.8 46.3 34.6 44.2 39.6 C 44.6 40.5 46.8 36.4 47.3 37.2 C 50.6 34.1 46.8 35.0 49.3 34.7 C 51.7 32.5 53.5 30.9 53.4 30.7 C 55.1 29.6 56.1 30.1 56.8 28.1 C 61.4 27.0 56.5 23.1 60.4 25.3 C 60.7 23.7 63.3 25.1 61.6 23.2 C 61.2 25.0 68.7 20.2 64.5 21.1 C 64.9 20.0 71.4 19.1 69.2 17.5 C 69.7 14.8 68.3 13.4 63.6 14.8 C 64.9 15.6 58.9 16.5 63.1 16.4 C 66.7 14.7 58.2 21.4 59.4 19.3 C 57.9 16.6 56.6 24.0 53.5 23.8 C 55.7 23.5 49.7 29.4 50.0 26.2 C 48.7 27.0 49.2 28.1 47.1 28.2 C 50.9 25.1 47.3 31.2 46.6 30.0 C 46.6 28.8 40.8 33.2 42.3 33.7 C 46.2 34.2 40.5 34.5 40.5 36.2 C 38.2 39.4 39.0 33.9 38.6 37.5 C 37.8 37.8 34.3 41.4 36.1 38.7 C 37.1 38.0 36.5 43.2 34.2 41.7 C 36.7 36.8 29.6 45.7 31.3 44.9 C 37.7 39.9 27.1 52.3 30.0 46.7 C 26.6 48.4 30.2 45.5 28.0 49.2 C 29.0 49.3 27.5 52.4 26.7 50.7 C 24.3 49.7 28.6 53.7 24.3 53.6 C 22.9 53.0 22.2 58.3 21.9 55.9 C 21.9 55.7 21.2 56.0 21.2 56.2 M 22.3 55.1 C 22.4 55.9 21.2 55.4 22.3 55.1 M 22.4 55.9 C 22.3 56.0 22.3 56.0 22.4 55.9 C 22.4 55.9 22.4 55.9 22.4 55.9 Z M 27.6 49.8 C 27.5 49.8 27.5 49.8 27.6 49.8 C 27.6 49.8 27.6 49.8 27.6 49.8 Z M 36.7 48.9 C 36.6 48.9 36.6 48.9 36.7 48.9 C 36.7 48.9 36.7 48.9 36.7 48.9 Z M 31.4 45.6 C 31.3 45.7 31.3 45.7 31.4 45.6 C 31.4 45.6 31.4 45.6 31.4 45.6 Z M 26.1 52.3 C 26.1 52.3 26.1 52.3 26.1 52.3 C 26.1 52.3 26.1 52.3 26.1 52.3 Z M 30.3 45.4 C 31.3 45.7 28.5 46.4 30.3 45.2 C 30.4 45.2 30.1 45.5 30.3 45.4 M 35.1 39.6 C 35.2 39.6 35.2 39.6 35.1 39.6 M 52.7 32.9 C 52.8 33.0 52.8 33.0 52.7 32.9 M 48.9 26.3 C 49.1 26.3 49.1 26.3 48.9 26.3 M 41.2 34.8 C 42.9 33.0 42.0 34.7 41.2 34.8 M 54.4 22.3 C 51.5 23.9 56.8 19.6 54.4 22.3 M 56.5 19.8 C 56.8 19.7 56.8 19.7 56.5 19.8 M 45.7 29.6 C 45.7 29.7 45.7 29.7 45.7 29.6 C 45.7 29.6 45.7 29.6 45.7 29.6 Z M 40.2 35.2 C 37.6 37.0 41.9 32.3 40.2 35.2 M 27.5 48.4 C 28.2 46.9 28.5 49.2 27.5 48.4 M 25.9 51.3 C 25.9 51.4 25.9 51.4 25.9 51.3 C 25.9 51.3 25.9 51.3 25.9 51.3 Z M 50.4 25.6 C 50.3 25.7 50.3 25.7 50.4 25.6 C 50.4 25.6 50.4 25.6 50.4 25.6 Z M 53.1 23.1 C 53.0 23.2 53.0 23.2 53.1 23.1 C 53.1 23.1 53.1 23.1 53.1 23.1 Z M 62.4 24.5 C 62.3 24.5 62.3 24.5 62.4 24.5 C 62.4 24.5 62.4 24.5 62.4 24.5 Z M 29.7 51.3 C 28.0 52.6 29.3 48.1 30.3 49.6 C 31.0 49.8 29.7 51.0 29.7 51.3 M 40.1 38.3 C 42.2 39.5 36.2 37.6 40.1 38.3 M 57.9 20.7 C 61.6 21.3 54.1 21.2 57.9 20.7 M 61.7 17.0 C 63.3 16.5 54.1 23.4 60.0 17.9 C 60.3 17.0 61.1 17.1 61.7 17.0 M 36.0 40.3 C 37.4 40.7 33.1 42.5 36.0 40.3 M 49.0 33.1 C 49.3 31.7 51.2 29.0 51.1 31.0 C 52.3 32.4 48.5 34.5 49.0 33.1 M 23.7 55.4 C 23.0 52.8 25.1 56.5 23.7 55.4 M 29.0 49.1 C 28.9 49.0 28.9 49.0 29.0 49.1 C 29.0 49.1 29.0 49.1 29.0 49.1 Z M 30.9 46.3 C 31.1 46.3 31.1 46.3 30.9 46.3 M 23.0 53.3 C 23.3 53.2 23.3 53.2 23.0 53.3 M 47.5 31.5 C 47.8 31.5 47.8 31.5 47.5 31.5 M 41.1 35.6 C 45.1 34.7 40.1 37.3 41.1 35.6 M 38.1 44.4 C 39.5 44.3 36.8 46.0 38.1 44.4 M 44.8 31.0 C 48.1 30.7 43.5 34.8 44.8 31.0 M 39.7 36.7 C 39.9 36.6 39.9 36.6 39.7 36.7 C 39.7 36.7 39.7 36.7 39.7 36.7 Z M 49.9 32.6 C 49.9 32.7 49.9 32.7 49.9 32.6 C 49.9 32.6 49.9 32.6 49.9 32.6 Z M 50.6 31.8 C 50.6 31.9 50.6 31.9 50.6 31.8 C 50.6 31.8 50.6 31.8 50.6 31.8 Z M 47.0 28.7 C 47.0 28.8 47.0 28.8 47.0 28.7 C 47.0 28.7 47.0 28.7 47.0 28.7 Z M 30.0 54.8 C 31.5 53.2 29.2 56.4 30.0 54.8 C 30.0 54.8 30.0 54.8 30.0 54.8 Z M 32.1 43.4 C 35.9 41.5 31.4 46.4 32.1 43.4 C 32.1 43.4 32.1 43.4 32.1 43.4 Z M 37.1 41.8 C 37.1 41.9 37.1 41.9 37.1 41.8 C 37.1 41.8 37.1 41.8 37.1 41.8 Z M 42.8 31.2 C 42.9 31.3 42.9 31.3 42.8 31.2 C 42.8 31.2 42.8 31.2 42.8 31.2 Z M 30.9 54.1 C 31.0 54.2 31.0 54.2 30.9 54.1 C 30.9 54.1 30.9 54.1 30.9 54.1 Z M 53.4 24.5 C 53.5 24.6 53.5 24.6 53.4 24.5 C 53.4 24.5 53.4 24.5 53.4 24.5 Z M 45.1 37.4 C 45.2 36.3 45.7 37.8 45.1 37.4 C 45.1 37.4 45.1 37.4 45.1 37.4 Z M 47.8 34.9 C 47.9 34.8 47.9 34.8 47.8 34.9 C 47.8 34.9 47.8 34.9 47.8 34.9 Z M 57.2 19.1 C 57.3 19.0 57.3 19.0 57.2 19.1 C 57.2 19.1 57.2 19.1 57.2 19.1 Z M 56.4 29.8 C 56.4 29.7 56.4 29.7 56.4 29.8 C 56.4 29.8 56.4 29.8 56.4 29.8 Z M 57.4 25.9 C 57.4 26.0 57.4 26.0 57.4 25.9 C 57.4 25.9 57.4 25.9 57.4 25.9 Z M 46.8 29.5 C 49.5 26.6 46.8 30.8 46.8 29.5 C 46.8 29.5 46.8 29.5 46.8 29.5 Z M 64.9 19.1 C 65.1 19.1 65.1 19.1 64.9 19.1 C 64.9 19.1 64.9 19.1 64.9 19.1 Z M 65.0 15.6 C 65.1 15.7 65.1 15.7 65.0 15.6 C 65.0 15.6 65.0 15.6 65.0 15.6 Z M 65.0 13.8 C 65.1 13.9 65.1 13.9 65.0 13.8 C 65.0 13.8 65.0 13.8 65.0 13.8 Z M 33.0 48.3 C 32.9 48.3 32.9 48.3 33.0 48.3 C 33.0 48.3 33.0 48.3 33.0 48.3 Z M 28.8 46.4 C 28.8 46.4 28.8 46.4 28.8 46.4 C 28.8 46.4 28.8 46.4 28.8 46.4 Z M 31.8 42.7 C 31.8 42.7 31.8 42.7 31.8 42.7 C 31.8 42.7 31.8 42.7 31.8 42.7 Z M 34.5 50.6 C 34.4 50.6 34.4 50.6 34.5 50.6 C 34.5 50.6 34.5 50.6 34.5 50.6 Z M 44.2 35.0 C 44.1 35.0 44.1 35.0 44.2 35.0 C 44.2 35.0 44.2 35.0 44.2 35.0 Z M 46.7 35.1 C 46.6 35.1 46.6 35.1 46.7 35.1 C 46.7 35.1 46.7 35.1 46.7 35.1 Z M 45.2 39.8 C 45.2 39.8 45.2 39.8 45.2 39.8 C 45.2 39.8 45.2 39.8 45.2 39.8 Z M 48.8 35.3 C 48.7 35.3 48.7 35.3 48.8 35.3 C 48.8 35.3 48.8 35.3 48.8 35.3 Z M 26.9 58.8 C 27.0 58.8 27.0 58.8 26.9 58.8 C 26.9 58.8 26.9 58.8 26.9 58.8 Z M 24.0 57.1 C 24.1 57.2 24.1 57.2 24.0 57.1 C 24.0 57.1 24.0 57.1 24.0 57.1 Z M 43.0 32.9 C 43.1 31.8 44.9 32.3 43.0 32.9 M 38.1 38.2 C 38.1 38.3 38.1 38.3 38.1 38.2 C 38.1 38.2 38.1 38.2 38.1 38.2 Z M 52.5 24.5 C 54.1 24.8 49.3 26.3 52.5 24.5 C 52.5 24.5 52.5 24.5 52.5 24.5 Z M 53.1 31.3 C 53.2 31.3 53.2 31.3 53.1 31.3 C 53.1 31.3 53.1 31.3 53.1 31.3 Z M 54.2 29.6 C 54.4 29.6 54.4 29.6 54.2 29.6 C 54.2 29.6 54.2 29.6 54.2 29.6 Z M 60.6 19.7 C 60.8 19.6 60.8 19.6 60.6 19.7 M 36.6 38.1 C 37.8 37.7 37.6 37.8 36.6 38.1 M 54.5 22.8 C 54.5 22.9 54.5 22.9 54.5 22.8 C 54.5 22.8 54.5 22.8 54.5 22.8 Z M 62.2 17.5 C 62.1 17.6 62.1 17.6 62.2 17.5 C 62.2 17.5 62.2 17.5 62.2 17.5 Z M 33.8 42.3 C 35.2 43.2 34.2 43.7 33.8 42.3 M 25.6 52.7 C 25.7 52.8 25.7 52.8 25.6 52.7 C 25.6 52.7 25.6 52.7 25.6 52.7 Z M 25.6 52.7 " fill="#EEEEEE"></path><path d="M 59.8 207.2 C 58.6 205.5 62.5 204.1 61.3 202.3 C 60.0 200.6 63.8 201.1 65.7 201.6 C 65.8 201.6 65.9 201.6 66.1 201.7 C 66.4 201.8 66.7 202.1 67.1 202.4 C 66.4 201.8 68.5 201.9 68.4 201.1 C 68.4 201.0 67.4 200.2 67.4 200.1 C 67.5 199.1 67.2 198.6 67.0 197.5 C 67.0 197.3 67.0 197.2 67.0 197.0 C 67.0 196.9 67.0 196.8 67.0 196.7 C 67.0 196.4 68.2 195.7 68.1 195.4 C 68.1 195.3 67.6 194.4 67.6 194.3 C 67.6 194.0 66.9 194.9 66.9 194.6 C 66.9 194.4 67.1 194.0 67.1 193.8 C 67.2 193.3 67.1 193.1 66.9 192.5 C 66.9 192.4 66.9 192.2 66.9 192.1 C 66.1 191.5 66.6 190.4 66.7 189.4 C 66.7 189.3 67.8 187.3 67.8 187.1 C 67.8 187.0 67.7 187.0 67.7 186.8 C 67.8 186.7 67.9 186.6 68.0 186.5 C 68.4 186.3 69.1 186.6 69.1 187.2 C 69.1 187.9 68.3 184.8 68.9 184.8 C 70.0 185.0 69.3 185.7 69.3 186.4 C 69.6 187.1 70.9 186.9 70.7 188.1 C 70.7 188.5 70.0 191.0 70.8 191.0 C 71.0 190.2 70.4 190.4 71.2 190.0 C 71.9 189.7 71.8 191.0 71.9 191.4 C 72.0 191.8 72.5 191.7 72.6 191.9 C 72.9 192.7 73.6 193.3 73.8 194.1 C 73.8 194.4 72.0 196.7 73.7 196.3 C 74.5 196.2 74.8 196.0 74.9 196.9 C 74.9 197.1 74.8 197.3 74.7 197.4 C 74.7 197.6 74.5 197.7 74.3 197.8 C 74.4 197.9 74.4 198.0 74.5 198.2 C 74.6 198.5 74.8 198.9 74.8 199.3 C 75.0 199.1 75.1 199.1 75.3 198.9 C 75.5 200.0 75.1 201.1 75.5 202.1 C 75.8 202.9 75.5 200.8 76.4 200.6 C 76.7 201.1 77.5 203.4 77.3 204.0 C 77.6 204.5 75.9 203.6 75.6 204.4 C 75.4 204.8 76.9 205.4 76.3 205.9 C 76.2 206.1 77.0 207.1 77.1 207.4 C 77.1 207.5 78.3 207.4 78.4 207.5 C 78.6 207.7 78.7 207.8 78.8 207.9 C 78.9 208.1 79.0 208.2 78.9 208.6 C 78.9 208.7 78.2 209.3 78.1 209.4 C 78.2 209.2 78.8 209.5 78.9 209.5 C 79.4 209.6 79.7 210.2 79.6 210.6 C 79.6 210.7 79.5 211.0 79.5 211.1 C 79.7 212.0 79.1 211.3 79.6 212.3 C 79.7 212.6 79.9 212.9 80.3 213.2 L 80.9 215.5 C 80.8 215.6 81.1 216.8 81.2 217.0 C 82.1 219.5 79.1 218.2 78.8 218.3 C 78.7 218.3 77.7 218.4 77.6 218.5 C 76.7 218.3 75.7 218.1 75.0 218.5 C 74.9 218.5 74.4 218.5 74.2 218.4 C 78.3 216.7 69.2 217.8 71.5 219.0 C 71.6 219.1 71.3 219.2 71.3 219.2 C 71.1 219.3 70.7 219.1 70.6 219.1 C 70.2 219.1 70.5 218.7 70.0 218.7 C 69.4 218.6 69.1 218.5 68.5 218.3 C 67.9 218.0 68.5 218.8 66.6 218.9 C 71.6 216.2 67.1 216.0 65.0 216.2 C 64.3 216.2 64.8 218.4 64.1 218.4 C 61.0 218.2 63.6 217.1 63.8 216.9 C 63.3 217.0 64.1 216.1 61.5 216.6 C 61.1 216.6 60.5 217.2 60.4 217.3 C 59.8 217.4 58.7 217.3 58.1 217.0 C 57.6 216.5 57.5 215.4 56.7 215.3 C 56.0 215.3 55.9 215.9 55.7 216.6 C 55.4 216.7 53.4 215.6 53.3 216.0 C 53.4 216.1 53.5 216.2 53.7 216.2 L 53.7 216.4 C 53.1 216.2 53.0 216.8 52.7 216.7 L 51.5 216.6 C 51.2 216.5 53.5 214.7 53.1 214.6 C 45.4 212.7 50.3 215.9 49.9 215.9 C 49.9 215.9 49.5 215.7 49.1 215.4 C 48.9 215.3 48.7 215.2 48.6 215.2 C 47.8 215.3 47.1 215.1 46.4 214.7 C 46.3 214.6 46.1 214.5 46.0 214.4 C 45.6 214.1 45.0 213.6 45.3 213.2 C 46.5 212.4 47.3 212.5 48.5 212.2 C 48.7 212.2 48.8 212.2 48.9 212.2 C 49.4 212.2 50.0 212.0 50.5 211.7 C 50.7 211.6 50.8 211.6 51.0 211.5 C 52.1 211.2 53.3 210.5 54.2 209.8 C 54.4 209.8 55.3 210.5 55.4 210.4 C 55.7 210.2 55.3 209.3 55.6 209.6 C 55.8 209.6 57.5 210.0 57.6 210.0 C 58.1 210.0 57.0 209.5 57.5 209.5 C 57.7 209.5 57.8 209.5 58.0 209.5 C 58.9 208.7 61.3 210.4 61.4 208.8 C 60.1 207.1 61.1 209.0 59.8 207.2 Z M 66.8 187.1 C 67.1 187.2 67.1 187.2 66.8 187.4 C 66.8 187.3 66.8 187.0 66.8 187.1 Z M 67.9 187.9 C 68.1 188.1 68.1 188.2 68.2 188.4 C 68.7 188.7 68.5 189.1 68.2 189.6 C 68.1 189.7 67.8 190.2 67.7 190.4 C 67.2 191.0 66.9 191.0 67.3 191.0 C 67.3 190.9 67.2 191.3 67.4 191.6 C 67.5 191.7 67.6 191.3 67.7 191.2 C 67.8 191.1 68.4 191.4 68.4 191.3 C 68.5 191.3 68.1 190.6 68.2 190.3 C 68.3 190.3 68.8 189.6 68.9 189.4 C 68.8 189.4 68.6 188.2 68.1 188.2 C 68.1 188.1 68.0 188.0 67.9 187.9 Z M 70.2 196.4 C 70.1 197.0 70.0 197.4 69.7 197.8 C 69.7 197.9 69.6 198.0 69.5 198.1 C 69.4 198.3 69.2 198.4 69.2 198.5 C 69.2 198.8 69.6 198.7 69.4 198.7 C 69.6 198.5 69.8 198.3 69.7 198.3 C 69.8 198.3 70.0 198.2 70.1 198.2 C 70.7 197.9 70.9 197.2 70.4 196.4 C 70.3 196.3 70.2 196.2 70.2 196.4 Z M 69.9 190.7 C 68.1 192.8 68.5 193.1 70.1 191.1 C 70.1 190.9 70.0 190.8 69.9 190.7 Z M 67.2 195.5 C 67.1 195.4 67.0 195.2 66.9 195.1 C 66.9 195.3 66.7 196.0 67.1 195.8 C 67.1 195.5 66.9 195.7 67.2 195.5 Z M 69.9 195.3 C 70.4 195.7 70.4 195.7 70.8 195.9 C 71.0 196.0 71.0 196.1 71.1 196.1 C 71.1 196.1 70.9 195.8 70.7 195.6 C 70.5 195.4 70.3 195.2 70.3 195.3 C 70.3 195.2 70.1 195.2 69.9 195.3 Z M 71.8 194.7 C 71.7 194.4 71.7 194.1 71.5 193.8 C 70.7 194.1 71.2 195.1 71.8 195.3 C 71.8 195.1 71.9 194.9 71.8 194.7 Z M 67.6 198.5 C 67.6 198.7 68.1 199.6 67.9 200.0 C 68.6 200.5 68.8 200.2 69.3 199.5 C 68.4 199.9 68.1 197.8 68.0 196.4 C 68.0 196.3 67.6 198.5 67.6 198.5 Z M 72.6 198.3 C 72.5 198.4 72.2 198.5 71.9 198.6 C 71.7 198.7 71.5 198.7 71.4 198.8 C 71.2 198.8 71.1 198.9 71.0 198.9 C 70.9 199.0 70.8 199.1 70.7 199.1 C 70.7 199.9 69.4 200.1 69.8 201.0 C 70.1 200.7 70.1 200.7 70.4 200.2 C 70.5 200.1 70.5 200.1 70.6 200.0 C 70.7 199.9 70.8 199.8 70.8 199.7 C 70.9 199.6 71.0 199.5 71.1 199.5 C 71.3 199.4 71.4 199.3 71.5 199.2 C 71.6 199.1 71.8 199.0 71.9 198.9 C 72.1 198.7 72.4 198.6 72.7 198.7 C 72.6 198.6 72.6 198.4 72.6 198.3 Z M 75.2 210.8 C 74.9 210.7 74.9 210.9 75.0 211.1 C 75.1 211.1 75.2 211.2 75.4 211.3 C 75.5 211.3 75.6 211.3 75.7 211.3 C 75.7 211.2 75.6 211.1 75.5 211.0 C 75.4 210.9 75.3 210.9 75.2 210.8 Z M 76.7 214.2 C 76.8 214.3 76.9 214.5 77.1 214.6 C 77.2 214.7 77.4 214.8 77.5 214.9 C 77.6 214.9 77.7 214.9 77.8 215.0 C 78.0 215.1 78.1 215.1 78.2 215.2 C 78.7 215.8 78.0 215.9 79.2 215.7 C 78.5 215.2 79.3 214.3 78.2 214.7 C 78.1 214.8 78.0 214.6 77.9 214.5 C 77.9 214.4 77.8 214.3 77.7 214.2 C 77.7 214.1 77.8 214.0 77.6 213.9 L 77.6 214.0 C 77.5 213.6 76.7 213.9 76.7 214.2 Z M 78.7 211.2 C 74.7 208.2 76.2 209.9 78.4 211.3 C 78.5 211.3 78.6 211.3 78.7 211.2 Z M 74.2 215.3 C 74.4 215.2 74.5 215.2 74.7 215.3 L 74.7 215.3 C 74.7 215.1 74.9 215.0 74.7 214.8 C 74.4 214.6 74.2 214.8 73.9 214.8 C 73.8 214.8 73.2 214.5 73.1 214.7 C 73.4 215.0 73.8 215.3 74.2 215.3 Z M 72.4 216.3 C 72.3 215.8 71.5 215.8 71.2 215.9 C 71.5 215.9 72.4 216.6 72.4 216.3 Z M 73.3 212.7 C 73.5 212.8 73.5 212.9 73.8 212.9 C 73.9 212.9 74.0 212.8 74.1 212.9 L 74.1 212.9 C 74.0 212.7 74.2 212.4 73.9 212.4 C 73.7 212.3 73.5 212.6 73.4 212.5 C 73.2 212.5 73.2 212.3 73.0 212.3 C 73.0 212.6 73.1 212.5 73.3 212.7 Z M 74.2 206.1 C 74.1 206.2 74.1 206.2 74.1 206.3 C 74.1 206.4 74.2 206.5 74.3 206.6 C 74.3 206.6 74.4 206.4 74.4 206.2 C 74.4 206.0 74.4 205.9 74.2 206.1 Z M 73.8 206.6 C 73.5 207.4 73.7 207.8 74.3 208.3 C 74.3 207.7 74.1 207.1 73.8 206.6 Z M 72.1 209.3 C 72.2 209.4 72.4 209.5 72.6 209.5 C 72.6 209.4 72.5 209.3 72.5 209.1 C 72.3 209.1 72.2 209.1 72.1 209.3 Z M 76.7 204.8 C 76.6 204.8 76.4 204.8 76.3 204.8 C 76.4 204.8 76.5 204.9 76.6 205.1 C 76.6 205.0 76.6 204.9 76.7 204.8 Z M 78.0 206.8 C 77.8 206.4 77.5 206.1 77.3 205.8 L 76.9 205.4 C 76.8 206.1 77.3 206.5 77.4 206.8 C 77.5 207.1 77.8 207.1 78.0 206.8 Z M 76.1 207.6 C 76.3 207.3 76.3 206.9 75.8 206.9 C 75.8 207.1 76.0 207.4 76.1 207.6 Z M 66.5 218.0 C 66.4 218.0 65.6 218.0 65.4 218.0 C 65.8 218.6 66.8 218.1 66.5 218.0 Z M 70.1 218.3 C 70.4 218.0 70.2 217.3 69.6 217.4 C 69.1 218.0 69.5 218.3 70.1 218.3 Z M 68.4 214.9 C 68.5 214.9 69.0 215.1 69.0 215.1 C 68.7 214.8 68.5 214.8 68.1 214.5 C 68.5 214.7 68.6 214.9 68.4 214.9 Z M 69.4 213.9 C 69.6 213.9 69.9 214.1 70.1 214.2 C 69.8 213.9 69.5 213.5 69.1 213.2 C 69.0 213.2 68.9 213.3 68.8 213.4 C 68.2 213.4 69.2 213.9 69.4 213.9 Z M 49.4 213.6 C 49.6 213.5 49.9 213.5 50.1 213.5 C 50.6 213.5 51.1 213.3 51.2 212.6 C 51.0 213.0 50.7 213.4 50.2 213.2 C 50.1 213.2 49.9 213.2 49.8 213.2 C 49.6 213.3 49.5 213.4 49.4 213.6 Z M 52.8 211.4 C 52.1 211.6 51.7 211.3 51.1 212.0 C 52.2 212.2 52.7 211.5 53.2 211.2 C 53.1 211.3 52.9 211.3 52.8 211.4 Z M 52.0 212.6 C 52.6 212.5 52.2 213.0 52.7 213.0 C 52.7 212.7 52.7 212.6 52.3 212.5 C 52.2 212.5 52.1 212.6 52.0 212.6 Z M 54.5 211.1 C 54.7 211.9 53.3 211.4 53.8 212.3 C 54.1 211.9 54.4 211.6 54.5 211.4 C 54.5 211.3 54.6 211.2 54.5 211.1 Z M 73.9 198.8 C 72.1 201.1 72.5 201.3 74.0 199.1 C 73.9 199.0 73.9 198.8 73.9 198.8 Z M 68.6 202.6 C 69.4 203.5 68.2 202.2 69.3 203.1 C 69.4 203.1 69.1 203.6 69.3 203.7 C 69.1 203.6 68.9 203.9 68.6 203.7 C 67.5 202.6 68.0 203.7 67.8 202.1 C 67.8 202.1 68.7 202.6 68.6 202.6 Z M 73.8 201.9 C 73.8 202.0 73.8 202.1 73.9 202.2 C 74.0 202.4 74.2 202.7 74.4 202.9 C 74.3 202.5 74.1 202.2 73.8 201.9 Z M 69.4 209.1 C 69.5 209.3 69.6 209.5 69.7 209.7 C 69.8 209.4 69.5 209.2 69.4 209.1 Z M 72.9 218.9 C 73.0 218.9 73.1 218.9 73.1 218.9 C 73.1 218.8 73.1 218.7 73.0 218.6 C 72.9 218.7 72.9 218.8 72.9 218.9 Z M 74.4 204.3 C 74.5 204.2 74.6 204.2 74.7 204.1 C 74.8 203.9 74.7 203.7 74.6 203.5 C 74.6 203.5 74.5 203.4 74.4 203.3 C 74.1 203.7 74.1 203.7 74.2 204.0 C 74.3 204.1 74.4 204.2 74.4 204.3 Z M 59.6 209.0 C 59.7 209.0 59.8 208.9 59.9 208.8 C 60.0 208.7 59.9 208.4 59.8 208.3 C 59.7 208.2 59.7 208.1 59.6 208.1 C 59.3 208.5 59.3 208.5 59.4 208.8 C 59.5 208.9 59.6 208.9 59.6 209.0 Z M 67.8 185.8 C 68.0 185.8 68.2 185.6 68.3 185.5 C 68.5 185.2 68.4 184.7 68.2 184.4 C 68.1 184.2 67.9 184.1 67.7 184.0 C 67.1 184.7 67.1 184.7 67.4 185.4 C 67.5 185.6 67.7 185.7 67.8 185.8 Z M 74.4 195.7 C 74.6 195.6 74.6 195.6 74.7 195.5 C 74.8 195.3 74.7 195.1 74.6 195.0 C 74.6 194.9 74.5 194.8 74.4 194.8 C 74.1 195.1 74.1 195.1 74.2 195.4 C 74.3 195.5 74.4 195.6 74.4 195.7 Z M 66.3 217.2 C 66.5 217.2 67.6 217.1 67.6 216.8 C 67.3 216.7 65.6 216.7 65.3 216.7 C 65.3 217.0 66.1 216.9 66.3 217.2 Z M 64.4 213.5 C 65.3 213.6 65.5 213.8 66.0 212.7 C 65.7 212.6 65.4 212.5 65.1 212.5 C 64.7 212.5 64.4 212.5 64.1 212.5 C 63.6 212.9 63.6 212.9 63.4 213.1 C 63.4 213.3 63.6 213.4 63.9 213.4 C 64.1 213.4 64.3 213.4 64.4 213.5 Z M 51.2 215.4 C 51.7 215.4 51.9 215.6 52.2 214.9 C 52.0 214.8 51.8 214.8 51.7 214.8 C 51.5 214.8 51.2 214.8 51.1 214.8 C 50.8 215.1 50.8 215.1 50.6 215.2 C 50.6 215.3 50.8 215.4 50.9 215.4 C 51.0 215.4 51.2 215.4 51.2 215.4 Z M 66.1 212.4 C 66.2 212.2 66.0 212.1 65.6 212.1 C 65.7 212.3 65.9 212.4 66.1 212.4 Z M 63.0 209.4 C 63.3 209.4 63.5 209.3 63.7 209.1 C 63.2 208.2 62.1 207.9 61.3 207.5 C 61.8 208.2 62.5 208.7 63.0 209.4 Z M 69.1 206.9 C 68.7 207.0 68.5 205.8 67.7 206.4 C 67.8 206.4 67.9 206.5 67.9 206.6 C 68.1 206.8 68.4 206.9 68.7 207.0 C 68.8 207.0 69.0 206.9 69.1 206.9 Z M 62.2 218.4 C 61.8 218.5 61.6 217.2 60.8 217.8 C 60.9 217.9 61.0 218.0 61.0 218.0 C 61.2 218.2 61.5 218.4 61.8 218.4 C 61.9 218.4 62.1 218.4 62.2 218.4 Z M 59.9 215.3 C 60.1 215.5 60.3 215.3 60.6 215.2 C 60.8 215.0 60.9 214.8 61.0 214.8 C 60.6 214.6 60.3 214.4 60.1 214.6 C 60.0 214.5 59.8 214.6 59.7 214.6 C 59.5 214.7 59.4 214.8 59.2 214.9 C 59.6 215.1 59.4 215.2 59.9 215.3 Z M 57.0 216.6 C 56.9 216.4 56.7 215.8 56.4 216.2 C 56.2 216.3 56.9 216.6 57.0 216.6 Z M 56.4 214.9 C 56.3 214.7 56.1 214.5 55.9 214.4 C 55.6 214.5 56.1 215.2 56.4 214.9 Z M 57.8 213.1 C 57.6 213.0 57.4 212.9 57.2 212.8 C 57.3 213.0 57.6 213.1 57.8 213.1 Z M 56.5 211.0 C 56.2 210.7 56.2 210.7 55.7 211.0 C 55.6 211.0 55.6 211.2 55.5 211.3 C 55.3 211.7 55.1 212.1 54.7 211.9 C 54.8 212.5 55.7 212.0 56.1 212.3 C 56.3 212.0 56.5 211.8 56.5 211.5 C 56.6 211.4 56.6 211.3 56.6 211.2 C 56.5 211.1 56.5 211.1 56.5 211.0 Z M 54.4 214.6 L 54.8 214.7 C 55.0 214.7 55.4 214.7 55.4 214.3 C 55.2 214.3 54.6 214.4 54.4 214.6 Z M 57.1 211.3 C 57.3 211.5 57.3 211.5 57.7 211.8 C 57.8 211.9 57.9 212.0 58.0 212.1 C 58.6 212.4 59.2 212.5 60.0 212.4 C 59.7 211.9 59.0 211.9 58.3 211.8 C 58.2 211.8 58.1 211.8 57.9 211.7 C 57.6 211.8 57.3 211.5 57.3 211.4 C 57.3 211.4 57.2 211.3 57.1 211.3 Z M 59.3 211.2 C 59.4 211.3 59.6 211.4 59.7 211.5 C 60.2 211.8 60.8 212.0 59.9 211.3 C 59.8 211.2 59.7 211.1 59.5 211.0 C 59.3 211.0 59.2 211.0 59.3 211.2 Z M 60.3 212.5 C 60.5 212.7 60.7 212.9 60.8 213.1 C 60.9 213.3 61.0 213.4 60.9 213.5 C 60.9 213.7 61.0 213.9 61.2 214.0 C 61.3 214.1 61.5 214.0 61.8 213.8 C 61.3 213.9 61.5 213.1 61.2 212.8 C 61.2 212.7 61.0 212.7 60.8 212.7 C 60.7 212.6 60.5 212.5 60.3 212.5 Z M 66.6 207.9 C 66.6 207.3 67.3 206.2 66.3 206.4 C 66.2 206.9 66.2 207.6 66.6 207.9 Z M 66.1 204.2 C 66.1 204.3 66.1 204.4 66.0 204.5 C 66.0 204.5 65.9 204.6 65.8 204.7 C 65.8 204.8 65.8 204.9 65.8 205.0 C 65.9 205.2 66.2 205.4 66.5 205.4 C 66.8 205.3 66.6 205.1 66.3 204.9 C 66.2 204.8 66.0 204.6 66.0 204.5 C 65.9 204.4 65.9 204.3 66.1 204.2 L 66.1 204.2 Z M 63.7 206.5 C 63.8 206.5 64.0 206.5 64.1 206.5 C 64.3 206.4 64.4 206.4 64.6 206.3 C 64.6 206.2 64.5 206.0 64.3 205.9 C 64.2 205.7 64.0 205.6 63.9 205.5 C 63.6 205.4 63.2 205.2 62.7 205.0 C 62.6 205.1 62.5 205.1 62.4 205.2 C 62.4 205.2 62.3 205.3 62.1 205.4 C 62.2 205.5 62.5 205.7 62.7 205.9 C 62.9 206.1 63.1 206.2 63.2 206.3 C 63.4 206.4 63.5 206.5 63.7 206.5 Z M 62.2 206.1 C 62.2 205.9 62.1 205.7 61.9 205.6 C 61.7 205.7 61.8 205.9 62.2 206.1 Z M 64.1 203.7 C 64.4 203.7 64.0 203.4 63.8 203.4 C 63.9 203.5 64.0 203.6 64.1 203.7 Z M 60.3 205.9 C 61.0 206.4 61.1 205.6 61.0 205.4 C 60.9 205.5 60.4 205.8 60.3 205.9 Z M 60.3 205.9 " fill="#EEEEEE"></path></g></svg>