<?xml version="1.0" encoding="UTF-8" standalone="no"?><svg xmlns="http://www.w3.org/2000/svg" xmlns:xlink="http://www.w3.org/1999/xlink" clip-rule="evenodd" stroke-miterlimit="10" viewBox="0 0 1024 768"><desc>SVG generated by Keynote</desc><defs></defs><g transform="matrix(1.00, 0.00, -0.00, -1.00, 0.0, 768.0)"><g><clipPath id="clip0x6000014b6140"><path d="M 0.0 768.0 L 1024.0 768.0 L 1024.0 0.0 L 0.0 0.0 Z M 0.0 768.0 "></path></clipPath><g clip-path="url(#clip0x6000014b6140)"><image xlink:href="../../BE4D2DDB-FBE4-467E-AE38-B34F9028D09E/assets/9397CAD6F20342ACC2646ABBCA758461.jpeg" width="2048.00" height="1536.00" transform="matrix(0.50, 0.00, -0.00, -0.50, 0.0, 768.0)"></image></g></g><image xlink:href="../../A35125CE-8143-489B-B62B-5B079AFF441F/assets/485FD6D2188C26FE004D60E9DCAAF8E0.png" width="668.00" height="123.00" transform="matrix(1.00, 0.00, -0.00, -1.00, 175.0, 429.0)"></image><text xml:space="preserve" font-family="HelveticaNeue-Bold,Helvetica Neue" font-weight="bold" font-size="128.0" fill="#FEFFFE" transform="matrix(1.00, 0.00, -0.00, -1.00, 177.7, 335.5)">T</text><text xml:space="preserve" font-family="HelveticaNeue-Bold,Helvetica Neue" font-weight="bold" font-size="128.0" fill="#FEFFFE" transform="matrix(1.00, 0.00, -0.00, -1.00, 255.9, 335.5)">h</text><text xml:space="preserve" font-family="HelveticaNeue-Bold,Helvetica Neue" font-weight="bold" font-size="128.0" fill="#FEFFFE" transform="matrix(1.00, 0.00, -0.00, -1.00, 331.8, 335.5)">a</text><text xml:space="preserve" font-family="HelveticaNeue-Bold,Helvetica Neue" font-weight="bold" font-size="128.0" fill="#FEFFFE" transform="matrix(1.00, 0.00, -0.00, -1.00, 405.2, 335.5)">n</text><text xml:space="preserve" font-family="HelveticaNeue-Bold,Helvetica Neue" font-weight="bold" font-size="128.0" fill="#FEFFFE" transform="matrix(1.00, 0.00, -0.00, -1.00, 481.2, 335.5)">k</text><text xml:space="preserve" font-family="HelveticaNeue-Bold,Helvetica Neue" font-weight="bold" font-size="128.0" fill="#FEFFFE" transform="matrix(1.00, 0.00, -0.00, -1.00, 554.6, 335.5)"> </text><text xml:space="preserve" font-family="HelveticaNeue-Bold,Helvetica Neue" font-weight="bold" font-size="128.0" fill="#FEFFFE" transform="matrix(1.00, 0.00, -0.00, -1.00, 590.2, 335.5)">y</text><text xml:space="preserve" font-family="HelveticaNeue-Bold,Helvetica Neue" font-weight="bold" font-size="128.0" fill="#FEFFFE" transform="matrix(1.00, 0.00, -0.00, -1.00, 656.6, 335.5)">o</text><text xml:space="preserve" font-family="HelveticaNeue-Bold,Helvetica Neue" font-weight="bold" font-size="128.0" fill="#FEFFFE" transform="matrix(1.00, 0.00, -0.00, -1.00, 734.8, 335.5)">u</text><text xml:space="preserve" font-family="HelveticaNeue-Bold,Helvetica Neue" font-weight="bold" font-size="128.0" fill="#FEFFFE" transform="matrix(1.00, 0.00, -0.00, -1.00, 810.8, 335.5)">!</text></g></svg>